<svg xmlns="http://www.w3.org/2000/svg" xmlns:xlink="http://www.w3.org/1999/xlink" width="768.064" height="665.21" viewBox="0 0 768.064 665.21">
  <defs>
    <linearGradient id="linear-gradient" x1="0.5" y1="1.686" x2="0.414" y2="-0.367" gradientUnits="objectBoundingBox">
      <stop offset="0" stop-color="#f2f2f2"/>
      <stop offset="1" stop-color="#fff"/>
    </linearGradient>
    <linearGradient id="linear-gradient-2" x1="0.5" x2="0.5" y2="1" gradientUnits="objectBoundingBox">
      <stop offset="0" stop-color="#76c53b"/>
      <stop offset="1" stop-color="#8ad054"/>
    </linearGradient>
    <linearGradient id="linear-gradient-18" x1="0.5" x2="0.5" y2="1" gradientUnits="objectBoundingBox">
      <stop offset="0" stop-color="#ffb93d"/>
      <stop offset="1" stop-color="#fec867"/>
    </linearGradient>
    <linearGradient id="linear-gradient-21" x1="0.5" x2="0.5" y2="1" gradientUnits="objectBoundingBox">
      <stop offset="0" stop-color="#e4e4e4"/>
      <stop offset="1" stop-color="#c8c8c8"/>
    </linearGradient>
    <linearGradient id="linear-gradient-27" x1="0.5" x2="0.5" y2="1" gradientUnits="objectBoundingBox">
      <stop offset="0" stop-color="#de3c1f"/>
      <stop offset="1" stop-color="#ef6a09"/>
    </linearGradient>
  </defs>
  <g id="Group_1248" data-name="Group 1248" transform="translate(-1011.937 -191.817)">
    <g id="Group_618" data-name="Group 618" transform="translate(1044.129 399.42)">
      <path id="Path_375" data-name="Path 375" d="M598.123,120.714c152.134,109,135.822,191.493,138.1,384.554S328.547,605.756,127.688,602.7,23.613,305.007,21.337,111.947,445.989,11.717,598.123,120.714Z" transform="matrix(0.999, 0.052, -0.052, 0.999, 0.651, -207.603)" fill="url(#linear-gradient)"/>
    </g>
    <g id="Shared_goals-pana" data-name="Shared goals-pana" transform="translate(1035.266 300.744)">
      <g id="freepik--background-complete--inject-2" transform="translate(0 0)">
        <path id="Path_3512" data-name="Path 3512" d="M649.219,363.267a37.149,37.149,0,0,0-9.855-24.487C636.382,351.07,649.219,363.267,649.219,363.267Z" transform="translate(-23.766 -31.332)" fill="url(#linear-gradient-2)"/>
        <path id="Path_3513" data-name="Path 3513" d="M635.816,355.877a37.067,37.067,0,0,0-26.376-.722C619.542,362.78,635.816,355.877,635.816,355.877Z" transform="translate(-24.707 -30.876)" fill="url(#linear-gradient-2)"/>
        <path id="Path_3514" data-name="Path 3514" d="M633.6,348.714a29.193,29.193,0,0,0-3.56-20.5C625.7,337.208,633.6,348.714,633.6,348.714Z" transform="translate(-24.091 -31.67)" fill="url(#linear-gradient-2)"/>
        <path id="Path_3515" data-name="Path 3515" d="M688.064,320.25c-20.917,5.572-32.134,23.734-32.134,23.734C673.8,344.015,688.064,320.25,688.064,320.25Z" transform="translate(-23.223 -31.924)" fill="url(#linear-gradient-2)"/>
        <path id="Path_3516" data-name="Path 3516" d="M655.348,330.046C656.38,307.5,634.4,281.98,634.4,281.98c3.323,28,20.948,48.066,20.948,48.066" transform="translate(-23.91 -33.145)" fill="url(#linear-gradient-2)"/>
        <path id="Path_3517" data-name="Path 3517" d="M654.8,266.34a60.46,60.46,0,0,0,7.925,32.288C665.843,284.13,654.8,266.34,654.8,266.34Z" transform="translate(-23.261 -33.644)" fill="url(#linear-gradient-2)"/>
        <path id="Path_3518" data-name="Path 3518" d="M663,311.282c16.511-1.765,25.447-18.162,25.447-18.162C668.552,298.7,663,311.282,663,311.282Z" transform="translate(-22.998 -32.789)" fill="url(#linear-gradient-2)"/>
        <path id="Path_3519" data-name="Path 3519" d="M698.291,377.681A37.055,37.055,0,0,0,672.38,372.7C681.079,381.861,698.291,377.681,698.291,377.681Z" transform="translate(-22.698 -30.268)" fill="url(#linear-gradient-2)"/>
        <path id="Path_3520" data-name="Path 3520" d="M656.1,384.68a24.3,24.3,0,0,0,11.072,12.486C666.471,389.561,656.1,384.68,656.1,384.68Z" transform="translate(-23.218 -29.868)" fill="url(#linear-gradient-2)"/>
        <path id="Path_3521" data-name="Path 3521" d="M658.15,382.352c9.38,5.779,19.71,3.519,19.71,3.519C671.513,379.257,658.15,382.352,658.15,382.352Z" transform="translate(-23.152 -29.965)" fill="url(#linear-gradient-2)"/>
        <path id="Path_3522" data-name="Path 3522" d="M650.015,415.693V404.62c0-2.332,0-4.974.165-7.9.145-5.861.557-12.837,1.156-20.556s1.61-16.2,2.9-25.044c2.6-17.708,6.191-33.527,9.019-44.9,1.445-5.686,2.662-10.319,3.55-13.415.413-1.527.743-2.745.98-3.643l.237-.949a1.311,1.311,0,0,0,.062-.341,1.164,1.164,0,0,0-.134.31l-.31.939c-.268.887-.64,2.064-1.115,3.612-.97,3.1-2.27,7.7-3.777,13.415a417.955,417.955,0,0,0-9.287,44.919c-1.29,8.875-2.208,17.357-2.848,25.1s-.929,14.725-1.032,20.638c-.093,2.941-.062,5.593-.052,7.925s0,4.344.083,5.985.1,2.848.134,3.777a5.5,5.5,0,0,0,.052.98A1.694,1.694,0,0,0,650.015,415.693Z" transform="translate(-23.428 -32.957)" fill="#e0e0e0"/>
        <path id="Path_3523" data-name="Path 3523" d="M680.207,365.5c-.113-.175-6.78,4.2-14.88,9.752s-14.571,10.185-14.447,10.319,6.769-4.2,14.88-9.752S680.32,365.665,680.207,365.5Z" transform="translate(-23.384 -30.48)" fill="#e0e0e0"/>
        <path id="Path_3524" data-name="Path 3524" d="M651.735,368.644a6.187,6.187,0,0,0-1.032-1.125l-2.962-2.827-9.906-9.287c-3.8-3.57-7.223-6.79-9.906-9.287l-3-2.817a5.392,5.392,0,0,0-1.166-.97,6.8,6.8,0,0,0,.96,1.166c.65.733,1.631,1.744,2.848,2.993,2.435,2.477,5.882,5.83,9.762,9.452s7.45,6.842,10.061,9.143c1.311,1.145,2.373,2.064,3.1,2.683A6.276,6.276,0,0,0,651.735,368.644Z" transform="translate(-24.25 -31.219)" fill="#e0e0e0"/>
        <path id="Path_3525" data-name="Path 3525" d="M700.56,355.14s-17.037-.32-24.24,13.085A30.658,30.658,0,0,0,700.56,355.14Z" transform="translate(-22.573 -30.81)" fill="url(#linear-gradient-2)"/>
        <path id="Path_3526" data-name="Path 3526" d="M677.628,348.52s-13.869,9.9-11.661,24.952A30.679,30.679,0,0,0,677.628,348.52Z" transform="translate(-22.911 -31.021)" fill="url(#linear-gradient-2)"/>
        <path id="Path_3527" data-name="Path 3527" d="M606.47,324.9s5.469,19.059,22.857,22.485A35.673,35.673,0,0,0,606.47,324.9Z" transform="translate(-24.802 -31.775)" fill="url(#linear-gradient-2)"/>
        <path id="Path_3528" data-name="Path 3528" d="M685.2,256.2s-21.732,14.178-19.328,37.231A46.725,46.725,0,0,0,685.2,256.2Z" transform="translate(-22.912 -33.967)" fill="url(#linear-gradient-2)"/>
        <path id="Path_3529" data-name="Path 3529" d="M614.5,378.39a8.342,8.342,0,0,0,1.414,1.135c.939.681,2.281,1.692,3.9,2.982a95.444,95.444,0,0,1,21.505,23.94c1.1,1.754,1.961,3.189,2.539,4.2a7.667,7.667,0,0,0,.98,1.517,9.111,9.111,0,0,0-.722-1.651c-.506-1.032-1.3-2.538-2.353-4.334a82.668,82.668,0,0,0-21.588-24.064c-1.672-1.249-3.1-2.2-4.055-2.807a8.522,8.522,0,0,0-1.62-.918Z" transform="translate(-24.545 -30.068)" fill="#e0e0e0"/>
        <path id="Path_3530" data-name="Path 3530" d="M633,392.911A37.077,37.077,0,0,0,628.014,367C625.672,383.16,633,392.911,633,392.911Z" transform="translate(-24.129 -30.432)" fill="url(#linear-gradient-2)"/>
        <path id="Path_3531" data-name="Path 3531" d="M619.247,384.5a26.964,26.964,0,0,0-18.977-2.941C610.765,387.12,619.247,384.5,619.247,384.5Z" transform="translate(-25 -29.986)" fill="url(#linear-gradient-2)"/>
        <path id="Path_3532" data-name="Path 3532" d="M682.747,413.46l-8.152,53.587H627.22l-10.99-52.813Z" transform="translate(-24.49 -28.949)" fill="url(#linear-gradient-18)"/>
        <path id="Path_3533" data-name="Path 3533" d="M622.65,446.749c0,.155,12.135.279,27.108.279s27.108-.124,27.108-.279-12.135-.279-27.108-.279S622.65,446.594,622.65,446.749Z" transform="translate(-24.285 -27.896)" fill="#fafafa"/>
        <path id="Path_3534" data-name="Path 3534" d="M622.47,444.2c0,.155,12.218.279,27.294.279s27.294-.124,27.294-.279-12.218-.279-27.294-.279S622.47,444,622.47,444.2Z" transform="translate(-24.291 -27.977)" fill="#fafafa"/>
        <path id="Path_3535" data-name="Path 3535" d="M622.56,441.31c0,.155,12.218.279,27.294.279s27.294-.124,27.294-.279-12.218-.31-27.3-.31S622.56,441.155,622.56,441.31Z" transform="translate(-24.288 -28.07)" fill="#fafafa"/>
        <path id="Path_3536" data-name="Path 3536" d="M667.52,462.84a44.935,44.935,0,0,0,1.455-6.738,42.218,42.218,0,0,0,.9-6.842A44.935,44.935,0,0,0,668.418,456,42.219,42.219,0,0,0,667.52,462.84Z" transform="translate(-22.853 -27.807)" fill="#fafafa"/>
        <path id="Path_3537" data-name="Path 3537" d="M664.393,462.277a49.794,49.794,0,0,0,.588-6.584,51.934,51.934,0,0,0,.31-6.594A53.594,53.594,0,0,0,664.393,462.277Z" transform="translate(-22.956 -27.812)" fill="#fafafa"/>
        <path id="Path_3538" data-name="Path 3538" d="M658.7,462.291a32.521,32.521,0,0,0,1.238-6.749,33.5,33.5,0,0,0,.361-6.852,56.866,56.866,0,0,0-.918,6.79,60.221,60.221,0,0,0-.681,6.811Z" transform="translate(-23.135 -27.825)" fill="#fafafa"/>
        <path id="Path_3539" data-name="Path 3539" d="M654.712,462.565a55.3,55.3,0,0,0,.444-13.735,61.071,61.071,0,0,0-.351,6.862A57.506,57.506,0,0,0,654.712,462.565Z" transform="translate(-23.264 -27.82)" fill="#fafafa"/>
        <path id="Path_3540" data-name="Path 3540" d="M647.635,462.273a74.955,74.955,0,0,0,.444-13.033,38.752,38.752,0,0,0-.5,6.511,39.652,39.652,0,0,0,.051,6.522Z" transform="translate(-23.493 -27.807)" fill="#fafafa"/>
        <path id="Path_3541" data-name="Path 3541" d="M642.48,462.565a83.007,83.007,0,0,0-.113-13.415,83.014,83.014,0,0,0,.113,13.415Z" transform="translate(-23.663 -27.81)" fill="#fafafa"/>
        <path id="Path_3542" data-name="Path 3542" d="M637.662,461.883a43.673,43.673,0,0,0-.4-7.038,45.759,45.759,0,0,0-.949-6.976,43.678,43.678,0,0,0,.4,7.038A45.766,45.766,0,0,0,637.662,461.883Z" transform="translate(-23.85 -27.851)" fill="#fafafa"/>
        <path id="Path_3543" data-name="Path 3543" d="M631.459,461.134a24,24,0,0,0-.795-5.985,23.733,23.733,0,0,0-1.765-5.768,52.439,52.439,0,0,0,1.218,5.892A54.3,54.3,0,0,0,631.459,461.134Z" transform="translate(-24.086 -27.803)" fill="#fafafa"/>
        <path id="Path_3544" data-name="Path 3544" d="M688.367,403.18V413.2a3.942,3.942,0,0,1-3.952,3.952H615.782a3.952,3.952,0,0,1-3.952-3.952V403.18Z" transform="translate(-24.631 -29.277)" fill="url(#linear-gradient-18)"/>
        <path id="Path_3545" data-name="Path 3545" d="M682.225,416.72l-.578,3.189-63.287,4.52-1.61-7.708Z" transform="translate(-24.474 -28.845)" fill="url(#linear-gradient-18)"/>
        <rect id="Rectangle_235" data-name="Rectangle 235" width="93.966" height="136.202" transform="translate(197.601 16.49)" fill="#e0e0e0"/>
        <rect id="Rectangle_236" data-name="Rectangle 236" width="93.966" height="136.202" transform="translate(192.895 16.49)" fill="#e6e6e6"/>
        <rect id="Rectangle_237" data-name="Rectangle 237" width="70.614" height="106.7" transform="translate(204.566 31.246)" fill="#fff"/>
        <path id="Path_3546" data-name="Path 3546" d="M311.65,177.821v-7.884c0-5.16,0-12.558-.062-21.98,0-18.812-.072-45.4-.124-76.826l.237.237H241.1l.258-.258c0,40.245,0,77.393-.052,106.689l-.206-.2,51.4.1,14.2.052h.083l-14.158.052-51.523.1h-.206v-.206c0-29.327,0-66.445-.052-106.689V70.76h71.006V71c-.052,31.432-.093,58.128-.113,76.981,0,9.39-.052,16.83-.062,21.928v7.3C311.67,177.553,311.65,177.821,311.65,177.821Z" transform="translate(-36.47 -39.885)" fill="#e0e0e0"/>
        <path id="Path_3547" data-name="Path 3547" d="M321.4,56.82a15.345,15.345,0,0,1-1.672,2.435c-1.094,1.465-2.642,3.447-4.406,5.593s-3.426,4.045-4.654,5.4a16.655,16.655,0,0,1-2.064,2.064,16.9,16.9,0,0,1,1.8-2.342l4.52-5.49,4.551-5.407a18.955,18.955,0,0,1,1.93-2.25Z" transform="translate(-34.307 -40.33)" fill="#e0e0e0"/>
        <path id="Path_3548" data-name="Path 3548" d="M309.81,174.18a87.3,87.3,0,0,0,12.321,15.406" transform="translate(-34.269 -36.585)" fill="#fff"/>
        <path id="Path_3549" data-name="Path 3549" d="M322.131,189.586a14.06,14.06,0,0,1-2.146-1.95,68.105,68.105,0,0,1-8.74-10.928,14.714,14.714,0,0,1-1.434-2.528,18.729,18.729,0,0,1,1.734,2.322c1.032,1.455,2.487,3.447,4.19,5.572s3.323,3.983,4.509,5.314a20.971,20.971,0,0,1,1.888,2.2Z" transform="translate(-34.269 -36.585)" fill="#e0e0e0"/>
        <path id="Path_3550" data-name="Path 3550" d="M229.7,189.18q6.191-7.595,12.311-15.19" transform="translate(-36.825 -36.591)" fill="#fff"/>
        <path id="Path_3551" data-name="Path 3551" d="M242.011,174a92.288,92.288,0,0,1-5.954,7.75,92.38,92.38,0,0,1-6.357,7.44,96.163,96.163,0,0,1,5.954-7.76A93.505,93.505,0,0,1,242.011,174Z" transform="translate(-36.825 -36.591)" fill="#e0e0e0"/>
        <path id="Path_3552" data-name="Path 3552" d="M229.72,56.82a89.1,89.1,0,0,1,5.975,7.141,88.032,88.032,0,0,1,5.572,7.461,82.551,82.551,0,0,1-5.975-7.141,81.927,81.927,0,0,1-5.572-7.461Z" transform="translate(-36.825 -40.33)" fill="#e0e0e0"/>
        <rect id="Rectangle_238" data-name="Rectangle 238" width="23.641" height="67.136" transform="translate(229.539 52.906)" fill="#e0e0e0"/>
        <rect id="Rectangle_239" data-name="Rectangle 239" width="89.508" height="89.508" transform="translate(365.152)" fill="#ebebeb"/>
        <rect id="Rectangle_240" data-name="Rectangle 240" width="84.245" height="84.245" transform="translate(367.784 2.631)" fill="#fff"/>
        <rect id="Rectangle_241" data-name="Rectangle 241" width="24.188" height="24.188" transform="translate(397.813 32.66)" fill="#e0e0e0"/>
        <rect id="Rectangle_242" data-name="Rectangle 242" width="3.777" height="89.487" transform="translate(454.661 0.021)" fill="#e0e0e0"/>
        <rect id="Rectangle_243" data-name="Rectangle 243" width="102.49" height="141.093" transform="translate(561.649 11.681)" fill="#e0e0e0"/>
        <rect id="Rectangle_244" data-name="Rectangle 244" width="105.843" height="141.093" transform="translate(551.877 11.681)" fill="#ebebeb"/>
        <rect id="Rectangle_245" data-name="Rectangle 245" width="85.68" height="120.342" transform="translate(561.979 21.546)" fill="#fafafa"/>
        <path id="Path_3553" data-name="Path 3553" d="M587.39,179.316h85.649V147.75H587.39Z" transform="translate(-25.411 -37.428)" fill="url(#linear-gradient-21)"/>
        <path id="Path_3554" data-name="Path 3554" d="M638.164,114.2l2.766,6.46s-6.326,4.613-5.407,11.733,6.192,21.495,6.192,21.495h11.072s5.541-20.04,5.407-23.331-4.881-9.762-4.881-9.762l2.508-6.594S645.945,108.136,638.164,114.2Z" transform="translate(-23.877 -38.585)" fill="url(#linear-gradient-18)"/>
        <path id="Path_3555" data-name="Path 3555" d="M637.7,135.086c-2.146-1.93-4.809-4.334-5.686-7.595a4.355,4.355,0,0,1,.485-3.839,3.87,3.87,0,0,1,3.23-1.362,9.668,9.668,0,0,1,3.1.764l-.506,1.362a8.255,8.255,0,0,0-2.631-.671,2.456,2.456,0,0,0-2.064.795,3.1,3.1,0,0,0-.237,2.569c.774,2.858,3.25,5.1,5.252,6.9Z" transform="translate(-23.994 -38.241)" fill="url(#linear-gradient-18)"/>
        <path id="Path_3556" data-name="Path 3556" d="M656.516,135.972l-1.032-.97a17.544,17.544,0,0,0,3.168-5.036,7.452,7.452,0,0,0,.64-2.508,3.209,3.209,0,0,0-.671-2.167,2.786,2.786,0,0,0-2.363-.856,4.179,4.179,0,0,0-2.446,1.249l-1.032-1.032A5.552,5.552,0,0,1,656.1,123a4.19,4.19,0,0,1,3.6,1.352,4.5,4.5,0,0,1,1.032,3.168,8.718,8.718,0,0,1-.743,3,19.026,19.026,0,0,1-3.477,5.449Z" transform="translate(-23.324 -38.219)" fill="url(#linear-gradient-18)"/>
        <path id="Path_3557" data-name="Path 3557" d="M655.748,114.18a10.594,10.594,0,0,1-2.538.64,39.647,39.647,0,0,1-6.315.557,37.6,37.6,0,0,1-6.315-.464,9.669,9.669,0,0,1-2.549-.6,18.243,18.243,0,0,1,2.6.227,57.488,57.488,0,0,0,6.264.3,58.987,58.987,0,0,0,6.253-.4,16.209,16.209,0,0,1,2.6-.258Z" transform="translate(-23.795 -38.5)" fill="#ebebeb"/>
        <path id="Path_3558" data-name="Path 3558" d="M672.645,77.64c-1.032-1.465-6.191-3.312-7.966-3.612-7.977-1.311-16.3-1.445-23.982,1.094S626.085,83.14,623.082,90.6c-1.548,3.87-2.064,8.152-4.045,11.795-2.57,4.633-7.223,7.626-10.825,11.537a28.739,28.739,0,0,0-1.507,36.942l21.505.268c-.526-8.462-.506-17.109,2.064-25.21s7.853-15.633,15.572-19.142c8.1-3.674,18.389-2.786,27.191-1.527Z" transform="translate(-24.986 -39.81)" fill="url(#linear-gradient-21)"/>
        <path id="Path_3559" data-name="Path 3559" d="M618.543,61.72c2.384,3.684-.681,9.669-3.808,12.744s-7.11,5.655-8.565,9.793,0,8.73-.681,13.054a12.94,12.94,0,0,1-18.1,9.69V61.72Z" transform="translate(-25.411 -40.174)" fill="url(#linear-gradient-21)"/>
        <path id="Path_3560" data-name="Path 3560" d="M609.456,137.688s1.176,1.63.7,2.683-6.068,8.534-3.963,13.673a58.145,58.145,0,0,0,6.3,10.742h13.116s6.439-10.164,6.3-13.549c-.227-5.614-4.324-11.444-4.324-11.444l1.032-2.064S616.472,134.179,609.456,137.688Z" transform="translate(-24.826 -37.799)" fill="url(#linear-gradient-27)"/>
        <path id="Path_3561" data-name="Path 3561" d="M673.072,182.077v-8.854c0-5.737,0-14.117-.072-24.766,0-21.185-.072-51.234-.113-86.763l.237.248H587.475l.268-.268V182.015l-.217-.217,62.3.114H667.18l-17.223.052-62.431.114h-.217V61.25h86.175v.237c0,35.591-.093,65.7-.124,86.928,0,10.577,0,18.936-.062,24.663v8.193A2.029,2.029,0,0,1,673.072,182.077Z" transform="translate(-25.413 -40.189)" fill="#e0e0e0"/>
        <path id="Path_3562" data-name="Path 3562" d="M680.481,52.16a36.687,36.687,0,0,1-4.84,5.16,60.939,60.939,0,0,1-5.221,4.736,36.432,36.432,0,0,1,4.85-5.16,66.5,66.5,0,0,1,5.211-4.736Z" transform="translate(-22.761 -40.479)" fill="#e0e0e0"/>
        <path id="Path_3563" data-name="Path 3563" d="M577.33,52.13a48.716,48.716,0,0,1,5.417,4.767,48.673,48.673,0,0,1,5.046,5.16,49.858,49.858,0,0,1-5.418-4.757,49.283,49.283,0,0,1-5.046-5.17Z" transform="translate(-25.732 -40.48)" fill="#e0e0e0"/>
        <path id="Path_3564" data-name="Path 3564" d="M577.61,189.208a47.924,47.924,0,0,1,4.8-5.335,47.11,47.11,0,0,1,5.16-4.964,50.055,50.055,0,0,1-4.809,5.335,48.694,48.694,0,0,1-5.149,4.964Z" transform="translate(-25.723 -36.434)" fill="#e0e0e0"/>
        <path id="Path_3565" data-name="Path 3565" d="M680.152,189.416c-.145.083-1.888-2.776-4.6-5.851s-5.3-5.211-5.159-5.345a7.964,7.964,0,0,1,1.8,1.28,33.344,33.344,0,0,1,3.8,3.7,35.071,35.071,0,0,1,3.178,4.262,7.222,7.222,0,0,1,.991,1.95Z" transform="translate(-22.762 -36.456)" fill="#e0e0e0"/>
        <path id="Path_3566" data-name="Path 3566" d="M83.06,371.39v30.772h94.616V371.39Z" transform="translate(-41.505 -30.292)" fill="#e6e6e6"/>
        <path id="Path_3567" data-name="Path 3567" d="M79.21,363.06v8.6H181.1v-8.6H79.21Z" transform="translate(-41.628 -30.557)" fill="#e0e0e0"/>
        <path id="Path_3568" data-name="Path 3568" d="M128.641,402.427h47.643V371.656h3.3v-8.6H126.66v7.8Z" transform="translate(-40.114 -30.557)" fill="#e0e0e0"/>
        <rect id="Rectangle_246" data-name="Rectangle 246" width="19.194" height="4.633" transform="translate(54.784 346.062)" fill="#e0e0e0"/>
        <rect id="Rectangle_247" data-name="Rectangle 247" width="24.642" height="9.783" transform="translate(52.318 356.484)" fill="#fff"/>
        <path id="Path_3569" data-name="Path 3569" d="M193.171,478.331,191.179,56.94h-8.152v82.986H161.955l-.392-82.986h-8.142v82.986H80.9L80.506,56.94H72.354v82.986H51.334L50.942,56.94H42.79V478.331H52.934l-.268-56.549H72.354v56.549H82.5l-.279-56.549h71.2v56.549h10.144l-.258-56.549h19.74v56.549ZM61.973,365.946,54.688,334.71H69.651Zm10.381-29.3v73.782L63.521,372.56Zm0-107.247-8.833-37.84,8.833-35.941Zm-1.579,6.78H52.552L61.9,198.157Zm-8.8-51.224-8.348-35.766h17.14Zm-1.62,6.6-8.606,35.023-.341-73.39ZM52.294,337.919l8.08,34.621L52.6,404.158ZM61.922,379.2l7.791,33.4H53.687Zm-9.359-53.659-.072-.279-.258.052L51.861,245.4H72.354v80.138ZM81.456,245.4h71.966v80.138H81.776ZM172,198.126l8.874,38.026H162.709ZM162.337,224.5l-.32-69.138,8.431,36.117Zm20.638,7.306-9.4-40.245,9.4-38.263Zm0,4.21v.134h-.568Zm0,102.789V408.1L174.72,372.56Zm-9.834,27.139-7.3-31.236h14.963Zm-1.063-180.987-8.338-35.818h17.13Zm10.949,60.449v80.138H163.74l-.072-.279-.846.2-.382-80.056ZM171.562,372.54l-8.348,34.053-.341-71.254Zm1.548,6.625,7.8,33.4H164.9ZM153.421,149.141v87.011H81.353l-.413-87.011ZM83.489,412.568H82.219l-.371-77.858h71.573v77.858Z" transform="translate(-42.79 -40.326)" fill="#e0e0e0"/>
        <rect id="Rectangle_248" data-name="Rectangle 248" width="13.477" height="62.812" transform="translate(90.819 133.375)" fill="#e0e0e0"/>
        <path id="Path_3570" data-name="Path 3570" d="M140.345,216.432a2.673,2.673,0,1,1-2.673-2.662,2.673,2.673,0,0,1,2.673,2.662Z" transform="translate(-39.847 -35.322)" fill="#fafafa"/>
        <rect id="Rectangle_249" data-name="Rectangle 249" width="4.128" height="25.674" transform="translate(95.648 150.009)" fill="#fafafa"/>
        <rect id="Rectangle_250" data-name="Rectangle 250" width="13.477" height="62.812" transform="translate(77.125 133.375)" fill="#ebebeb"/>
        <path id="Path_3571" data-name="Path 3571" d="M127.075,216.432a2.673,2.673,0,1,1-2.673-2.662A2.673,2.673,0,0,1,127.075,216.432Z" transform="translate(-40.271 -35.322)" fill="#fafafa"/>
        <rect id="Rectangle_251" data-name="Rectangle 251" width="4.128" height="25.674" transform="translate(81.954 150.009)" fill="#fafafa"/>
        <rect id="Rectangle_252" data-name="Rectangle 252" width="13.477" height="62.812" transform="translate(64.092 133.375)" fill="#e6e6e6"/>
        <path id="Path_3572" data-name="Path 3572" d="M114.445,216.432a2.673,2.673,0,1,1-2.673-2.662A2.673,2.673,0,0,1,114.445,216.432Z" transform="translate(-40.674 -35.322)" fill="#e0e0e0"/>
        <rect id="Rectangle_253" data-name="Rectangle 253" width="4.128" height="25.674" transform="translate(68.921 150.009)" fill="#e0e0e0"/>
        <path id="Path_3573" data-name="Path 3573" d="M88.936,231.815l16.191-55.259-5.583-2.446-16.614,55.7Z" transform="translate(-41.509 -36.587)" fill="#e6e6e6"/>
        <path id="Path_3574" data-name="Path 3574" d="M65.5,317.484v-9.5h67.167l.217,9.5Z" transform="translate(-42.065 -32.315)" fill="#e6e6e6"/>
        <path id="Path_3575" data-name="Path 3575" d="M132.611,309.48s-59.572.444-63.432,1.352c-.826.2-1.672,3.849,0,4.19s63.432.836,63.432.836Z" transform="translate(-41.979 -32.267)" fill="#fff"/>
        <path id="Path_3576" data-name="Path 3576" d="M73.06,307.9v-9.5h53.205l.175,9.5Z" transform="translate(-41.824 -32.621)" fill="#ebebeb"/>
        <path id="Path_3577" data-name="Path 3577" d="M126.228,299.9s-47.189.444-50.244,1.352c-.66.2-1.331,3.849,0,4.19s50.244.836,50.244.836Z" transform="translate(-41.755 -32.573)" fill="#fafafa"/>
        <path id="Path_3578" data-name="Path 3578" d="M72.83,298.8V289.29h53.205l.175,9.514Z" transform="translate(-41.831 -32.912)" fill="#e0e0e0"/>
        <path id="Path_3579" data-name="Path 3579" d="M126,290.8s-47.189.433-50.244,1.341c-.66.2-1.331,3.859,0,4.19s50.244.836,50.244.836Z" transform="translate(-41.763 -32.863)" fill="#fafafa"/>
        <rect id="Rectangle_254" data-name="Rectangle 254" width="13.477" height="62.812" transform="translate(96.866 38.005)" fill="#e6e6e6"/>
        <path id="Path_3580" data-name="Path 3580" d="M146.165,124.023a2.673,2.673,0,1,1-2.673-2.673A2.673,2.673,0,0,1,146.165,124.023Z" transform="translate(-39.662 -38.271)" fill="#e0e0e0"/>
        <rect id="Rectangle_255" data-name="Rectangle 255" width="4.128" height="25.674" transform="translate(101.695 54.65)" fill="#e0e0e0"/>
        <rect id="Rectangle_256" data-name="Rectangle 256" width="13.477" height="62.812" transform="translate(83.172 38.005)" fill="#ebebeb"/>
        <path id="Path_3581" data-name="Path 3581" d="M132.935,124.023a2.673,2.673,0,1,1-2.673-2.673A2.673,2.673,0,0,1,132.935,124.023Z" transform="translate(-40.084 -38.271)" fill="#fafafa"/>
        <rect id="Rectangle_257" data-name="Rectangle 257" width="4.117" height="25.674" transform="translate(88.012 54.65)" fill="#fafafa"/>
        <rect id="Rectangle_258" data-name="Rectangle 258" width="13.477" height="62.812" transform="translate(70.139 38.005)" fill="#e0e0e0"/>
        <path id="Path_3582" data-name="Path 3582" d="M120.305,124.023a2.673,2.673,0,1,1-2.673-2.673,2.673,2.673,0,0,1,2.673,2.673Z" transform="translate(-40.487 -38.271)" fill="#fafafa"/>
        <rect id="Rectangle_259" data-name="Rectangle 259" width="4.128" height="25.674" transform="translate(74.968 54.65)" fill="#fafafa"/>
      </g>
      <g id="freepik--Floor--inject-2" transform="translate(2.281 437.83)">
        <path id="Path_3583" data-name="Path 3583" d="M726.062,465.4c0,.144-152.475.268-340.531.268S45,465.543,45,465.4s152.434-.268,340.531-.268S726.062,465.244,726.062,465.4Z" transform="translate(-45 -465.13)" fill="#263238"/>
      </g>
      <g id="freepik--Target--inject-2" transform="translate(39.264 132.199)">
        <path id="Path_3584" data-name="Path 3584" d="M194.76,294.253l46.25,176.632h14.942L210.631,293.2Z" transform="translate(-77.205 -164.986)" fill="#455a64"/>
        <path id="Path_3585" data-name="Path 3585" d="M136.19,470.534,160.657,304.21l14.055.4-21.02,165.921Z" transform="translate(-79.074 -164.634)" fill="#455a64"/>
        <path id="Path_3586" data-name="Path 3586" d="M133.437,316.87,80.84,470.13H97.774L143.56,331.152Z" transform="translate(-80.84 -164.23)" fill="#455a64"/>
        <path id="Path_3587" data-name="Path 3587" d="M234.07,268.644c18.007,53.061,10.247,103.408-24.518,115.213s-83.379-19.41-101.4-72.471S103.729,205.738,138.5,193.933,216.053,215.583,234.07,268.644Z" transform="translate(-80.222 -168.229)" fill="url(#linear-gradient-27)"/>
        <g id="Group_205" data-name="Group 205" transform="translate(19.971 23.335)" opacity="0.3">
          <path id="Path_3588" data-name="Path 3588" d="M234.07,268.644c18.007,53.061,10.247,103.408-24.518,115.213s-83.379-19.41-101.4-72.471S103.729,205.738,138.5,193.933,216.053,215.583,234.07,268.644Z" transform="translate(-100.193 -191.564)"/>
        </g>
        <ellipse id="Ellipse_27" data-name="Ellipse 27" cx="66.486" cy="100.498" rx="66.486" ry="100.498" transform="translate(10.108 42.743) rotate(-18.75)" fill="url(#linear-gradient-27)"/>
        <ellipse id="Ellipse_28" data-name="Ellipse 28" cx="53.649" cy="84.71" rx="53.649" ry="84.71" transform="translate(29.347 52.188) rotate(-18.75)" fill="#fafafa"/>
        <ellipse id="Ellipse_29" data-name="Ellipse 29" cx="41.679" cy="68.447" rx="41.679" ry="68.447" transform="translate(47.428 63.575) rotate(-18.75)" fill="url(#linear-gradient-27)"/>
        <ellipse id="Ellipse_30" data-name="Ellipse 30" cx="28.171" cy="45.549" rx="28.171" ry="45.549" transform="translate(68.84 77.667) rotate(-18.75)" fill="#fafafa"/>
        <path id="Path_3589" data-name="Path 3589" d="M203.037,273.645c4.726,13.941,2.167,27.418-5.717,30.1s-18.131-6.46-22.857-20.4-2.177-27.418,5.717-30.091S198.3,259.663,203.037,273.645Z" transform="translate(-77.928 -166.275)" fill="url(#linear-gradient-27)"/>
        <path id="Path_3590" data-name="Path 3590" d="M248.143,263.544s-.175-.433-.5-1.28-.774-2.126-1.383-3.766c-1.311-3.281-3.22-8.131-6.191-14.117a139.713,139.713,0,0,0-12.847-20.721,108.567,108.567,0,0,0-22.774-22.7,75.732,75.732,0,0,0-16.345-9.143c-1.5-.65-3.1-1.114-4.644-1.682l-2.415-.671a24.357,24.357,0,0,0-2.456-.6,48.757,48.757,0,0,0-10.257-1.218c-.877,0-1.754-.062-2.642,0l-2.652.165a50.2,50.2,0,0,0-5.325.877,43.537,43.537,0,0,0-10.371,3.684,49.4,49.4,0,0,0-17.336,14.87,71.987,71.987,0,0,0-10.856,21.608,105.874,105.874,0,0,0-2.92,12.187,122.617,122.617,0,0,0-1.424,12.7A145.685,145.685,0,0,0,148.3,352.433a123.01,123.01,0,0,0,8.874,9.215,106.285,106.285,0,0,0,9.731,7.894,72.173,72.173,0,0,0,21.67,10.618,49.532,49.532,0,0,0,22.816,1.238A43.28,43.28,0,0,0,221.85,378a47.621,47.621,0,0,0,4.757-2.549l2.208-1.476a24.08,24.08,0,0,0,2.115-1.589,49.419,49.419,0,0,0,7.389-7.223c.557-.64,1.094-1.29,1.589-1.971l1.5-2c.908-1.4,1.878-2.735,2.662-4.128a75.331,75.331,0,0,0,7.409-17.192,109.042,109.042,0,0,0,4.231-31.907,139.474,139.474,0,0,0-2.4-24.291c-1.238-6.584-2.673-11.6-3.632-14.994l-1.187-3.828c-.268-.867-.392-1.311-.392-1.311s.155.433.444,1.29.7,2.146,1.238,3.818a145.554,145.554,0,0,1,3.736,14.983,138.824,138.824,0,0,1,2.528,24.291,109.291,109.291,0,0,1-4.128,31.989,75.854,75.854,0,0,1-7.44,17.346c-.795,1.434-1.765,2.786-2.673,4.19l-1.507,2.064a24.564,24.564,0,0,1-1.6,1.992,50.176,50.176,0,0,1-7.44,7.275c-.712.537-1.383,1.135-2.136,1.61s-1.476,1.032-2.229,1.507a48.5,48.5,0,0,1-4.8,2.569,43.506,43.506,0,0,1-10.577,3.447,49.718,49.718,0,0,1-23.032-1.228,72.647,72.647,0,0,1-21.856-10.721,106.188,106.188,0,0,1-9.793-7.935,124.145,124.145,0,0,1-8.916-9.287,145.9,145.9,0,0,1-33.62-99.064,123.487,123.487,0,0,1,1.434-12.765,106.63,106.63,0,0,1,2.941-12.259,72.657,72.657,0,0,1,10.845-21.763A49.76,49.76,0,0,1,147.057,191.9a43.814,43.814,0,0,1,10.484-3.7,48.409,48.409,0,0,1,5.366-.877l2.693-.175c.887-.072,1.775,0,2.662,0a49.471,49.471,0,0,1,10.319,1.238,25.484,25.484,0,0,1,2.477.609l2.425.681c1.579.568,3.168,1.032,4.675,1.7a75.67,75.67,0,0,1,16.407,9.215,108.672,108.672,0,0,1,22.805,22.867,138.718,138.718,0,0,1,12.785,20.8c2.993,6.006,4.881,10.876,6.191,14.168.588,1.661,1.032,2.92,1.331,3.787S248.143,263.544,248.143,263.544Z" transform="translate(-79.776 -168.371)" fill="#263238"/>
        <g id="Group_206" data-name="Group 206" transform="translate(129.154 100.59)" opacity="0.3">
          <path id="Path_3591" data-name="Path 3591" d="M242.406,266.43,206,275.965l46.973,32.33s-.8-23.786-4.406-37.613Z" transform="translate(-206 -266.43)"/>
        </g>
        <g id="Group_207" data-name="Group 207" transform="translate(41.617 175.92)" opacity="0.3">
          <path id="Path_3592" data-name="Path 3592" d="M121.17,348.119,131.9,361.905l3.054-9.277-10.8-13.2Z" transform="translate(-121.17 -339.43)"/>
        </g>
        <g id="Group_208" data-name="Group 208" transform="translate(71.367 203.585)" opacity="0.3">
          <path id="Path_3593" data-name="Path 3593" d="M150,372.628s5.83,7.089,14.55,7.089l.66-5.273a91.131,91.131,0,0,1-14.375-8.2Z" transform="translate(-150 -366.24)"/>
        </g>
        <g id="Group_209" data-name="Group 209" transform="translate(139.009 203.214)" opacity="0.3">
          <path id="Path_3594" data-name="Path 3594" d="M217.356,380.781l-1.806-6.893s9.731-3.622,13.549-8.008l1.9,7.45S224.445,380.151,217.356,380.781Z" transform="translate(-215.55 -365.88)"/>
        </g>
      </g>
      <g id="freepik--Characters--inject-2" transform="translate(194.216 62.805)">
        <path id="Path_3595" data-name="Path 3595" d="M549.51,402.9l31.453,21.113,9.886-13.126L561.336,384.82Z" transform="translate(-220.836 -92.668)" fill="#bc8f86"/>
        <path id="Path_3596" data-name="Path 3596" d="M575.971,420.646l.867.671s-5.428,19.224-2.766,21.526l22.32-29.255L586.4,406.56a21.04,21.04,0,0,1-10.432,14.086Z" transform="translate(-220.075 -91.974)" fill="#457fee"/>
        <path id="Path_3597" data-name="Path 3597" d="M586.8,411.739a1.507,1.507,0,0,1,1.992.217,1.445,1.445,0,0,1-.186,1.981,1.589,1.589,0,0,1-2.064-.237,1.5,1.5,0,0,1,.433-2.064" transform="translate(-219.662 -91.818)" fill="#fff"/>
        <path id="Path_3598" data-name="Path 3598" d="M596.391,413.422l-2.415-1.682-20.5,28.646s-.423,1.734.6,2.291Z" transform="translate(-220.074 -91.809)" fill="#263238"/>
        <path id="Path_3599" data-name="Path 3599" d="M576.731,421.052c.144.1.764-.557,1.754-.908s1.878-.268,1.93-.444-.949-.588-2.146-.145S576.576,421.052,576.731,421.052Z" transform="translate(-219.968 -91.566)" fill="#263238"/>
        <path id="Path_3600" data-name="Path 3600" d="M575.69,424.959c.113.144.836-.289,1.806-.31s1.723.32,1.827.175-.64-.856-1.847-.8S575.556,424.856,575.69,424.959Z" transform="translate(-220.001 -91.417)" fill="#263238"/>
        <path id="Path_3601" data-name="Path 3601" d="M578.1,429.373c.134-.1-.433-.856-1.486-1.032s-1.888.206-1.816.351.8.062,1.672.258S577.937,429.507,578.1,429.373Z" transform="translate(-220.029 -91.28)" fill="#263238"/>
        <path id="Path_3602" data-name="Path 3602" d="M459.028,419.04l-2.539,37.8,16.3,2,7.812-38.6Z" transform="translate(-223.804 -91.576)" fill="#bc8f86"/>
        <path id="Path_3603" data-name="Path 3603" d="M457.3,450.83l-.155,1.083s-19.348,4.912-20.009,8.369l36.488,4.7,1.032-12.208A21.031,21.031,0,0,1,457.3,450.83Z" transform="translate(-224.422 -90.561)" fill="#457fee"/>
        <path id="Path_3604" data-name="Path 3604" d="M469.53,456a1.486,1.486,0,0,1,.8,1.826,1.445,1.445,0,0,1-1.806.826,1.6,1.6,0,0,1-.846-1.95,1.486,1.486,0,0,1,1.971-.64" transform="translate(-223.449 -90.399)" fill="#fff"/>
        <path id="Path_3605" data-name="Path 3605" d="M473.629,464.737l.258-2.931L438.8,458.38s-1.723.5-1.682,1.661Z" transform="translate(-224.422 -90.32)" fill="#263238"/>
        <path id="Path_3606" data-name="Path 3606" d="M456.4,452c0,.175.856.371,1.661,1.032s1.176,1.486,1.352,1.445,0-1.115-.949-1.93S456.379,451.8,456.4,452Z" transform="translate(-223.807 -90.528)" fill="#263238"/>
        <path id="Path_3607" data-name="Path 3607" d="M452.49,453c-.062.175.671.578,1.176,1.4s.578,1.651.764,1.672.423-.98-.237-2S452.521,452.847,452.49,453Z" transform="translate(-223.932 -90.494)" fill="#263238"/>
        <path id="Path_3608" data-name="Path 3608" d="M449.842,457.28c.155.062.526-.795.186-1.826s-1.114-1.538-1.207-1.393.351.722.619,1.579S449.667,457.239,449.842,457.28Z" transform="translate(-224.049 -90.459)" fill="#263238"/>
        <path id="Path_3609" data-name="Path 3609" d="M528.25,116.872c.433-2.807,2.962-4.963,5.717-5.634a14.694,14.694,0,0,1,8.348.836,20.081,20.081,0,0,1,8.028,4.994,12.145,12.145,0,0,1,3.395,8.658c-.165,2.982-1.651,5.975-.815,8.833.63,2.177,2.466,3.766,4.313,5.077s3.849,2.549,5.1,4.448,1.445,4.706-.237,6.191c-1.5,1.352-4.128,1.507-4.8,3.426-.392,1.187.268,2.425.629,3.622a9.463,9.463,0,0,1-1.218,7.605,15.871,15.871,0,0,1-5.82,5.263c-4.045,2.281-9.081,3.343-13.342,1.527a12.816,12.816,0,0,1-5.263-4.313,20.444,20.444,0,0,1-3.478-10.763,60.616,60.616,0,0,1,.743-11.423" transform="translate(-221.514 -101.407)" fill="#263238"/>
        <path id="Path_3610" data-name="Path 3610" d="M526.82,162.04a11.743,11.743,0,0,0,14.859-11.588c-.072-3.405-1.61-6.883-.557-10.113.733-2.229,2.59-3.952,3.22-6.191.929-3.364-1.1-6.759-3.044-9.659a22.81,22.81,0,0,0-4.252-5.16,7.667,7.667,0,0,0-6.191-1.847" transform="translate(-221.56 -101.202)" fill="#263238"/>
        <path id="Path_3611" data-name="Path 3611" d="M496.615,117.75c.2,2.569-1.507,4.871-3.209,6.79s-3.612,3.942-3.983,6.491c-.66,4.52,3.766,8.72,2.858,13.188-.5,2.4-2.456,4.324-2.807,6.749s.918,4.633,2.477,6.418,3.447,3.271,4.829,5.16c0,0,2.869,4.7,11.692,1.692" transform="translate(-222.755 -101.19)" fill="#263238"/>
        <path id="Path_3612" data-name="Path 3612" d="M535.894,122.06c.062-2.332-2.064-4.128-4.262-4.984s-4.582-1.176-6.511-2.477c-1.713-1.156-2.869-2.951-4.313-4.427a14.354,14.354,0,0,0-24.136,6.594c-.836,3.312-.268,7.223,2.353,9.442,3.034,2.559,7.533,1.992,11.423,1.2s8.255-1.579,11.547.7c1.961,1.383,3.1,3.622,4.282,5.7s2.693,4.19,4.964,4.974,5.335-.568,5.428-2.962" transform="translate(-222.533 -101.569)" fill="#263238"/>
        <path id="Path_3613" data-name="Path 3613" d="M526.769,122.166a3.911,3.911,0,0,1,3.488,3.963h0l-2.332,52.627c-.093,6.191-9.184,9.721-15.85,9.566h0c-6.718-.165-6.945-3.457-7.027-9.38-.134-9.886-.124-13.59-.124-13.539s-8.5-1.424-10.237-12.517c-.867-5.521-.568-14.56-.083-21.949.433-6.656,4.86-14.8,11.485-14.086Z" transform="translate(-222.603 -101.221)" fill="#bc8f86"/>
        <path id="Path_3614" data-name="Path 3614" d="M496.49,137.67a1.434,1.434,0,0,0,1.372,1.445,1.372,1.372,0,0,0,1.465-1.28,1.434,1.434,0,0,0-1.372-1.445,1.373,1.373,0,0,0-1.465,1.28Z" transform="translate(-222.528 -100.596)" fill="#263238"/>
        <path id="Path_3615" data-name="Path 3615" d="M496.141,134.046c.175.186,1.249-.609,2.786-.6s2.642.774,2.807.588-.093-.423-.578-.774a3.89,3.89,0,0,0-2.26-.7,3.725,3.725,0,0,0-2.219.712C496.213,133.592,496.048,133.922,496.141,134.046Z" transform="translate(-222.54 -100.718)" fill="#263238"/>
        <path id="Path_3616" data-name="Path 3616" d="M510.26,137.93a1.434,1.434,0,0,0,1.372,1.445,1.362,1.362,0,0,0,1.465-1.28,1.424,1.424,0,0,0-1.362-1.445,1.373,1.373,0,0,0-1.476,1.28Z" transform="translate(-222.088 -100.587)" fill="#263238"/>
        <path id="Path_3617" data-name="Path 3617" d="M511.05,134.746c.176.186,1.259-.609,2.786-.609s2.652.774,2.817.588-.093-.413-.578-.774a3.993,3.993,0,0,0-2.26-.7,3.8,3.8,0,0,0-2.219.712C511.133,134.323,511,134.664,511.05,134.746Z" transform="translate(-222.063 -100.696)" fill="#263238"/>
        <path id="Path_3618" data-name="Path 3618" d="M505.77,146.814a9.6,9.6,0,0,0-2.487-.454c-.392,0-.764-.124-.826-.392a1.94,1.94,0,0,1,.268-1.156c.361-.949.753-1.94,1.156-2.972,1.62-4.231,2.786-7.719,2.611-7.781s-1.61,3.323-3.23,7.554c-.382,1.032-.764,2.064-1.114,2.993a2.28,2.28,0,0,0-.206,1.527,1.032,1.032,0,0,0,.64.578,2.89,2.89,0,0,0,.671.093A10.557,10.557,0,0,0,505.77,146.814Z" transform="translate(-222.355 -100.67)" fill="#263238"/>
        <path id="Path_3619" data-name="Path 3619" d="M504.59,164.123a28.192,28.192,0,0,0,14.87-3.973s-3.756,7.616-14.849,6.563Z" transform="translate(-222.269 -99.837)" fill="#7f473d"/>
        <path id="Path_3620" data-name="Path 3620" d="M510.4,131.126c.155.413,1.682.217,3.478.444s3.24.712,3.488.341c.1-.186-.144-.568-.733-.98a5.852,5.852,0,0,0-2.58-.908,5.737,5.737,0,0,0-2.724.32C510.669,130.6,510.338,130.929,510.4,131.126Z" transform="translate(-222.084 -100.8)" fill="#263238"/>
        <path id="Path_3621" data-name="Path 3621" d="M496.361,130.718c.3.351,1.5,0,2.931,0s2.662.237,2.941-.124c.124-.175-.072-.526-.6-.856a4.437,4.437,0,0,0-2.394-.568,4.344,4.344,0,0,0-2.342.691C496.392,130.192,496.227,130.553,496.361,130.718Z" transform="translate(-222.533 -100.826)" fill="#263238"/>
        <path id="Path_3622" data-name="Path 3622" d="M534.228,158.734a9.834,9.834,0,0,1-11.712-10.887c.341-2.724,1.806-5.49.867-8.07-1.249-3.405-6.026-4.458-7.3-7.853-.733-1.981-.072-4.293-.908-6.191s-2.7-2.869-4.571-3.539-3.859-1.145-5.428-2.353-2.538-3.519-1.538-5.221a105.171,105.171,0,0,1,24.229,5.882c1.816.671,3.715,1.486,4.788,3.1s1.032,3.9,1.032,5.944l-1.445,29.843" transform="translate(-222.312 -101.29)" fill="#263238"/>
        <path id="Path_3623" data-name="Path 3623" d="M540.081,122.784a.8.8,0,0,1,.186.454,1.651,1.651,0,0,1-.423,1.331,2.786,2.786,0,0,1-1.981,1.032,6.284,6.284,0,0,1-2.817-.836,7.73,7.73,0,0,0-3.23-.96,17.067,17.067,0,0,0-3.921.361,26.438,26.438,0,0,1-4.427.568,6.4,6.4,0,0,1-4.54-1.651,13.323,13.323,0,0,1-2.611-4.055,20.263,20.263,0,0,0-2.064-3.808,6.191,6.191,0,0,0-6.4-2.332A6.45,6.45,0,0,0,504,115.736a12.468,12.468,0,0,0-.815,1.651,1.227,1.227,0,0,1,.082-.485,6.372,6.372,0,0,1,.537-1.28,6.574,6.574,0,0,1,3.952-3.1,6.449,6.449,0,0,1,3.56.062,6.7,6.7,0,0,1,3.354,2.332,20.431,20.431,0,0,1,2.208,3.89,12.951,12.951,0,0,0,2.5,3.88,5.892,5.892,0,0,0,4.128,1.517,26.9,26.9,0,0,0,4.334-.537,17.037,17.037,0,0,1,4.055-.33,8.08,8.08,0,0,1,3.385,1.032,6.294,6.294,0,0,0,2.621.877,2.538,2.538,0,0,0,1.816-.826,1.641,1.641,0,0,0,.485-1.176C540.143,122.949,540.05,122.794,540.081,122.784Z" transform="translate(-222.314 -101.364)" fill="#455a64"/>
        <path id="Path_3624" data-name="Path 3624" d="M540.518,123.694c-.145.124-1.837-2.7-5.242-4.623a21.67,21.67,0,0,0-6.646-2.2,5,5,0,0,1,2.064,0,13.838,13.838,0,0,1,8.7,4.994,5.159,5.159,0,0,1,1.125,1.826Z" transform="translate(-221.502 -101.222)" fill="#455a64"/>
        <path id="Path_3625" data-name="Path 3625" d="M528.929,116.528a.633.633,0,0,1-.155.33,3.229,3.229,0,0,1-.712.753,4.85,4.85,0,0,1-3.663.815,9.287,9.287,0,0,1-4.8-2.858c-1.507-1.465-2.9-3.343-4.933-4.509a8.74,8.74,0,0,0-6.367-.8,8.4,8.4,0,0,0-4.447,2.879,9.369,9.369,0,0,0-1.692,3.22c-.237.846-.279,1.331-.33,1.321s0-.124,0-.351a6.568,6.568,0,0,1,.145-1.032,8.514,8.514,0,0,1,1.589-3.416,8.617,8.617,0,0,1,4.623-3.1,9.091,9.091,0,0,1,6.769.826c2.188,1.249,3.57,3.178,5.025,4.623a9.07,9.07,0,0,0,4.5,2.838,4.8,4.8,0,0,0,3.477-.609A6.2,6.2,0,0,0,528.929,116.528Z" transform="translate(-222.358 -101.455)" fill="#455a64"/>
        <path id="Path_3626" data-name="Path 3626" d="M527.6,163.214a1.847,1.847,0,0,0,.5.134,9.723,9.723,0,0,0,1.455.144,11.351,11.351,0,0,0,5.242-1.187,12.125,12.125,0,0,0,5.593-5.645,13.921,13.921,0,0,0,.939-9.659,28.315,28.315,0,0,1-.97-4.86,7.759,7.759,0,0,1,1.094-4.313,15.779,15.779,0,0,0,1.723-3.921,9.347,9.347,0,0,0,.1-3.766,9.927,9.927,0,0,0-2.291-4.86,7.224,7.224,0,0,0-1.032-1.032q-.4-.31-.433-.279c0,.052.526.464,1.3,1.445a10.2,10.2,0,0,1,2.064,4.767,8.969,8.969,0,0,1-.186,3.56,15.622,15.622,0,0,1-1.723,3.777,11.344,11.344,0,0,0-.929,2.157,7.582,7.582,0,0,0-.268,2.466,27.688,27.688,0,0,0,.97,4.974,13.528,13.528,0,0,1-.846,9.287,11.857,11.857,0,0,1-10.319,6.842C528.3,163.265,527.61,163.141,527.6,163.214Z" transform="translate(-221.535 -100.992)" fill="#455a64"/>
        <path id="Path_3627" data-name="Path 3627" d="M546.975,114.441a3.58,3.58,0,0,0-1.888-1.032,7.44,7.44,0,0,0-8.781,4.024,3.622,3.622,0,0,0-.485,2.064c.1,0,.268-.764.9-1.857a7.667,7.667,0,0,1,8.255-3.787C546.212,114.152,546.924,114.534,546.975,114.441Z" transform="translate(-221.273 -101.338)" fill="#455a64"/>
        <path id="Path_3628" data-name="Path 3628" d="M538.7,121.359s0-.248-.052-.722a3.684,3.684,0,0,1,.5-1.94,5.253,5.253,0,0,1,2.291-2.157,4.767,4.767,0,0,1,4.055-.1,7.45,7.45,0,0,1,3.632,3.467,11.146,11.146,0,0,1,1.125,5.748,37.868,37.868,0,0,1-1.032,6.573,27.869,27.869,0,0,0-.846,7.223,21.557,21.557,0,0,0,1.878,7.038,61.073,61.073,0,0,1,2.415,6.191,13.651,13.651,0,0,1,.5,5.882,17.17,17.17,0,0,1-1.537,4.964,39.088,39.088,0,0,1-4.066,6.439l-1.249,1.672a2.628,2.628,0,0,0-.4.6,3.361,3.361,0,0,0,.506-.516c.32-.361.774-.887,1.352-1.6a35.951,35.951,0,0,0,4.283-6.388,17.647,17.647,0,0,0,1.661-5.087,14.313,14.313,0,0,0-.464-6.14,60.281,60.281,0,0,0-2.394-6.3,21.238,21.238,0,0,1-1.816-6.831c-.206-4.86,1.765-9.359,1.837-13.735A11.67,11.67,0,0,0,549.6,119.6a7.874,7.874,0,0,0-3.932-3.643,5.16,5.16,0,0,0-4.4.206,5.479,5.479,0,0,0-2.353,2.363,3.652,3.652,0,0,0-.4,2.064A2.2,2.2,0,0,0,538.7,121.359Z" transform="translate(-221.187 -101.26)" fill="#455a64"/>
        <path id="Path_3629" data-name="Path 3629" d="M506.217,150.057a7.222,7.222,0,0,0,.949,1.868,2.456,2.456,0,0,0,1.765,1.032,2.219,2.219,0,0,0,1.888-1.032,3.6,3.6,0,0,0,.526-2.146c0-.671-.341-1.476-1.032-1.558a1.63,1.63,0,0,0-.815.186L506,149.85" transform="translate(-222.224 -100.218)" fill="#7f473d"/>
        <path id="Path_3630" data-name="Path 3630" d="M507.654,152.988a4.9,4.9,0,0,0,1.878-.227,2.714,2.714,0,0,0,1.424-1.29,2.89,2.89,0,0,0,0-2.311,2.21,2.21,0,0,0-.31-.526c-.134-.144-.113-.144-.268-.114a4.365,4.365,0,0,0-.557.217l-.578.237-2.064.784a6.274,6.274,0,0,1-1.919.578,7.015,7.015,0,0,1,1.744-.98l1.961-.918.578-.258a5.854,5.854,0,0,1,.64-.258.836.836,0,0,1,.526,0,1.136,1.136,0,0,1,.392.31,3.094,3.094,0,0,1,.392.671,3.3,3.3,0,0,1-.1,2.817,2.982,2.982,0,0,1-1.8,1.445,2.807,2.807,0,0,1-1.527.062C507.8,153.163,507.633,153.029,507.654,152.988Z" transform="translate(-222.248 -100.229)" fill="#263238"/>
        <path id="Path_3631" data-name="Path 3631" d="M543.681,360.537,537.087,307.6c4.293-10.03,3.608-19.858-6.057-45.765l-3.189-13.415-40.781,5.758L488.6,276.56l-25.581,83.131L457,449.56l21.742,2.425S487,411.194,489.288,394.8a227.578,227.578,0,0,0,2.115-26.83l20.009-29.925c2.373,12.383,5.046,27.614,6.429,35.57a20.9,20.9,0,0,0,4.437,9.69l52.359,41.142L587.155,408.2C582.2,396.355,543.681,360.537,543.681,360.537Z" transform="translate(-223.788 -97.021)" fill="#263238"/>
        <path id="Path_3632" data-name="Path 3632" d="M491.28,270.6a8.975,8.975,0,0,1-.856-2.219,40.238,40.238,0,0,1-1.259-5.593,38.615,38.615,0,0,1-.444-5.717,9.5,9.5,0,0,1,.155-2.373,15.043,15.043,0,0,1,.2,2.363c.093,1.455.258,3.457.588,5.655s.764,4.128,1.114,5.572a13.754,13.754,0,0,1,.506,2.311Z" transform="translate(-222.776 -96.82)" fill="#455a64"/>
        <path id="Path_3633" data-name="Path 3633" d="M493.051,255.359a1.121,1.121,0,0,1,.526-.237,2.535,2.535,0,0,1,2.941,2.136,2.755,2.755,0,0,1-1.3,2.569,2.549,2.549,0,0,1-2.858-.268,2.466,2.466,0,0,1-.96-2.146,3.775,3.775,0,0,1,.454-1.5c.175-.32.3-.475.33-.464s0,.206-.145.547a4.28,4.28,0,0,0-.279,1.434,2.2,2.2,0,0,0,3.2,1.95,2.3,2.3,0,0,0,1.094-2.064,2.064,2.064,0,0,0-1.084-1.63A3.013,3.013,0,0,0,493.051,255.359Z" transform="translate(-222.69 -96.808)" fill="#455a64"/>
        <path id="Path_3634" data-name="Path 3634" d="M519.541,265.982a3.706,3.706,0,0,1-.712.3,10.233,10.233,0,0,1-2.064.464,14.378,14.378,0,0,1-3.1.114,17.692,17.692,0,0,1-3.777-.722,18.029,18.029,0,0,1-3.509-1.589,15.554,15.554,0,0,1-2.5-1.9,11.141,11.141,0,0,1-1.414-1.569c-.3-.4-.444-.64-.413-.66s.733.826,2.064,1.961a17.062,17.062,0,0,0,2.5,1.765,18.72,18.72,0,0,0,3.426,1.507,19.611,19.611,0,0,0,3.663.743,17.8,17.8,0,0,0,3.1,0C518.447,266.23,519.541,265.889,519.541,265.982Z" transform="translate(-222.35 -96.638)" fill="#455a64"/>
        <path id="Path_3635" data-name="Path 3635" d="M533.009,304.52a4.6,4.6,0,0,1-.444.629l-1.3,1.713c-1.125,1.527-2.766,3.725-4.726,6.491-3.932,5.521-9.287,13.239-15.056,21.794l-14.891,21.959-4.54,6.656-1.238,1.8a4.415,4.415,0,0,1-.464.6,4.952,4.952,0,0,1,.382-.66l1.156-1.847,4.375-6.738c3.715-5.676,8.905-13.477,14.715-22.042s11.176-16.253,15.19-21.722c2-2.745,3.684-4.912,4.86-6.408.6-.691,1.032-1.238,1.424-1.661A4.128,4.128,0,0,1,533.009,304.52Z" transform="translate(-222.724 -95.23)" fill="#455a64"/>
        <path id="Path_3636" data-name="Path 3636" d="M527.544,186.779c.083,0,.083-1.032.371-2.755a19.069,19.069,0,0,1,2.229-6.191,10.587,10.587,0,0,1,4.551-4.623,6.387,6.387,0,0,1,2.662-.423,1.476,1.476,0,0,0-.733-.2,4.53,4.53,0,0,0-2.064.279,10.133,10.133,0,0,0-4.85,4.706,17.336,17.336,0,0,0-2.157,6.439,8.049,8.049,0,0,0-.01,2.765Z" transform="translate(-221.54 -99.441)" fill="#263238"/>
        <path id="Path_3637" data-name="Path 3637" d="M525.389,170.37l-20.638,3.2-12.837,16.923a37.087,37.087,0,0,0-7.45,23.672,41.823,41.823,0,0,0,3.2,12.734l-3.22,24.24c-.475,2.786,1.331,5.459,2.549,5.459l38.676-5.16c5.036-1.032,7.11-3.622,6.8-6.542l-.578-5.407,12.754-54.516c.97,3.261.413-10.526-6.965-13.239a22.444,22.444,0,0,0-12.29-1.362Z" transform="translate(-222.915 -99.521)" fill="#457fee"/>
        <path id="Path_3638" data-name="Path 3638" d="M498.508,181.23a1.849,1.849,0,0,0-.32.361l-.856,1.094c-.722.96-1.765,2.363-3,4.128a66.461,66.461,0,0,0-8.111,14.622,31.7,31.7,0,0,0-1.816,16.407,21.824,21.824,0,0,0,1.424,4.85,12.766,12.766,0,0,0,.588,1.249,3.842,3.842,0,0,0,.248.423,13.785,13.785,0,0,0-.65-1.734,24.769,24.769,0,0,1-1.249-4.85,32.577,32.577,0,0,1,1.95-16.149,71.667,71.667,0,0,1,7.925-14.591l2.858-4.2.774-1.145a2.262,2.262,0,0,0,.237-.464Z" transform="translate(-222.925 -99.165)" fill="#263238"/>
        <path id="Path_3639" data-name="Path 3639" d="M528.1,194a2.152,2.152,0,0,0,0,.485c0,.382.1.846.165,1.4.165,1.207.444,2.962.826,5.16.774,4.3,2,10.206,3.467,16.707s2.9,12.383,3.993,16.583c.547,2.115,1.032,3.818,1.341,4.994.165.537.3.98.4,1.352s.155.464.175.454a1.742,1.742,0,0,0-.072-.485l-.31-1.372c-.289-1.269-.691-2.962-1.176-5.025l-3.849-16.614c-1.465-6.5-2.745-12.383-3.612-16.665l-.98-5.067c-.1-.557-.2-1.032-.258-1.383A2.2,2.2,0,0,0,528.1,194Z" transform="translate(-221.519 -98.757)" fill="#263238"/>
        <g id="Group_210" data-name="Group 210" transform="translate(298.586 92.006)" opacity="0.3">
          <path id="Path_3640" data-name="Path 3640" d="M527.346,249.978c-2.219-2.219-2.683-5.6-3.034-8.73q-1.661-14.9-3.323-29.812c-.691-6.191-1.341-12.693,1.032-18.471a3.158,3.158,0,0,1,1.765-2.064,2.332,2.332,0,0,1,2.332.96c.536.712,2.064,1.744,2.26,2.6,2.26,8.864,3.24,17.542,5.5,26.448.588,2.342,1.372,2.25.857,4.613-.753,3.426-3.963,13.26-3.963,13.26s.454,3.581.588,5.665a5.4,5.4,0,0,1-3.983,5.521" transform="translate(-520.352 -190.863)"/>
        </g>
        <path id="Path_3641" data-name="Path 3641" d="M503.26,175.557l-.65-5.459,27.377-3.5v6.119Z" transform="translate(-222.332 -99.632)" fill="#457fee"/>
        <path id="Path_3642" data-name="Path 3642" d="M392.464,423.835l11.877,19.978s-16.315,18.781-14.447,22.7l39.563-21.67L412.194,413Z" transform="translate(-225.934 -91.769)" fill="#455a64"/>
        <path id="Path_3643" data-name="Path 3643" d="M414.882,434.713A1.826,1.826,0,0,1,417,435.951a1.765,1.765,0,0,1-1.2,2.064,1.95,1.95,0,0,1-2.25-1.321,1.847,1.847,0,0,1,1.5-2.064" transform="translate(-225.175 -91.078)" fill="#e0e0e0"/>
        <path id="Path_3644" data-name="Path 3644" d="M429.423,443.966l-1.857-3.1-37.242,21.876s-1.341,1.723-.464,2.858Z" transform="translate(-225.94 -90.879)" fill="#263238"/>
        <path id="Path_3645" data-name="Path 3645" d="M403.16,443.029c.113.186,1.125-.248,2.415-.144s2.239.629,2.384.454-.764-1.125-2.332-1.228S403,442.874,403.16,443.029Z" transform="translate(-225.506 -90.84)" fill="#263238"/>
        <path id="Path_3646" data-name="Path 3646" d="M400.05,446.872c.062.217,1.032.082,2.177.547s1.765,1.218,1.95,1.1-.289-1.28-1.672-1.816S400,446.687,400.05,446.872Z" transform="translate(-225.605 -90.7)" fill="#263238"/>
        <path id="Path_3647" data-name="Path 3647" d="M400.5,453.01c.2-.062-.062-1.176-1.135-1.961s-2.208-.712-2.208-.506.877.464,1.754,1.125S400.3,453.083,400.5,453.01Z" transform="translate(-225.697 -90.575)" fill="#263238"/>
        <path id="Path_3648" data-name="Path 3648" d="M401,438.37c.175.134.918-.619,2.064-1.145s2.177-.64,2.188-.867-1.187-.464-2.508.175S400.846,438.266,401,438.37Z" transform="translate(-225.576 -91.031)" fill="#263238"/>
        <path id="Path_3649" data-name="Path 3649" d="M394.572,431.393l.877,23.218S372.128,463.3,371.87,467.6l45.095-.062.134-36.251Z" transform="translate(-226.505 -91.185)" fill="#455a64"/>
        <path id="Path_3650" data-name="Path 3650" d="M408.3,452a1.837,1.837,0,0,1,1.269,2.064,1.765,1.765,0,0,1-2.064,1.29,1.95,1.95,0,0,1-1.341-2.229,1.837,1.837,0,0,1,2.3-1.1" transform="translate(-225.411 -90.526)" fill="#e0e0e0"/>
        <path id="Path_3651" data-name="Path 3651" d="M416.965,466.533l-.124-3.653L373.656,464.3s-2.064.877-1.785,2.291Z" transform="translate(-226.505 -90.177)" fill="#263238"/>
        <path id="Path_3652" data-name="Path 3652" d="M394,453.676c0,.227,1.1.32,2.188,1.032s1.661,1.641,1.868,1.548-.124-1.362-1.455-2.188S394,453.48,394,453.676Z" transform="translate(-225.798 -90.477)" fill="#263238"/>
        <path id="Path_3653" data-name="Path 3653" d="M389.43,455.573c-.052.217.9.588,1.651,1.517s.97,1.919,1.187,1.909.361-1.259-.6-2.394S389.43,455.366,389.43,455.573Z" transform="translate(-225.944 -90.413)" fill="#263238"/>
        <path id="Path_3654" data-name="Path 3654" d="M386.885,461.177c.206.052.506-1.032-.062-2.26s-1.6-1.682-1.692-1.5.547.825,1.032,1.826S386.668,461.116,386.885,461.177Z" transform="translate(-226.082 -90.352)" fill="#263238"/>
        <path id="Path_3655" data-name="Path 3655" d="M394.39,448.543c.083.206,1.094-.1,2.342,0s2.219.475,2.332.289-.826-.98-2.291-1.032S394.277,448.368,394.39,448.543Z" transform="translate(-225.786 -90.658)" fill="#263238"/>
        <path id="Path_3656" data-name="Path 3656" d="M417.435,293.594s2.538,12.8,1.259,14.633a59.177,59.177,0,0,0-3.56,7.7l.743,57.5,3.942,84.617-26.83-.526-10.071-74.731a60.881,60.881,0,0,1-5.335-12.847c-1.445-5.933-9.463-64.814-9.463-64.814l.444-22.64Z" transform="translate(-226.624 -95.934)" fill="#263238"/>
        <path id="Path_3657" data-name="Path 3657" d="M356.73,283.72s4.128,77.094,5.83,83.967,38.532,77.5,38.532,77.5l23.239-10.856-29.09-74.38,1.393-71.2Z" transform="translate(-226.988 -95.894)" fill="#263238"/>
        <path id="Path_3658" data-name="Path 3658" d="M365.51,290.32a2.29,2.29,0,0,0,0,.433c0,.31.093.733.155,1.28.155,1.145.361,2.8.64,4.9.588,4.272,1.424,10.422,2.466,18.007s2.322,16.645,3.725,26.7c.712,5.015,1.414,10.319,2.25,15.757a94.946,94.946,0,0,0,3.859,16.676c1.909,5.552,4.7,10.629,5.562,16.087,1.032,5.4,1.754,10.68,2.446,15.706,1.321,10.061,2.363,19.132,3.261,26.758s1.61,13.786,2.167,18.038c.279,2.136.506,3.787.681,4.9.093.537.165.949.217,1.269a2.457,2.457,0,0,0,.093.423v-.433c0-.289-.093-.743-.155-1.28l-.578-4.9c-.475-4.293-1.156-10.464-1.992-18.069s-1.847-16.707-3.1-26.768c-.671-5.036-1.362-10.319-2.415-15.757-.877-5.541-3.684-10.67-5.572-16.16a95.8,95.8,0,0,1-3.921-16.573c-.836-5.448-1.548-10.732-2.281-15.747l-3.839-26.685c-1.114-7.564-2.012-13.7-2.642-17.976l-.733-4.85c-.093-.537-.155-.96-.206-1.269A2.467,2.467,0,0,0,365.51,290.32Z" transform="translate(-226.708 -95.683)" fill="#455a64"/>
        <path id="Path_3659" data-name="Path 3659" d="M416.171,408.57a9.863,9.863,0,0,0,0,1.775c0,1.145.062,2.8.134,4.84.155,4.128.444,9.731.795,15.953s.65,11.877.836,15.953c.093,1.971.165,3.6.227,4.84a10.006,10.006,0,0,0,.144,1.775,10.631,10.631,0,0,0,.072-1.785c0-1.135,0-2.8,0-4.84-.083-4.128-.32-9.741-.671-15.974s-.712-11.764-.96-15.943c-.124-1.961-.237-3.591-.31-4.829a11.493,11.493,0,0,0-.268-1.765Z" transform="translate(-225.092 -91.91)" fill="#455a64"/>
        <path id="Path_3660" data-name="Path 3660" d="M389.9,126.386l5.552,42.5c.939,7.223.856,18.048-10.649,19.018h0c-10.051.083-13.786-8.988-14.653-15.737-.423-3.209-.774-5.872-.836-6.191,0,0-10.959.392-13.136-10.226-1.032-5.16-2.363-15.871-3.436-25.6A20.174,20.174,0,0,1,369,108.141l1.032-.206C381.214,106.47,388.737,115.148,389.9,126.386Z" transform="translate(-227.119 -101.509)" fill="#ffd5bd"/>
        <path id="Path_3661" data-name="Path 3661" d="M368.76,164.254a25.178,25.178,0,0,0,13.105-6.6s-1.806,8.255-12.6,9.37Z" transform="translate(-226.604 -99.917)" fill="#ffb294"/>
        <path id="Path_3662" data-name="Path 3662" d="M355.271,134.355c.227.186,1.661-.444,3.663-.3s3.436.949,3.663.795-.113-.392-.743-.764a7,7,0,0,0-2.931-.836,6.4,6.4,0,0,0-2.92.444C355.374,134.025,355.157,134.272,355.271,134.355Z" transform="translate(-227.035 -100.697)" fill="#263238"/>
        <path id="Path_3663" data-name="Path 3663" d="M371.492,133.1c.279.062,1.29-1.125,3.1-1.878s3.488-.691,3.612-.929-.268-.289-1.032-.341a7.161,7.161,0,0,0-2.982.557,6.254,6.254,0,0,0-2.4,1.682C371.42,132.695,371.358,133.1,371.492,133.1Z" transform="translate(-226.519 -100.801)" fill="#263238"/>
        <path id="Path_3664" data-name="Path 3664" d="M371.18,136.34a1.2,1.2,0,0,0,1.362.96,1.125,1.125,0,0,0,1.032-1.29,1.187,1.187,0,0,0-1.352-.96,1.135,1.135,0,0,0-1.042,1.29Z" transform="translate(-226.527 -100.639)" fill="#263238"/>
        <path id="Path_3665" data-name="Path 3665" d="M356.35,138.04a1.2,1.2,0,0,0,1.362.97,1.135,1.135,0,0,0,1.032-1.29,1.187,1.187,0,0,0-1.352-.97,1.145,1.145,0,0,0-1.042,1.29Z" transform="translate(-227 -100.585)" fill="#263238"/>
        <path id="Path_3666" data-name="Path 3666" d="M368.208,144.7a11.259,11.259,0,0,0-2.745,0c-.423,0-.836,0-.96-.237a2.063,2.063,0,0,1,0-1.29l.619-3.416c.846-4.86,1.362-8.823,1.176-8.854s-1.032,3.88-1.888,8.74c-.2,1.187-.382,2.332-.568,3.426a2.425,2.425,0,0,0,.1,1.672,1.032,1.032,0,0,0,.8.485,2.642,2.642,0,0,0,.722,0A10.615,10.615,0,0,0,368.208,144.7Z" transform="translate(-226.764 -100.771)" fill="#263238"/>
        <path id="Path_3667" data-name="Path 3667" d="M371,125.054c.217.371,1.62-.093,3.354-.206s3.189.093,3.343-.31c.072-.2-.248-.537-.867-.815a5.675,5.675,0,0,0-5.108.392C371.125,124.508,370.877,124.889,371,125.054Z" transform="translate(-226.533 -101.014)" fill="#263238"/>
        <path id="Path_3668" data-name="Path 3668" d="M354.821,130.248c.227.3,1.589-.227,3.281-.475s3.1-.206,3.271-.568c.052-.165-.258-.423-.887-.609a5.9,5.9,0,0,0-2.559-.124,6.273,6.273,0,0,0-2.425.908C355.006,129.752,354.717,130.1,354.821,130.248Z" transform="translate(-227.049 -100.851)" fill="#263238"/>
        <path id="Path_3669" data-name="Path 3669" d="M389.38,133.638c.165-.114,6.893-3.57,8.059,3.746s-6.388,6.976-6.46,6.769S389.38,133.638,389.38,133.638Z" transform="translate(-225.946 -100.713)" fill="#ffd5bd"/>
        <path id="Path_3670" data-name="Path 3670" d="M392.678,140.957a1.831,1.831,0,0,0,.371.134,1.259,1.259,0,0,0,.949-.134,3.178,3.178,0,0,0,1.032-3.1,4.128,4.128,0,0,0-.65-1.765,1.486,1.486,0,0,0-1.114-.826.64.64,0,0,0-.691.464.581.581,0,0,0,0,.382c0,.021-.175-.093-.165-.413a.919.919,0,0,1,.217-.506,1.032,1.032,0,0,1,.681-.3,1.806,1.806,0,0,1,1.507.929,4.427,4.427,0,0,1,.774,1.971c.186,1.476-.351,2.982-1.362,3.457a1.393,1.393,0,0,1-1.2,0C392.72,141.133,392.647,140.978,392.678,140.957Z" transform="translate(-225.849 -100.643)" fill="#ffb294"/>
        <path id="Path_3671" data-name="Path 3671" d="M370.33,149.161c-.093-.175,1.29-.774,2.146-2.25a8.843,8.843,0,0,0,.795-2.064c.145-.557.268-.908.351-.9s.1.382.052.97a5.388,5.388,0,0,1-.691,2.27,4.52,4.52,0,0,1-1.7,1.661C370.743,149.161,370.361,149.233,370.33,149.161Z" transform="translate(-226.554 -100.354)" fill="#263238"/>
        <path id="Path_3672" data-name="Path 3672" d="M337.841,122.421a1.713,1.713,0,0,1,.7-1.1,5.3,5.3,0,0,1,2.683-.774,15.664,15.664,0,0,0,7.781-3.4,36.123,36.123,0,0,1,3.209-4.994c2.858-3.736,5.263-6.326,7.894-7.77a25.189,25.189,0,0,1,13.178-2.611c3.839.537,7.554,3.168,8.524,6.934,1.878-2.064,5.025-2.373,7.688-1.651h.062c2.962.671,4.922,3.488,6.109,6.274s1.9,5.851,3.736,8.255c.382.506.836,1.114.629,1.7a1.218,1.218,0,0,1-1.187.7,3.735,3.735,0,0,1-1.393-.444l1.218,2.157a6.779,6.779,0,0,1-3.1.165,66.572,66.572,0,0,1-1.114,7.863,4.4,4.4,0,0,0-2.92,1.094c-.887,1.032-1.135,2.745-2.858,2.3-.877-.227-1.857-1.9-2.239-2.724a42.163,42.163,0,0,1-3.9-17.543,13.414,13.414,0,0,0-4.509-2.508l.144.1c-3.1-.691-6.635-1.311-9.287.433-2.064,1.341-3.1,3.787-4.54,5.81A16.954,16.954,0,0,1,353,127.652c.2,3.034.949,7.223,1.145,10.319l-3.1-4.53h0a8.847,8.847,0,0,1-.671-1.032l-.072-.1h0a17.343,17.343,0,0,0-1.032-1.62h0a1.9,1.9,0,1,1-3.1-2.2,4.126,4.126,0,0,1,.805-1.032,3.013,3.013,0,0,1-2.766,1.032,2.342,2.342,0,0,1-1.919-2.064,1.971,1.971,0,0,1,1.032-1.734,6.8,6.8,0,0,1-3.921-.4C338.522,124.02,337.7,123.4,337.841,122.421Z" transform="translate(-227.591 -101.703)" fill="#263238"/>
        <path id="Path_3673" data-name="Path 3673" d="M377.32,110.07a9.689,9.689,0,0,1,1.187.857,7.656,7.656,0,0,1,2.064,3.364,13.264,13.264,0,0,1,.6,2.693c.124,1.032.165,2.064.227,3.178a26.9,26.9,0,0,0,.33,3.529,13.11,13.11,0,0,0,.423,1.785,4.128,4.128,0,0,0,.97,1.713,1.672,1.672,0,0,0,1.579.33,2.477,2.477,0,0,0,1.269-.929,5.552,5.552,0,0,0,.712-2.858l-.217.062a8.822,8.822,0,0,0,1.568,2.064,3.25,3.25,0,0,0,2.219.887,2.064,2.064,0,0,0,1.083-.33,1.713,1.713,0,0,0,.66-.826,1.8,1.8,0,0,0,.113-1.032,1.352,1.352,0,0,0-.433-.795l-.1.124a7.028,7.028,0,0,0,2.508,1.455c.32.1.568.155.743.2h.268l-.258-.072-.733-.237a7.14,7.14,0,0,1-2.425-1.486l-.1.114a1.383,1.383,0,0,1,.258,1.579,1.62,1.62,0,0,1-.6.743,1.981,1.981,0,0,1-1.032.279,3.013,3.013,0,0,1-2.064-.856,9.156,9.156,0,0,1-1.517-2.064l-.186-.33v.382a5.366,5.366,0,0,1-.681,2.724,2.137,2.137,0,0,1-1.135.826,1.393,1.393,0,0,1-1.341-.279,3.591,3.591,0,0,1-.887-1.6,12.633,12.633,0,0,1-.464-1.785,30.116,30.116,0,0,1-.341-3.5c-.062-1.125-.113-2.2-.248-3.2a13.713,13.713,0,0,0-.629-2.724,7.554,7.554,0,0,0-2.177-3.374,4.313,4.313,0,0,0-1.207-.609Z" transform="translate(-226.331 -101.436)" fill="#455a64"/>
        <path id="Path_3674" data-name="Path 3674" d="M346.35,124.608l.093.062.3.165a4.292,4.292,0,0,0,.485.237,6.981,6.981,0,0,0,.691.268,9.545,9.545,0,0,0,4.685.279,12.166,12.166,0,0,0,6.191-3.1,20.99,20.99,0,0,0,4.809-7.069c.629-1.393,1.1-2.8,1.661-4.128a14.632,14.632,0,0,1,2.012-3.55,7.368,7.368,0,0,1,2.869-2.239,5.449,5.449,0,0,1,1.61-.382,6.192,6.192,0,0,1,5.314,2.621,6.644,6.644,0,0,1,.743,1.548v-.114l-.083-.32a5.9,5.9,0,0,0-.557-1.166,6.087,6.087,0,0,0-1.393-1.486,6.191,6.191,0,0,0-2.435-1.145,6.047,6.047,0,0,0-1.579-.134,5.758,5.758,0,0,0-1.672.382,7.492,7.492,0,0,0-2.972,2.291,14.137,14.137,0,0,0-2.064,3.6c-.557,1.321-1.032,2.724-1.661,4.128a21.279,21.279,0,0,1-4.736,7,12.074,12.074,0,0,1-6.068,3.1,9.751,9.751,0,0,1-4.623-.2,14.739,14.739,0,0,1-1.62-.65Z" transform="translate(-227.319 -101.599)" fill="#455a64"/>
        <path id="Path_3675" data-name="Path 3675" d="M344.87,119.541a3.358,3.358,0,0,0,.413.227,8.676,8.676,0,0,0,1.207.444,12.24,12.24,0,0,0,1.878.382,13.478,13.478,0,0,0,2.342,0,12.487,12.487,0,0,0,2.3-.433,10.642,10.642,0,0,0,1.775-.691,7.222,7.222,0,0,0,1.114-.64,2.457,2.457,0,0,0,.382-.289s-.588.33-1.569.764a12.2,12.2,0,0,1-1.765.64,15.779,15.779,0,0,1-2.26.4,14.149,14.149,0,0,1-2.3,0,12.591,12.591,0,0,1-1.847-.32C345.5,119.778,344.891,119.5,344.87,119.541Z" transform="translate(-227.366 -101.165)" fill="#455a64"/>
        <path id="Path_3676" data-name="Path 3676" d="M358.867,236.383c0-1.352,10.814-61.347,10.814-61.347,2.064-1.93,24.89-18.626,24.89-18.626l19.72,23.672s4.974,18.574,6.5,31.989c1.032,8.854,5.593,51.09,6.914,68.921a13.559,13.559,0,0,1-5.841,12.166l-2.064.217-.547,5.325c-18.234.413-62.245-7.688-62.8-7.347S358.9,241.264,358.867,236.383Z" transform="translate(-226.999 -99.957)" fill="url(#linear-gradient-18)"/>
        <path id="Path_3677" data-name="Path 3677" d="M356.43,280.76a4.35,4.35,0,0,0,.629.165l1.816.413c1.569.351,3.87.795,6.707,1.311,5.686,1.032,13.57,2.229,22.31,3.312s16.676,1.94,22.413,2.6l6.79.753,1.847.2a4.362,4.362,0,0,0,.65,0,3,3,0,0,0-.64-.134l-1.837-.279c-1.6-.227-3.911-.537-6.78-.908l-22.362-2.683c-8.74-1.083-16.624-2.219-22.32-3.178-2.838-.475-5.16-.867-6.728-1.166l-1.827-.32a2.793,2.793,0,0,0-.671-.083Z" transform="translate(-226.997 -95.989)" fill="#263238"/>
        <path id="Path_3678" data-name="Path 3678" d="M402.64,155.015c3.168.908,5.81,3.1,8.348,5.16l10.98,9.081c2.115,1.754,4.324,3.632,5.263,6.191,1.362,3.715-.423,8.09-3.581,10.464a15.19,15.19,0,0,1-11.3,2.384,39.637,39.637,0,0,1-11.145-3.88l-8.6-27.335C394.509,154.354,399.483,154.1,402.64,155.015Z" transform="translate(-225.843 -100.017)" fill="url(#linear-gradient-18)"/>
        <path id="Path_3679" data-name="Path 3679" d="M369,175.228a6.6,6.6,0,0,0,1.166-.485c.743-.33,1.8-.856,3.1-1.538a91.409,91.409,0,0,0,9.659-5.985c3.643-2.559,6.811-5.015,9.112-6.79l2.714-2.115a7.567,7.567,0,0,0,.97-.815,5.951,5.951,0,0,0-1.032.681c-.671.454-1.63,1.135-2.807,1.992-2.353,1.7-5.552,4.128-9.174,6.676s-7.027,4.654-9.556,6.078c-1.269.712-2.291,1.28-3.013,1.661A5.766,5.766,0,0,0,369,175.228Z" transform="translate(-226.596 -99.922)" fill="#263238"/>
        <path id="Path_3680" data-name="Path 3680" d="M398.93,166.42a6.738,6.738,0,0,0,1.032.846c.351.248.753.578,1.218.97s1.032.815,1.568,1.321a40.455,40.455,0,0,1,7.7,9A41.919,41.919,0,0,1,415.2,189.4c.392,1.465.7,2.662.857,3.5a7.572,7.572,0,0,0,.33,1.29,6.913,6.913,0,0,0-.155-1.321c-.1-.846-.361-2.064-.712-3.55a38.768,38.768,0,0,0-4.7-11.01,37.808,37.808,0,0,0-7.863-8.988c-.588-.506-1.135-.929-1.63-1.29s-.908-.671-1.269-.908A9.2,9.2,0,0,0,398.93,166.42Z" transform="translate(-225.641 -99.637)" fill="#263238"/>
        <g id="Group_211" data-name="Group 211" transform="translate(166.767 55.469)" opacity="0.3">
          <path id="Path_3681" data-name="Path 3681" d="M399.813,155.481c7.843.949,16.2,9.669,22.578,14.9-2.631.547-6.7-2.064-9.091-3.333-6-3.044-10.4-7.966-18.337-9.483l-2.353-.557C394.044,155.759,398.1,155.347,399.813,155.481Z" transform="translate(-392.61 -155.457)"/>
        </g>
        <path id="Path_3682" data-name="Path 3682" d="M395.15,157.48s.423.072,1.176.258a13.888,13.888,0,0,1,3.1,1.176c2.466,1.28,5.624,3.529,9.215,5.841a51.436,51.436,0,0,0,9.669,5.16,25.573,25.573,0,0,0,3.178,1.032,5.862,5.862,0,0,0,1.207.206,7.606,7.606,0,0,0-1.156-.382c-.743-.227-1.816-.578-3.1-1.1a58.39,58.39,0,0,1-9.545-5.221,104.065,104.065,0,0,0-9.287-5.748,12.084,12.084,0,0,0-3.158-1.032,6.718,6.718,0,0,0-.908-.1C395.253,157.46,395.15,157.46,395.15,157.48Z" transform="translate(-225.762 -99.923)" fill="#263238"/>
        <g id="Group_212" data-name="Group 212" transform="translate(130.945 98.71)" opacity="0.3">
          <path id="Path_3683" data-name="Path 3683" d="M394.781,197.36c-3.1,20.772-6.666,42.494-19.3,59.283-3.333,4.427-8.07,8.751-13.59,8.255-2.2-.206-4.716-2.177-3.808-4.19,0,.206,2.4-.96,4.128-2.064,3.725-2.415,7.007-3.416,9.432-7.141s4.447-8.854,6.243-12.92c5.614-12.754,12.383-28.2,16.923-41.2" transform="translate(-357.895 -197.36)"/>
        </g>
        <path id="Path_3684" data-name="Path 3684" d="M403.141,294.4a7.162,7.162,0,0,0,1.032-3.158,7.358,7.358,0,0,0-.083-3.312c-.134,0-.114,1.476-.371,3.25S403,294.359,403.141,294.4Z" transform="translate(-225.507 -95.76)" fill="#263238"/>
        <path id="Path_3685" data-name="Path 3685" d="M395.1,292.793a19.08,19.08,0,0,0,.671-5.923A20.05,20.05,0,0,0,395.1,292.793Z" transform="translate(-225.764 -95.794)" fill="#263238"/>
        <path id="Path_3686" data-name="Path 3686" d="M385.72,291.183a10.008,10.008,0,0,0,.764-2.91,10.155,10.155,0,0,0,.3-3,10.318,10.318,0,0,0-.753,2.92,9.909,9.909,0,0,0-.31,2.993Z" transform="translate(-226.063 -95.845)" fill="#263238"/>
        <path id="Path_3687" data-name="Path 3687" d="M377.511,290.467a28.2,28.2,0,0,0,.65-2.879,27.523,27.523,0,0,0,.764-2.848,8.709,8.709,0,0,0-1.414,5.727Z" transform="translate(-226.326 -95.862)" fill="#263238"/>
        <path id="Path_3688" data-name="Path 3688" d="M369.19,288.835a7.429,7.429,0,0,0,.722-2.456,7.3,7.3,0,0,0,.279-2.549,7.43,7.43,0,0,0-.722,2.456,7.3,7.3,0,0,0-.279,2.549Z" transform="translate(-226.591 -95.891)" fill="#263238"/>
        <path id="Path_3689" data-name="Path 3689" d="M361.714,288.373c.134,0,.2-1.434.547-3.158s.826-3.1.7-3.1a7.068,7.068,0,0,0-1.156,3.1A6.955,6.955,0,0,0,361.714,288.373Z" transform="translate(-226.833 -95.945)" fill="#263238"/>
        <path id="Path_3690" data-name="Path 3690" d="M374.007,252a4.3,4.3,0,0,0-.144,1.032,8.5,8.5,0,0,0-.062,1.228,14.669,14.669,0,0,0,0,1.61,23.391,23.391,0,0,0,.64,4.128,27.324,27.324,0,0,0,1.775,4.85,26.575,26.575,0,0,0,2.755,4.365,22.706,22.706,0,0,0,2.9,3.1,15.712,15.712,0,0,0,1.259,1.032,8.492,8.492,0,0,0,1.032.691,5.093,5.093,0,0,0,.908.526c.052-.083-1.207-.867-2.941-2.477a25.653,25.653,0,0,1-7.966-16.284C373.914,253.465,374.069,252,374.007,252Z" transform="translate(-226.444 -96.906)" fill="#263238"/>
        <g id="Group_213" data-name="Group 213" transform="translate(147.759 160.996)" opacity="0.3">
          <path id="Path_3691" data-name="Path 3691" d="M381.692,271.424l-.279-.237a23.2,23.2,0,0,1-7.223-13.466C377.946,261.1,380.619,266.522,381.692,271.424Z" transform="translate(-374.19 -257.72)"/>
        </g>
        <path id="Path_3692" data-name="Path 3692" d="M383.29,285.306a13.569,13.569,0,0,0,1.847-9.906,45.218,45.218,0,0,1-.413,5.046A47.974,47.974,0,0,1,383.29,285.306Z" transform="translate(-226.14 -96.16)" fill="#263238"/>
        <path id="Path_3693" data-name="Path 3693" d="M370.36,250.39c-.052.124.66.568,1.6,1.032a4,4,0,0,0,1.785.578c.052-.114-.66-.557-1.6-1.032a4,4,0,0,0-1.785-.578Z" transform="translate(-226.553 -96.958)" fill="#263238"/>
        <path id="Path_3694" data-name="Path 3694" d="M410.58,294.57a5.263,5.263,0,0,0,1.176-2.972,5.159,5.159,0,0,0-.361-3.158c-.134,0,.134,1.414-.093,3.1S410.457,294.5,410.58,294.57Z" transform="translate(-225.27 -95.743)" fill="#263238"/>
        <path id="Path_3695" data-name="Path 3695" d="M622.316,261.052l-3.24-49.81L298.822,232.024l-1.888-29.244L231.49,261.393l72.533,50.76-1.961-30.318Z" transform="translate(-230.984 -98.477)" fill="#e0e0e0"/>
        <path id="Path_3696" data-name="Path 3696" d="M622.332,261.069,302.088,282.1l.237-.268,1.94,30.318v.547l-.444-.31-72.543-50.749-.279-.2.248-.227,17.924-16.046,47.52-42.566.413-.361v.537q.96,14.839,1.9,29.244l-.279-.248,320.264-20.638h.114v.144c2.064,32.4,3.1,48.964,3.1,49.821q.041-1.321-3.2-49.821l.124.114L298.859,232.3H298.6v-.268q-.949-14.4-1.9-29.234l.444.175-47.468,42.577L231.753,261.6v-.423c24.89,17.429,49.15,34.4,72.533,50.76l-.413.237c-.681-10.474-1.352-20.814-1.961-30.328v-.248h.258Z" transform="translate(-231 -98.494)" fill="#263238"/>
        <g id="Group_214" data-name="Group 214" transform="translate(280.412 117.243)" opacity="0.3">
          <path id="Path_3697" data-name="Path 3697" d="M541.478,224.824c-.722-3.158-1.961-6.264-1.95-9.5l-9.927.826c.939,4.468,1.857,9.287.093,13.477-1.6,3.808-5.16,6.439-8.637,8.6-6.625,4.128-14.168,7.492-18.316,14.075,3.178,1.568,6.914-.175,10.02-1.888l22.97-12.713a14.063,14.063,0,0,0,4.674-3.539C542.334,231.583,542.221,227.982,541.478,224.824Z" transform="translate(-502.74 -215.32)"/>
        </g>
        <path id="Path_3698" data-name="Path 3698" d="M344.529,260.94,329.731,263,318.566,276.14s1.672,1.517,4.685-.279c1.3-.774-1.6,2.693-1.6,2.693l-7.966.568a1.971,1.971,0,0,0,1.125,2.611c1.847.66,8.482.9,8.482.9l.681-1.032a3.581,3.581,0,0,0,3.1.9,11.051,11.051,0,0,0,5.655.557,17.129,17.129,0,0,0,4.9-1.4l13.982-13.239Z" transform="translate(-228.366 -96.621)" fill="#ffd5bd"/>
        <path id="Path_3699" data-name="Path 3699" d="M331.4,267.29a20.866,20.866,0,0,0-4.437,3.766,21.237,21.237,0,0,0-3.653,4.54c.124.093,1.8-1.888,4.024-4.128A50.222,50.222,0,0,0,331.4,267.29Z" transform="translate(-228.054 -96.418)" fill="#ffb294"/>
        <path id="Path_3700" data-name="Path 3700" d="M329.193,275.76a19.473,19.473,0,0,0-3.3,3.034,19.015,19.015,0,0,0-2.931,3.385,38.182,38.182,0,0,0,6.191-6.419Z" transform="translate(-228.065 -96.148)" fill="#ffb294"/>
        <path id="Path_3701" data-name="Path 3701" d="M332.17,277.29a32.939,32.939,0,0,0-2.7,2.415,30.968,30.968,0,0,0-2.786,2.332,8.142,8.142,0,0,0,3.1-1.94,8.05,8.05,0,0,0,2.394-2.807Z" transform="translate(-227.947 -96.099)" fill="#ffb294"/>
        <path id="Path_3702" data-name="Path 3702" d="M335.281,278.59a12.673,12.673,0,0,0-2.177,1.888c-1.166,1.032-2.167,1.888-2.064,2.012a6.253,6.253,0,0,0,2.435-1.63A6.066,6.066,0,0,0,335.281,278.59Z" transform="translate(-227.808 -96.058)" fill="#ffb294"/>
        <g id="Group_215" data-name="Group 215" transform="translate(124.397 127.269)" opacity="0.3">
          <path id="Path_3703" data-name="Path 3703" d="M396.118,225.639c-5.077-1.847-10.856.784-14.519,4.757s-5.748,9.091-8.255,13.89a86.619,86.619,0,0,1-21.794,26.974l5.841,3.209a157.012,157.012,0,0,0,23.084-11.826c5.232-3.261,10.453-7.017,13.415-12.383C397.924,242.872,397.078,233.946,396.118,225.639Z" transform="translate(-351.55 -225.036)"/>
        </g>
        <path id="Path_3704" data-name="Path 3704" d="M395.161,188.311s2.177,52.462-5.3,61.3-33.465,26.964-33.465,26.964l-3.23-.31-5.49,1.228L338.85,264.3l26.995-28.894s1.032-54.526,1.94-55.93,2.2-8.121,11.4-7.285S395.419,181.18,395.161,188.311Z" transform="translate(-227.558 -99.455)" fill="url(#linear-gradient-18)"/>
        <path id="Path_3705" data-name="Path 3705" d="M389.026,174.75a5.741,5.741,0,0,1,.97.722,11.35,11.35,0,0,1,2.012,2.889,26.58,26.58,0,0,1,2.064,5.16,29.359,29.359,0,0,1,.506,7.368c-.072,11.021-.516,26.231-1.641,42.979-.134,2.064-.279,4.128-.547,6.191a26.292,26.292,0,0,1-1.321,5.789,18.314,18.314,0,0,1-3.1,4.654c-1.238,1.372-2.5,2.673-3.8,3.87-5.16,4.788-10.216,8.647-14.447,11.877s-7.729,5.737-10.144,7.481l-2.776,2.064-.712.526a1.374,1.374,0,0,0-.237.2l.258-.155.743-.5,2.817-1.95c2.435-1.713,5.954-4.21,10.226-7.388A181.688,181.688,0,0,0,384.434,254.7c1.31-1.2,2.58-2.5,3.828-3.88a18.667,18.667,0,0,0,3.209-4.767,26.6,26.6,0,0,0,1.352-5.892c.268-2.064.423-4.128.557-6.191,1.114-16.748,1.527-31.989,1.517-43a28.891,28.891,0,0,0-.578-7.44,26.67,26.67,0,0,0-2.167-5.221,11.352,11.352,0,0,0-2.064-2.869A2.713,2.713,0,0,0,389.026,174.75Z" transform="translate(-227.015 -99.372)" fill="#263238"/>
        <path id="Path_3706" data-name="Path 3706" d="M365,233.46c0,.124,1.847.475,3.921,1.538s3.56,2.3,3.643,2.2a10.2,10.2,0,0,0-3.467-2.58A8.73,8.73,0,0,0,365,233.46Z" transform="translate(-226.724 -97.498)" fill="#263238"/>
        <path id="Path_3707" data-name="Path 3707" d="M366.866,185.6c.062,0-.052-.929.093-2.384A12.962,12.962,0,0,1,368.7,177.9a12.156,12.156,0,0,1,3.839-3.932c1.187-.753,2.064-1.032,2-1.114a1.92,1.92,0,0,0-.609.144,10.186,10.186,0,0,0-1.548.712,11.289,11.289,0,0,0-4.035,3.963,12.041,12.041,0,0,0-1.682,5.521,11.252,11.252,0,0,0,.052,1.775,1.857,1.857,0,0,0,.144.64Z" transform="translate(-226.671 -99.432)" fill="#263238"/>
        <path id="Path_3708" data-name="Path 3708" d="M338.85,263.811a4.986,4.986,0,0,1,.5-.609l1.517-1.692,5.655-6.191,19.09-20.587-.072.165c.052-1.269.114-2.621.175-3.983.537-11.991,1.032-22.836,1.383-30.741.206-3.89.372-7.058.485-9.287.062-1.032.113-1.9.155-2.528a4.892,4.892,0,0,1,.093-.877,5.893,5.893,0,0,1,0,.887c0,.629,0,1.465-.062,2.528-.072,2.26-.175,5.428-.31,9.287-.32,7.915-.753,18.76-1.228,30.751-.062,1.362-.124,2.714-.175,3.993v.093l-.072.072-19.214,20.473-5.779,6.068-1.579,1.63A5.948,5.948,0,0,1,338.85,263.811Z" transform="translate(-227.558 -98.965)" fill="#263238"/>
        <path id="Path_3709" data-name="Path 3709" d="M509.412,253l-13.632.96-11.041,11.268s1.434,1.486,4.293.052c1.249-.629-1.63,2.353-1.63,2.353h-7.3a1.806,1.806,0,0,0,.846,2.466c1.651.712,7.688,1.362,7.688,1.362l.65-.918a3.281,3.281,0,0,0,2.8,1.032,10.1,10.1,0,0,0,5.16.867,15.551,15.551,0,0,0,4.561-.96L515.418,260.3Z" transform="translate(-223.057 -96.874)" fill="#bc8f86"/>
        <path id="Path_3710" data-name="Path 3710" d="M497,258a28.336,28.336,0,0,0-7.915,7.058c.1.093,1.754-1.61,3.942-3.55S497.077,258.062,497,258Z" transform="translate(-222.764 -96.715)" fill="#7f473d"/>
        <path id="Path_3711" data-name="Path 3711" d="M494.429,265.54a18.275,18.275,0,0,0-3.209,2.549,18.627,18.627,0,0,0-2.9,2.91,17.408,17.408,0,0,0,3.22-2.549,17.741,17.741,0,0,0,2.889-2.91Z" transform="translate(-222.788 -96.474)" fill="#7f473d"/>
        <path id="Path_3712" data-name="Path 3712" d="M497.085,267.14a28.228,28.228,0,0,0-2.631,2.064,29.629,29.629,0,0,0-2.693,1.95,7.522,7.522,0,0,0,2.972-1.568A7.647,7.647,0,0,0,497.085,267.14Z" transform="translate(-222.679 -96.423)" fill="#7f473d"/>
        <path id="Path_3713" data-name="Path 3713" d="M499.819,268.52a11.35,11.35,0,0,0-2.115,1.589,12.006,12.006,0,0,0-2.064,1.692,5.717,5.717,0,0,0,2.332-1.321,5.654,5.654,0,0,0,1.847-1.961Z" transform="translate(-222.555 -96.379)" fill="#7f473d"/>
        <path id="Path_3714" data-name="Path 3714" d="M533.807,171s9.659-.578,14.055,12.589,12.868,44.878,12.1,53.6-47.994,30.194-47.994,30.194L501.25,254.09l35.859-23.517-9.452-42.092S523.859,172.146,533.807,171Z" transform="translate(-222.376 -99.491)" fill="#457fee"/>
        <path id="Path_3715" data-name="Path 3715" d="M536.6,171.891a12.382,12.382,0,0,0-2.972.733,10.526,10.526,0,0,0-5.1,5.077,19.46,19.46,0,0,0-1.62,7.223c-.114,1.909-.093,3.1-.175,3.1a12.941,12.941,0,0,1-.206-3.1,17.832,17.832,0,0,1,1.517-7.409,10.319,10.319,0,0,1,5.438-5.16,6.872,6.872,0,0,1,2.27-.464,2,2,0,0,1,.846,0Z" transform="translate(-221.569 -99.464)" fill="#263238"/>
        <path id="Path_3716" data-name="Path 3716" d="M544.9,230.6c-.072.144-1.806-.7-4.128-1.032s-4.21-.062-4.241-.217a9.906,9.906,0,0,1,8.369,1.259Z" transform="translate(-221.25 -97.642)" fill="#263238"/>
      </g>
    </g>
  </g>
</svg>
