<svg xmlns="http://www.w3.org/2000/svg" xmlns:xlink="http://www.w3.org/1999/xlink" width="724.773" height="702.632" viewBox="0 0 724.773 702.632">
  <defs>
    <linearGradient id="linear-gradient" x1="0.5" y1="1.686" x2="0.713" y2="0.13" gradientUnits="objectBoundingBox">
      <stop offset="0" stop-color="#f2f2f2"/>
      <stop offset="1" stop-color="#fff"/>
    </linearGradient>
    <linearGradient id="linear-gradient-2" x1="0.5" x2="0.5" y2="1" gradientUnits="objectBoundingBox">
      <stop offset="0" stop-color="#4f8afc"/>
      <stop offset="1" stop-color="#84a9ef"/>
    </linearGradient>
    <linearGradient id="linear-gradient-4" x1="0.5" x2="0.5" y2="1" gradientUnits="objectBoundingBox">
      <stop offset="0" stop-color="#de3c1f"/>
      <stop offset="1" stop-color="#ef6a09"/>
    </linearGradient>
    <linearGradient id="linear-gradient-5" x1="0.5" x2="0.5" y2="1" gradientUnits="objectBoundingBox">
      <stop offset="0" stop-color="#76c53b"/>
      <stop offset="1" stop-color="#8ad054"/>
    </linearGradient>
    <linearGradient id="linear-gradient-6" x1="0.5" x2="0.5" y2="1" gradientUnits="objectBoundingBox">
      <stop offset="0" stop-color="#ffb93d"/>
      <stop offset="1" stop-color="#fec867"/>
    </linearGradient>
  </defs>
  <g id="Group_1249" data-name="Group 1249" transform="translate(-210 -923.383)">
    <g id="Group_640" data-name="Group 640" transform="translate(190.451 1145.419)">
      <path id="Path_375" data-name="Path 375" d="M636.007,24.549c152.134,109,97.938,287.657,100.214,480.718,2.165,183.6-580.153,140.494-580.153,140.494-200.859-3.053-45.851-226.791-48.127-419.852S483.873-84.448,636.007,24.549Z" transform="matrix(0.999, 0.052, -0.052, 0.999, 0.651, -207.603)" fill="url(#linear-gradient)"/>
    </g>
    <g id="Career_progress-cuate" data-name="Career progress-cuate" transform="translate(234 978.77)">
      <g id="freepik--background-complete--inject-3" transform="translate(39.161 33.732)">
        <path id="Path_4179" data-name="Path 4179" d="M78.332,322.472a4.2,4.2,0,0,1,4.1-.136c.632.335,1.239.731,1.871,1.028a7.126,7.126,0,0,1,1.834,1.115,4.188,4.188,0,0,1,1.128,1.809,8.252,8.252,0,0,1,.223,2.131l.136,4.287h0l17.495-.607-.112.112-.211-5.625a4.237,4.237,0,0,1,1.041-2.689,20.852,20.852,0,0,1,4.832-3.023,4.287,4.287,0,0,1,2.912.211l4.956,2.614-.384.112,8.165-15.488.161.57-4.956-2.652a4.547,4.547,0,0,1-1.92-2.4,4.956,4.956,0,0,1-.273-1.536v-2.788a4.746,4.746,0,0,1,.149-1.561,4.622,4.622,0,0,1,1.784-2.565l4.783-3-.173.756-9.268-14.868.83.186-4.82,3a4.621,4.621,0,0,1-3.147.458,4.806,4.806,0,0,1-1.5-.57l-1.239-.694-1.239-.62a4.77,4.77,0,0,1-2.751-3.841l-.161-5.662.582.545-17.495.483.483-.52.124,5.662a4.671,4.671,0,0,1-1.128,2.85,4.956,4.956,0,0,1-1.239.966l-1.239.719-1.239.719a4.47,4.47,0,0,1-1.4.632,4.571,4.571,0,0,1-3.011-.273L72.062,279.6l.446-.136L64.12,294.842l-.087-.273,4.956,2.713a4.213,4.213,0,0,1,1.747,2.255,10.1,10.1,0,0,1,.26,2.837,10.333,10.333,0,0,1-.112,2.825,4.175,4.175,0,0,1-1.611,2.3l-4.8,2.961v-.087l9.181,14.868h0Zm0,0-4.56,2.837h0l-9.28-14.868h0l4.77-2.986a4.039,4.039,0,0,0,1.524-2.218,9.913,9.913,0,0,0,.074-2.775,10.073,10.073,0,0,0-.285-2.751,4,4,0,0,0-1.586-2.156l-4.956-2.627-.173-.087.087-.174,8.165-15.5.149-.3.3.161,4.956,2.6a3.675,3.675,0,0,0,3.618-.335l1.239-.768,1.239-.756a3.978,3.978,0,0,0,.966-.793,3.717,3.717,0,0,0,.88-2.3l-.359-5.6v-.5H85.6l17.52-.582h.558v.57l.186,5.588a3.519,3.519,0,0,0,1.016,2.143,3.906,3.906,0,0,0,.979.694l1.239.632,1.239.706a3.42,3.42,0,0,0,1.115.434,3.482,3.482,0,0,0,2.317-.359l4.783-2.924.508-.322.31.508,9.194,14.868.285.471-.471.285-4.758,2.949a3.469,3.469,0,0,0-1.375,1.958,4.1,4.1,0,0,0-.136,1.239v2.837a3.816,3.816,0,0,0,.2,1.239,3.717,3.717,0,0,0,1.487,1.933l4.956,2.689.372.2-.2.372-8.388,15.364-.136.26-.248-.136-4.956-2.689a3.916,3.916,0,0,0-2.6-.223,9.916,9.916,0,0,0-2.478,1.239,10.347,10.347,0,0,0-2.243,1.574,3.829,3.829,0,0,0-.991,2.478l.124,5.625v.112H104.9l-17.322.446h0l-.124-4.287a7.6,7.6,0,0,0-.2-2.119,4.2,4.2,0,0,0-1.1-1.784,6.791,6.791,0,0,0-1.809-1.115c-.644-.31-1.239-.706-1.871-1.041a4.151,4.151,0,0,0-4.138.062Z" transform="translate(-33.219 22.741)" fill="#ebebeb"/>
        <path id="Path_4180" data-name="Path 4180" d="M78.635,293.243a14.675,14.675,0,1,1,.273,11,14.41,14.41,0,0,1-.273-11Zm0,0a14.286,14.286,0,0,0,.446,10.928,14.018,14.018,0,1,0,7.112-18.833,14.5,14.5,0,0,0-7.558,7.9Z" transform="translate(-29.917 26.037)" fill="#ebebeb"/>
        <path id="Path_4181" data-name="Path 4181" d="M420.514,219.88l-6.121-10.618-3.259,1.883a2.912,2.912,0,0,1-3.048-.112,18.415,18.415,0,0,0-1.6-.917,2.912,2.912,0,0,1-1.611-2.59V203.81H392.612v3.717a2.912,2.912,0,0,1-1.611,2.59,18.2,18.2,0,0,0-1.586.917,2.924,2.924,0,0,1-3.06.112l-3.246-1.883L377,219.88l3.271,1.883a2.924,2.924,0,0,1,1.425,2.7v1.809a2.936,2.936,0,0,1-1.425,2.7L377,230.858l6.133,10.631,3.259-1.883a2.924,2.924,0,0,1,3.06.1,15.3,15.3,0,0,0,1.574.917,2.936,2.936,0,0,1,1.611,2.59v3.717H404.9v-3.717a2.936,2.936,0,0,1,1.611-2.59,15.5,15.5,0,0,0,1.586-.917,2.924,2.924,0,0,1,3.06-.1l3.259,1.883,6.121-10.631-3.259-1.883a2.912,2.912,0,0,1-1.425-2.689c0-.31,0-.607,0-.917v-.9a2.912,2.912,0,0,1,1.437-2.7Zm-11.721,5.489a10.048,10.048,0,1,1-10.036-10.048,10.048,10.048,0,0,1,10.036,10.048Z" transform="translate(41.627 6.92)" fill="#ebebeb"/>
        <path id="Path_4182" data-name="Path 4182" d="M82.743,344.162l-6.2-10.631-3.184,1.883a2.924,2.924,0,0,1-3.06-.112c-.508-.322-1.041-.632-1.586-.917a2.912,2.912,0,0,1-1.611-2.59V328.08H54.828V331.8a2.912,2.912,0,0,1-1.611,2.59c-.545.285-1.078.595-1.586.917a2.924,2.924,0,0,1-3.06.111l-3.246-1.883-6.2,10.631,3.271,1.871a2.937,2.937,0,0,1,1.524,2.714c0,.3,0,.595,0,.9v.892a2.924,2.924,0,0,1-1.412,2.7l-3.283,1.9,6.2,10.618,3.159-1.846a2.924,2.924,0,0,1,3.06.111c.508.335,1.041.632,1.574.917a2.887,2.887,0,0,1,1.611,2.59v3.717H67.107V367.53a2.887,2.887,0,0,1,1.6-2.627c.533-.285,1.066-.582,1.574-.917a2.924,2.924,0,0,1,3.06-.111l3.259,1.883,6.2-10.618-3.271-1.883a2.9,2.9,0,0,1-1.412-2.7v-1.809a2.937,2.937,0,0,1,1.425-2.713ZM71.01,349.651a10.036,10.036,0,1,1-2.931-7.113,10.048,10.048,0,0,1,2.931,7.113Z" transform="translate(-39.13 36.623)" fill="#ebebeb"/>
        <path id="Path_4183" data-name="Path 4183" d="M151.81,135.246l-108.55-.161s5.4-7.025,11.362-7.893c0,0,11.622-34.432,30.975-34.693,18.053-.124,25.214,21.311,25.214,21.311s8.363-9.59,16.33-5.191,12.44,16.987,12.44,16.987S148.564,130.451,151.81,135.246Z" transform="translate(-38.143 -19.685)" fill="url(#linear-gradient-2)"/>
        <path id="Path_4184" data-name="Path 4184" d="M346,102.843l137.271.211s0-8.772-18.895-10.507c0,0-17.21-38.41-43.576-33.255-16.479,3.184-24.9,25.772-24.9,25.772s-12.39-17.755-22.3-14.335-15.847,22.3-15.847,22.3S347.5,97.887,346,102.843Z" transform="translate(34.218 -27.736)" fill="url(#linear-gradient-2)"/>
        <path id="Path_4185" data-name="Path 4185" d="M157.88,68.236l93.335.149s-8.8-8.215-12.712-8.215-15.289-27.556-29.9-26.4S186.229,55.4,186.229,55.4,168.486,49.812,157.88,68.236Z" transform="translate(-10.747 -33.732)" fill="#457fee"/>
        <path id="Path_4186" data-name="Path 4186" d="M332.66,158.638l79.818.124s-3.965-5.179-8.339-5.823c0,0-8.462-25.35-22.711-25.549-13.245-.186-18.585,15.55-18.585,15.55s-6.121-7.075-11.994-3.853-9.194,12.465-9.194,12.465S335.051,155.095,332.66,158.638Z" transform="translate(31.029 -11.346)" fill="#ebebeb"/>
        <path id="Path_4187" data-name="Path 4187" d="M107.633,351.96l27.023-4.56,23.393-23.814,41.829,43.49L228.821,349.1l20.407,16.59,39.983-43.923,31.471-2.912,33.726-49.92,36.663,36.724,21.646-33.5,13.505-1.933,17.966-33.292L479.276,295l49.065,190.834H44.48Z" transform="translate(-37.851 14.837)" fill="#dbdbdb"/>
        <path id="Path_4188" data-name="Path 4188" d="M99.476,411.35l-.756-.979,40.7-31.744,59.374-5.08.1.025,52.386,13.877,45.831-39.772.173-.037,64.218-9.218,47.839-32.19,22.178-50.6,1.14.508-22.327,50.924-.149.1-48.223,32.45-.149.012-64.169,9.218L251.59,388.824l-.31-.087-52.6-13.939-58.791,5.043Z" transform="translate(-24.887 19.306)" fill="#fff"/>
        <path id="Path_4189" data-name="Path 4189" d="M102.951,381.8a5.6,5.6,0,1,1-5.6-5.6A5.6,5.6,0,0,1,102.951,381.8Z" transform="translate(-26.553 48.125)" fill="#dbdbdb"/>
        <path id="Path_4190" data-name="Path 4190" d="M97.465,388.13a6.2,6.2,0,1,1,6.2-6.2,6.2,6.2,0,0,1-6.2,6.2Zm0-11.151a2.057,2.057,0,1,0,0-.049Z" transform="translate(-26.668 48.015)" fill="#fff"/>
        <path id="Path_4191" data-name="Path 4191" d="M138.231,356.47a5.6,5.6,0,1,1-5.6-5.6,5.6,5.6,0,0,1,5.6,5.6Z" transform="translate(-18.12 42.07)" fill="#dbdbdb"/>
        <path id="Path_4192" data-name="Path 4192" d="M132.745,362.8a6.2,6.2,0,1,1,6.2-6.2A6.2,6.2,0,0,1,132.745,362.8Zm0-11.151a2.057,2.057,0,1,0,0-.05Z" transform="translate(-18.235 41.96)" fill="#fff"/>
        <path id="Path_4193" data-name="Path 4193" d="M186.161,351.7a5.588,5.588,0,1,1-1.632-3.959A5.6,5.6,0,0,1,186.161,351.7Z" transform="translate(-6.664 40.93)" fill="#dbdbdb"/>
        <path id="Path_4194" data-name="Path 4194" d="M180.645,358.03a6.2,6.2,0,1,1,6.2-6.2A6.2,6.2,0,0,1,180.645,358.03Zm0-11.151a2.057,2.057,0,1,0,0-.05Z" transform="translate(-6.786 40.82)" fill="#fff"/>
        <circle id="Ellipse_48" data-name="Ellipse 48" cx="5.6" cy="5.6" r="5.6" transform="translate(220.694 401.973)" fill="#dbdbdb"/>
        <path id="Path_4195" data-name="Path 4195" d="M222.965,370.09a6.2,6.2,0,1,1,6.2-6.2A6.2,6.2,0,0,1,222.965,370.09Zm0-11.151a2.057,2.057,0,1,0,0-.05Z" transform="translate(3.329 43.703)" fill="#fff"/>
        <path id="Path_4196" data-name="Path 4196" d="M265.731,331.98a5.6,5.6,0,1,1-5.6-5.6A5.6,5.6,0,0,1,265.731,331.98Z" transform="translate(12.355 36.217)" fill="#dbdbdb"/>
        <path id="Path_4197" data-name="Path 4197" d="M260.245,338.31a6.2,6.2,0,1,1,6.2-6.2,6.2,6.2,0,0,1-6.2,6.2Zm0-11.151a2.057,2.057,0,1,0,0-.05Z" transform="translate(12.24 36.107)" fill="#fff"/>
        <path id="Path_4198" data-name="Path 4198" d="M317.671,323.625a5.6,5.6,0,1,1-1.627-3.972,5.6,5.6,0,0,1,1.627,3.972Z" transform="translate(24.769 34.214)" fill="#dbdbdb"/>
        <path id="Path_4199" data-name="Path 4199" d="M312.2,329.95a6.2,6.2,0,1,1,6.2-6.2A6.2,6.2,0,0,1,312.2,329.95Zm0-11.151a2.056,2.056,0,1,0,0-.037Z" transform="translate(24.657 34.109)" fill="#fff"/>
        <path id="Path_4200" data-name="Path 4200" d="M356.531,298a5.588,5.588,0,1,1-1.632-3.959A5.6,5.6,0,0,1,356.531,298Z" transform="translate(34.057 28.095)" fill="#dbdbdb"/>
        <path id="Path_4201" data-name="Path 4201" d="M351.055,304.33a6.2,6.2,0,1,1,6.2-6.2A6.2,6.2,0,0,1,351.055,304.33Zm0-11.151a2.057,2.057,0,1,0,0-.05Z" transform="translate(33.945 27.985)" fill="#fff"/>
        <path id="Path_4202" data-name="Path 4202" d="M374.671,256.93a5.588,5.588,0,1,1-1.637-3.964,5.6,5.6,0,0,1,1.637,3.964Z" transform="translate(38.393 18.278)" fill="#dbdbdb"/>
        <path id="Path_4203" data-name="Path 4203" d="M369.2,263.25a6.2,6.2,0,1,1,6.2-6.2A6.2,6.2,0,0,1,369.2,263.25Zm0-11.151a2.056,2.056,0,1,0,0-.037Z" transform="translate(38.281 18.166)" fill="#fff"/>
      </g>
      <g id="freepik--Shadow--inject-3" transform="translate(43.324 542.879)">
        <ellipse id="Ellipse_49" data-name="Ellipse 49" cx="173.871" cy="15.624" rx="173.871" ry="15.624" fill="#ebebeb"/>
      </g>
      <g id="freepik--Bars--inject-3" transform="translate(255.456 234.636)">
        <rect id="Rectangle_264" data-name="Rectangle 264" width="56.809" height="159.363" transform="translate(74.676 140.443)" fill="url(#linear-gradient-4)"/>
        <g id="Group_619" data-name="Group 619" transform="translate(118.475 140.443)" opacity="0.1">
          <rect id="Rectangle_265" data-name="Rectangle 265" width="13.01" height="159.363"/>
        </g>
        <rect id="Rectangle_266" data-name="Rectangle 266" width="56.809" height="219.591" transform="translate(149.525 80.214)" fill="#457fee"/>
        <g id="Group_620" data-name="Group 620" transform="translate(193.312 80.214)" opacity="0.1">
          <rect id="Rectangle_267" data-name="Rectangle 267" width="13.01" height="219.591"/>
        </g>
        <rect id="Rectangle_268" data-name="Rectangle 268" width="56.809" height="123.468" transform="translate(0 176.325)" fill="url(#linear-gradient-5)"/>
        <g id="Group_621" data-name="Group 621" transform="translate(43.799 176.325)" opacity="0.1">
          <rect id="Rectangle_269" data-name="Rectangle 269" width="13.01" height="123.468"/>
        </g>
        <rect id="Rectangle_270" data-name="Rectangle 270" width="56.809" height="299.793" transform="translate(224.361)" fill="url(#linear-gradient-6)"/>
        <g id="Group_622" data-name="Group 622" transform="translate(268.161)" opacity="0.1">
          <rect id="Rectangle_271" data-name="Rectangle 271" width="13.01" height="299.793"/>
        </g>
      </g>
      <g id="freepik--Arrow--inject-3" transform="translate(235.335 188.619)">
        <path id="Path_4204" data-name="Path 4204" d="M197.46,452.753V422.025S404.376,404.418,487.96,175.2l8.314,2.143S440.754,412.286,197.46,452.753Z" transform="translate(-197.46 -154.806)" fill="#37474f"/>
        <path id="Path_4205" data-name="Path 4205" d="M449.933,188.984l-26.143-8.648,21.658-21.6Z" transform="translate(-143.363 -158.74)" fill="#37474f"/>
      </g>
      <g id="freepik--Floor--inject-3" transform="translate(39 533.822)">
        <path id="Path_4206" data-name="Path 4206" d="M39,437.97l65.358-.31,65.358-.1,130.716-.211,130.716.2,65.358.112,65.358.31-65.358.3-65.358.112-130.716.211-130.716-.211-65.358-.112Z" transform="translate(-39 -437.35)" fill="#263238"/>
      </g>
      <g id="freepik--Character--inject-3" transform="translate(64.327 93.956)">
        <path id="Path_4207" data-name="Path 4207" d="M314.964,98.9c3.717,21.063-8.673,43.96-35.733,52.448-24.595,7.719-52.423-5.08-58.544-21.286-6.48-17.173,4.56-33.639,18.4-35.064,13.332-1.425,23.938,5.923,33.8,1.933,4.721-1.92,10.011-8.673,16.863-11.845C297.395,81.558,312.6,85.4,314.964,98.9Z" transform="translate(-21.355 -81.977)" fill="#263238"/>
        <path id="Path_4208" data-name="Path 4208" d="M228.45,138.307a51.816,51.816,0,0,0,23.863,10.358,57.59,57.59,0,0,0,26.019-1.982,49.424,49.424,0,0,0,22.191-13.728,48.768,48.768,0,0,0,11.622-23.244A51.2,51.2,0,0,1,300,132.372a48.076,48.076,0,0,1-10.086,8.078,52.694,52.694,0,0,1-11.833,5.179,62.792,62.792,0,0,1-12.712,2.478A55.756,55.756,0,0,1,239.9,144.39,49.66,49.66,0,0,1,228.45,138.307Z" transform="translate(-19.045 -75.796)" fill="#263238"/>
        <path id="Path_4209" data-name="Path 4209" d="M232.18,94.626a25.586,25.586,0,0,1,7.967-1.165,34.407,34.407,0,0,1,7.955.954c2.627.644,5.278,1.239,7.954,1.71a35.535,35.535,0,0,0,8.19.595,23.542,23.542,0,0,0,4.114-.582,16.257,16.257,0,0,0,3.841-1.648,66.159,66.159,0,0,0,6.629-4.758,31.768,31.768,0,0,1,6.864-4.126,22.3,22.3,0,0,1,7.843-1.722,21.175,21.175,0,0,0-8.029,1.239,32.214,32.214,0,0,0-7.149,3.952c-2.23,1.549-4.337,3.259-6.641,4.572a14.6,14.6,0,0,1-3.618,1.536,21.286,21.286,0,0,1-3.915.508c-5.315.335-10.618-1.016-15.909-2.044a34.544,34.544,0,0,0-8.14-.681A24.223,24.223,0,0,0,232.18,94.626Z" transform="translate(-18.153 -81.973)" fill="#263238"/>
        <path id="Path_4210" data-name="Path 4210" d="M79.483,129.939c2.614-6.059,83.708-9.032,152.647-9.912h.124c31.112-.384,61-3.246,79.83-2.267,11.969.632,18.375,4.956,19.824,6.666,4.622,5.551,13.084,23.355-18.784,45.844-24.111,17.012-51.779,32.214-72.334,58.234s-32.091,58.816-30.629,81.168,17.693,43.688,16.107,41.371c-.5-.719-6.53-.359-14.955-5.241-10.346-6-22.364-18.684-30.492-22.414-16.615-7.608-39.079-6.319-56.623-24.111-18.6-18.684-23.12-51.7-31.954-77.848C81.539,189.672,56.87,182.262,79.483,129.939Z" transform="translate(-56.859 -73.921)" fill="#457fee"/>
        <g id="Group_623" data-name="Group 623" transform="translate(13.383 43.636)" opacity="0.2">
          <path id="Path_4211" data-name="Path 4211" d="M79.483,129.939c2.614-6.059,83.708-9.032,152.647-9.912h.124c31.112-.384,61-3.246,79.83-2.267,11.969.632,18.375,4.956,19.824,6.666,4.622,5.551,13.084,23.355-18.784,45.844-24.111,17.012-51.779,32.214-72.334,58.234s-32.091,58.816-30.629,81.168,17.693,43.688,16.107,41.371c-.5-.719-6.53-.359-14.955-5.241-10.346-6-22.364-18.684-30.492-22.414-16.615-7.608-39.079-6.319-56.623-24.111-18.6-18.684-23.12-51.7-31.954-77.848C81.539,189.672,56.87,182.262,79.483,129.939Z" transform="translate(-70.242 -117.556)" fill="url(#linear-gradient-6)"/>
        </g>
        <path id="Path_4212" data-name="Path 4212" d="M93.67,219.543c-1.177-4.039-2.367-8.016-3.717-11.833A110.9,110.9,0,0,0,79.83,186.647s72.693-18.09,93.893-9.28C185.357,182.174,151.3,185.21,93.67,219.543Z" transform="translate(-54.567 -60.203)" opacity="0.1"/>
        <path id="Path_4213" data-name="Path 4213" d="M174.821,306.379c-4.745-3.9-9.218-7.434-12.873-9.082a81.78,81.78,0,0,0-13.208-4.436c4.671-30.195,9.912-51.048,22.984-64.875C180.038,219.115,159.049,270.027,174.821,306.379Z" transform="translate(-38.097 -47.77)" opacity="0.1"/>
        <path id="Path_4214" data-name="Path 4214" d="M96.685,235.2c-1.078-3.643-2.106-7.323-3.135-11,23.455-9.466,43.366-23.145,43.527-19.948C137.325,207.77,112.061,225.116,96.685,235.2Z" transform="translate(-51.288 -53.312)" opacity="0.1"/>
        <path id="Path_4215" data-name="Path 4215" d="M60.493,197.632s-6.7-29.736,13.728-65.668c1.982-3.494,36.576-18.263,59.7-20.208s40.7,4.956,68.146,8.933,100.5-4.857,118.165-1.09c12.142,2.59,14.1,6.356,14.1,6.356s-14.187-4.485-22.711-4.349c-33.738.545-93.633,18.424-109.343,18.189-19.18-.285-40.541-2.02-56.1,1.722C128.775,145.593,70.678,186.666,60.493,197.632Z" transform="translate(-59.441 -75.388)" fill="#457fee"/>
        <path id="Path_4216" data-name="Path 4216" d="M219.535,379.969c-1.846-2.044-31.706-70.624-31.174-73.982.173-1.239,64.169-20.927,64.169-20.927l17.545,44.53L229.6,338.338s-.322,31.372-1.239,34.977S221.369,382.013,219.535,379.969Z" transform="translate(-28.628 -33.884)" fill="#eb9481"/>
        <path id="Path_4217" data-name="Path 4217" d="M219.5,377.328c-.805-.9-7.025-14.645-13.7-30.059-.434-1.016-.88-2.044-1.313-3.073-1.152-2.627-2.28-5.291-3.407-7.93-.434-1.028-.855-2.057-1.239-3.073h0c-.421-1.016-.855-2.044-1.239-3.036-.657-1.536-1.239-3.048-1.883-4.522-.4-.966-.781-1.92-1.165-2.837h0l-1.1-2.726h0c-.545-1.338-1.053-2.614-1.536-3.841-.335-.818-.657-1.636-.954-2.416-.595-1.512-1.128-2.9-1.574-4.138-.248-.619-.458-1.239-.644-1.747-.483-1.363-.843-2.478-1.041-3.221a3.716,3.716,0,0,1-.211-1.239c0-.446,7.546-3.506,17.346-7.36,1.388,7.285,4.324,20.431,9.912,40.082,9.119,32.3,13.27,19.626,13.741,13.233v1.066c0,.706,0,1.425-.062,2.131s0,1.561,0,2.342c0,1.239-.062,2.577-.124,3.829s-.074,2.478-.136,3.581a14.324,14.324,0,0,1-.087,1.958v.929a7.66,7.66,0,0,1-.074,1.239,18.806,18.806,0,0,1-.173,2.243,2.712,2.712,0,0,1,0,.446,14.2,14.2,0,0,1-.235,1.549C227.321,374.255,221.336,379.36,219.5,377.328Z" transform="translate(-28.596 -31.243)" fill="#263238"/>
        <path id="Path_4218" data-name="Path 4218" d="M236.223,370.767,218.79,319.087s66.114-25.611,67.242-29.959c.446-1.7-42.858-65.048-50.911-89.507C229.768,183.341,243,165.35,243,165.35l47.665,12.787s-2.478,13.629-.88,16.343c15.079,25.016,57.317,94.079,53.352,118.078C339.346,335.529,236.223,370.767,236.223,370.767Z" transform="translate(-21.353 -62.497)" fill="#263238"/>
        <path id="Path_4219" data-name="Path 4219" d="M244.36,334.733c-1.883-6-9.912-30.244-12.18-36.241-.644-1.735-1.239-3.469-1.958-5.179a49.448,49.448,0,0,0-2.106-5.092.1.1,0,0,0-.186.062A45.3,45.3,0,0,0,229.256,293c.458,1.574.954,3.135,1.45,4.7.966,3.085,1.97,6.2,2.974,9.231,1.982,6,8.524,24.78,10.172,27.989C243.988,335.179,244.459,335.043,244.36,334.733Z" transform="translate(-19.169 -33.142)" fill="#37474f"/>
        <path id="Path_4220" data-name="Path 4220" d="M290.216,289.824c-5.7-6.877-46.253-78.058-48.322-82.221a49.448,49.448,0,0,1-4.857-12.068c-1.958-9.28.966-18.945,4.956-27.258a.223.223,0,0,0-.384-.211c-3.99,7.236-6.777,15.463-6.2,23.814a33.453,33.453,0,0,0,3.432,12.217c1.958,4.175,4.126,8.264,6.2,12.39,4.287,8.5,41.086,69.695,44.121,73.573-7.1,3.816-14.212,7.62-21.435,11.151-7.434,3.717-15.017,7.174-22.612,10.581q-6.431,2.875-12.935,5.625c-.186.074-.1.372.087.3a399.758,399.758,0,0,0,45.5-20.382c4.163-2.181,8.326-4.4,12.39-6.753a.508.508,0,0,0,.062-.756Z" transform="translate(-18.178 -61.867)" fill="#37474f"/>
        <path id="Path_4221" data-name="Path 4221" d="M276.722,278.237c-12.266-19.539-38.41-60.154-44.506-78.616-5.353-16.281,7.88-34.271,7.88-34.271l18.35,4.956Z" transform="translate(-18.449 -62.497)" fill="#37474f"/>
        <path id="Path_4222" data-name="Path 4222" d="M184.917,419.7c-2.59-.966-60.712-48.1-61.753-51.308-.434-1.239,5.947-10.073,13.951-20.568l.26-.322c1.648-2.168,33.453-36.2,33.453-36.2l37.394,31.669L175.19,377.5l-.533.62s14.162,27.989,14.967,31.632S187.395,420.668,184.917,419.7Z" transform="translate(-44.215 -27.612)" fill="#eb9481"/>
        <path id="Path_4223" data-name="Path 4223" d="M133.113,345c-6.046,8.091-10.358,14.335-10,15.351,1.1,3.234,59.163,50.316,61.815,51.3s5.526-6.319,4.721-9.912c-.483-2.218-5.935-13.481-10.123-21.943,2.652,5.96,4.7,18.04-18.585-5.154C146.432,360.289,137.846,350.613,133.113,345Z" transform="translate(-44.227 -19.557)" fill="#263238"/>
        <path id="Path_4224" data-name="Path 4224" d="M309.665,178.643s-11.077,25.722-20.109,31.545c0,0-32.859,80.772-43.291,102-13.765,28.027-61.492,92.542-61.492,92.542L139.3,370.171s59.832-74.093,60.6-75.952c4.349-10.569,38.757-88.392,38.633-90.448-1.239-21.063,13.629-40.541,13.629-40.541Z" transform="translate(-40.353 -63.004)" fill="#263238"/>
        <path id="Path_4225" data-name="Path 4225" d="M262.908,201.187a5.774,5.774,0,0,0-1.016,1.933c-.285.644-.557,1.239-.83,1.945-.545,1.239-1.1,2.6-1.635,3.915-1.1,2.713-2.23,5.415-3.358,8.128s-2.255,5.427-3.333,8.153-2.144,5.315-2.986,8.041c0,.1.124.161.173,0a85.667,85.667,0,0,0,3.915-7.843c1.214-2.651,2.391-5.353,3.506-8.054s2.218-5.439,3.3-8.165c.508-1.239.979-2.552,1.462-3.829.248-.657.483-1.326.719-1.995a5.562,5.562,0,0,0,.57-2.106.285.285,0,0,0-.483-.124Z" transform="translate(-13.953 -53.953)" fill="#37474f"/>
        <path id="Path_4226" data-name="Path 4226" d="M279.841,179.083c-3.655,6-7.149,12.08-11.151,17.867-.843,1.239-1.722,2.974-3.073,3.717a1.784,1.784,0,0,1-1.809,0c-.768-.533-.384-1.6-.062-2.267.768-1.6,1.735-3.122,2.59-4.683s1.8-3.308,2.7-4.956c2.007-3.717,3.791-7.434,5.811-11.151.062-.112-.1-.211-.161-.1-2.094,3.618-4.4,7.112-6.5,10.73l-3.246,5.538-1.512,2.652a10.26,10.26,0,0,0-1.165,2.4,2.391,2.391,0,0,0,1.623,3.147,3.717,3.717,0,0,0,3.63-1.474,43.69,43.69,0,0,0,3.135-4.51c1.078-1.648,2.144-3.308,3.147-4.956a94.167,94.167,0,0,0,6.121-11.932C279.952,179.071,279.878,179.021,279.841,179.083Z" transform="translate(-11 -59.602)" fill="#37474f"/>
        <path id="Path_4227" data-name="Path 4227" d="M264.207,196.644c-.9.756-4.349,5.278-4.56,5.526s.5.558.595.458a54.516,54.516,0,0,0,4.4-5.861C264.666,196.694,264.281,196.57,264.207,196.644Z" transform="translate(-11.597 -55.023)" fill="#37474f"/>
        <path id="Path_4228" data-name="Path 4228" d="M269.87,199.85a53.551,53.551,0,0,0-9.169,1.474c-1.5.322-2.986.657-4.473,1.041a34.291,34.291,0,0,0-4.7,1.313.1.1,0,0,0,0,.186,35.168,35.168,0,0,0,4.807-.607c1.462-.211,2.912-.458,4.361-.743a54.037,54.037,0,0,0,9.194-2.218.223.223,0,0,0-.025-.446Z" transform="translate(-13.543 -54.251)" fill="#37474f"/>
        <path id="Path_4229" data-name="Path 4229" d="M186.7,354.536c-4.956-3.878-25.313-19.292-30.591-22.947-1.512-1.053-3.023-2.131-4.547-3.159a50.806,50.806,0,0,0-4.622-3,.1.1,0,0,0-.112.161,43.366,43.366,0,0,0,3.717,3.135c1.239,1.028,2.577,2.032,3.866,3.048,2.478,1.995,5.117,3.952,7.682,5.91,5.043,3.816,21.063,15.624,24.248,17.284C186.7,355.106,186.983,354.735,186.7,354.536Z" transform="translate(-38.562 -24.237)" fill="#37474f"/>
        <path id="Path_4230" data-name="Path 4230" d="M254.831,166.753a52.7,52.7,0,0,0-8.487,16.987,54.231,54.231,0,0,0-1.784,9.231c-.372,3.506-.136,7.112-1.239,10.507a109.642,109.642,0,0,1-4.3,10.2l-4.547,10.408-8.958,20.667-18.04,41.495c-1.437,3.333-2.85,6.678-4.522,9.912a65,65,0,0,1-5.65,8.933c-4.423,5.984-9.156,11.746-13.716,17.619-9.206,11.808-18.461,23.541-27.457,35.535l-3.395,4.535c-.074.1,0,.235.136.136,9.5-11.622,18.784-23.417,28.076-35.225q6.976-8.847,13.889-17.743c2.082-2.676,4.151-5.377,6-8.227a70.732,70.732,0,0,0,5.068-9.454c6.2-13.629,11.994-27.519,17.978-41.272s12.031-27.667,18-41.52a33.019,33.019,0,0,0,3.135-9.615c.359-3.432.372-6.864.966-10.284a58.655,58.655,0,0,1,6.579-18.424c.793-1.425,1.66-2.813,2.565-4.163C255.277,166.791,254.967,166.568,254.831,166.753Z" transform="translate(-37.149 -62.178)" fill="#37474f"/>
        <rect id="Rectangle_272" data-name="Rectangle 272" width="58.383" height="96.371" transform="translate(93.929 202.187) rotate(-70.36)" fill="#455a64"/>
        <rect id="Rectangle_273" data-name="Rectangle 273" width="27.494" height="96.371" transform="translate(104.315 173.086) rotate(-70.36)" fill="#37474f"/>
        <rect id="Rectangle_274" data-name="Rectangle 274" width="100.93" height="27.246" transform="translate(200.2 197.912) rotate(-160.36)" fill="#455a64"/>
        <path id="Path_4231" data-name="Path 4231" d="M179.119,190.1l-5.229,14.633,6.889,2.453,2.974-8.326,26.255,9.379-2.974,8.326,6.889,2.453,5.216-14.645Z" transform="translate(-32.085 -56.581)" fill="#263238"/>
        <rect id="Rectangle_275" data-name="Rectangle 275" width="6.579" height="13.01" transform="translate(184.977 199.378) rotate(-160.36)" fill="#263238"/>
        <rect id="Rectangle_276" data-name="Rectangle 276" width="6.579" height="13.01" transform="translate(122.191 176.996) rotate(-160.36)" fill="#263238"/>
        <path id="Path_4232" data-name="Path 4232" d="M275.649,136.276c15.649,25.437,35.473,48.743,44.6,48.916,12.291.235,38.41-12.39,51.394-20.27,3.8-2.292-14.695-31.57-18.771-29.117-4.956,2.961-30.145,18.722-30.715,18.858-1.239.3-29.588-19.056-36.254-23.851C274.77,122.82,268.711,124.989,275.649,136.276Z" transform="translate(-8.468 -71.895)" fill="#eb9481"/>
        <path id="Path_4233" data-name="Path 4233" d="M375.494,154.175c-4.7,5.712-18.9,13.629-23.046,14.224s-18.424-23.071-16.875-27.1,18.883-22.017,26.267-23.541S380.363,148.252,375.494,154.175Z" transform="translate(6.532 -73.884)" fill="#eb9481"/>
        <path id="Path_4234" data-name="Path 4234" d="M348.253,123.58c-.57,3.878,4.324,2.329,4.324,2.329s-6.5,3.94-5.538,8.165,6.79,1.982,7.211,1.834c-.347.211-6.2,3.99-4.832,8.128s6.976,1.239,7.335,1c-.26.3-3.643,4.337-1.858,7.248,3.073,4.956,11.994-5.092,16.739-5.179,0,0,1.078,8.016,1.152,8.252,0,0,8.673-9.429,8.215-15.822a4.076,4.076,0,0,0-3.444-3.791s3.135-2.738,2.131-6.034c-.52-1.685-3.717-2.367-3.717-2.367a5.13,5.13,0,0,0,1.338-5.167c-.855-2.3-3.891-2.614-3.891-2.614s1.3-3.283-.335-5.353C369.8,110.038,349.492,115.279,348.253,123.58Z" transform="translate(9.277 -75.07)" fill="#eb9481"/>
        <path id="Path_4235" data-name="Path 4235" d="M371.922,118.172a.056.056,0,1,0,0-.112,36.538,36.538,0,0,0-20.667,6.629c-.186.149,0,.508.2.4A74.343,74.343,0,0,1,371.922,118.172Z" transform="translate(10.29 -73.8)" fill="#263238"/>
        <path id="Path_4236" data-name="Path 4236" d="M374.731,124.509c.074,0,.062-.149,0-.149a34.16,34.16,0,0,0-22.092,8.673c-.211.2-.2.582,0,.372C356.976,129.886,367.991,125.624,374.731,124.509Z" transform="translate(10.602 -72.294)" fill="#263238"/>
        <path id="Path_4237" data-name="Path 4237" d="M354.637,141.195c6.009-5.241,13.1-8.041,20.791-9.912.1,0,0-.161,0-.161-4-.136-8.785,1.536-12.39,3.16a20.952,20.952,0,0,0-8.537,6.654C354.364,141.108,354.513,141.306,354.637,141.195Z" transform="translate(11.071 -70.68)" fill="#263238"/>
        <path id="Path_4238" data-name="Path 4238" d="M352.649,123.37a24.409,24.409,0,0,0-3.271,2.912,8.016,8.016,0,0,0-2.106,3.618,2.627,2.627,0,0,0,.285,1.871,3.841,3.841,0,0,0,1.388,1.363,4.659,4.659,0,0,0,3.816.087l3.023-1.115-2.478,2.094a13.12,13.12,0,0,0-2.775,3.246,4.684,4.684,0,0,0-.681,3.779,2.7,2.7,0,0,0,2.726,2.02A8.264,8.264,0,0,0,356.44,142l3.271-1.945-2.478,2.9a12.18,12.18,0,0,0-1.722,2.652,5.043,5.043,0,0,0-.557,2.875,2.478,2.478,0,0,0,1.635,1.958,5.377,5.377,0,0,0,2.974-.335,43.129,43.129,0,0,0,5.923-2.936c.966-.533,1.958-1.078,2.961-1.574a7.905,7.905,0,0,1,3.184-.991,8.425,8.425,0,0,0-3.048,1.239c-.954.558-1.883,1.177-2.813,1.784a35.425,35.425,0,0,1-5.885,3.308,6.3,6.3,0,0,1-3.556.52,3.445,3.445,0,0,1-2.478-2.788,6.2,6.2,0,0,1,.607-3.593,13.825,13.825,0,0,1,1.858-2.986l.83.954a9.243,9.243,0,0,1-4.56,1.549,3.965,3.965,0,0,1-2.478-.793,4.5,4.5,0,0,1-1.437-2.168,5.91,5.91,0,0,1,.867-4.8,14,14,0,0,1,3.1-3.519l.57.979a5.675,5.675,0,0,1-4.721-.347,4.869,4.869,0,0,1-1.623-1.784,3.42,3.42,0,0,1-.273-2.391,8.288,8.288,0,0,1,2.478-3.717,19.828,19.828,0,0,1,3.581-2.689Z" transform="translate(9.168 -72.531)" fill="#263238"/>
        <path id="Path_4239" data-name="Path 4239" d="M337.5,138.234s8.8-30.133,18.9-20.927c3,2.738,12.043,17.557,9.107,19.428-3.8,2.478-8.735-3.048-11.287-6.988,0,0-1.549,10.68-9.293,11.808A7.769,7.769,0,0,1,337.5,138.234Z" transform="translate(7.02 -74.398)" fill="#eb9481"/>
        <path id="Path_4240" data-name="Path 4240" d="M353.714,116.4a16.5,16.5,0,0,1,3.444,3.321,39.242,39.242,0,0,1,2.775,3.915,55.847,55.847,0,0,1,4.411,8.562,9.086,9.086,0,0,1,.619,2.478,3.334,3.334,0,0,1-.174,1.45,2.329,2.329,0,0,1-.991,1.239,4.027,4.027,0,0,1-2.738.545,7.706,7.706,0,0,1-2.478-.892,14.611,14.611,0,0,1-3.717-3.246,32.221,32.221,0,0,1-2.874-3.9l1.016-.235a20.013,20.013,0,0,1-1,3.544,17.926,17.926,0,0,1-1.635,3.271,12.675,12.675,0,0,1-2.4,2.738,9.577,9.577,0,0,1-3.135,1.759,10.481,10.481,0,0,0,2.862-2.044,12.85,12.85,0,0,0,2.069-2.825,17.814,17.814,0,0,0,1.388-3.2,19.269,19.269,0,0,0,.756-3.383l.161-1.425.855,1.239a34.809,34.809,0,0,0,2.887,3.717,14,14,0,0,0,3.457,2.924,3.965,3.965,0,0,0,3.841.4c.954-.508.57-2.218.074-3.618a46.475,46.475,0,0,0-1.821-4.324c-.682-1.425-1.363-2.85-2.119-4.237a30.838,30.838,0,0,0-5.526-7.769Z" transform="translate(8.772 -74.197)" fill="#263238"/>
        <path id="Path_4241" data-name="Path 4241" d="M334.718,146.476,349.45,179.5s-23.863,8.413-31.645,5.662-29.736-25.945-40.206-43.923-4.3-20.332,12.985-8.178,30.975,20.692,31.483,20.469S334.718,146.476,334.718,146.476Z" transform="translate(-8.523 -72.022)" fill="#ebebeb"/>
        <path id="Path_4242" data-name="Path 4242" d="M318.846,146.368c0-.1-.211,0-.186.074a284.009,284.009,0,0,0,10.916,28.795c0,.1.223,0,.186-.074a281.106,281.106,0,0,0-10.916-28.795Z" transform="translate(2.517 -67.044)" fill="#263238"/>
        <path id="Path_4243" data-name="Path 4243" d="M304.62,174.986c-9.293-9.045-20.444-22.439-27.023-33.751-8.462-14.546-6.034-18.87,4.374-13.53Z" transform="translate(-8.521 -72.021)" fill="#c7c7c7"/>
        <path id="Path_4244" data-name="Path 4244" d="M291,179.943l-2.478,19.341s-40.491-4.039-61.356-21.869c0,0,22.3-44.691,44.914-54.281,11.325-4.807,19.961-.149,23.021,8.19.781,2.106,9.478,25.722,7.36,35.2C300.631,174.875,291,179.943,291,179.943Z" transform="translate(-19.35 -73.051)" fill="#ebebeb"/>
        <path id="Path_4245" data-name="Path 4245" d="M280.417,132.709l-.074-.347v-.136s.074-.062.087,0l.087.161c.087.223.173.446.248.669.149.446.273.9.4,1.363.248.9.471,1.834.681,2.751.421,1.846.706,3.717.966,5.588a63.189,63.189,0,0,1,.508,11.349,39.859,39.859,0,0,1-2.032,11.225,22.475,22.475,0,0,1-6.084,9.627l.087-.136c-1.14,3.407-2.329,6.79-3.531,10.172l-1.834,5.055a52.607,52.607,0,0,1-2.032,4.956c.719-1.648,1.239-3.358,1.834-5.055l1.685-5.1,3.246-10.247v-.074l.062-.062a23.789,23.789,0,0,0,5.489-9.5,46.553,46.553,0,0,0,1.908-10.941,82.506,82.506,0,0,0-.173-11.151c-.149-1.859-.4-3.717-.644-5.576-.124-.942-.273-1.859-.434-2.788l-.285-1.375a2.6,2.6,0,0,0-.161-.681,1.118,1.118,0,0,0,0-.161v.421Z" transform="translate(-9.618 -70.421)" fill="#263238"/>
        <path id="Path_4246" data-name="Path 4246" d="M288,148.1l-.149-.607a15.063,15.063,0,0,0-.1-2.367,14.623,14.623,0,0,0-.669-2.8c0-.062-.1,0-.087,0a26.875,26.875,0,0,1,.595,4,55.23,55.23,0,0,0-2.54-8.054.062.062,0,1,0-.124,0c.818,3.271,1.685,6.53,2.379,9.825s1.239,6.6,1.809,9.912c0,.124.223.087.211,0A55.87,55.87,0,0,0,288,148.1Z" transform="translate(-5.545 -68.984)" fill="#263238"/>
        <path id="Path_4247" data-name="Path 4247" d="M278.238,140.447A1.239,1.239,0,1,1,277,139.27,1.239,1.239,0,0,1,278.238,140.447Z" transform="translate(-7.736 -68.731)" fill="#263238"/>
        <circle id="Ellipse_50" data-name="Ellipse 50" cx="1.189" cy="1.189" r="1.189" transform="translate(268.408 81.852)" fill="#263238"/>
        <circle id="Ellipse_51" data-name="Ellipse 51" cx="1.189" cy="1.189" r="1.189" transform="translate(261.791 101.664)" fill="#263238"/>
        <circle id="Ellipse_52" data-name="Ellipse 52" cx="1.189" cy="1.189" r="1.189" transform="translate(258.272 112.108)" fill="#263238"/>
        <circle id="Ellipse_53" data-name="Ellipse 53" cx="1.189" cy="1.189" r="1.189" transform="translate(266.933 91.999)" fill="#263238"/>
        <path id="Path_4248" data-name="Path 4248" d="M274.571,121c-29.451.112-52.534,6.369-57.887,13.072-4.423,5.526-18.127,29.736-23.913,44.481-1.623,4.138,31.409,18.945,32.586,14.335,1.834-7.137,16.875-41.693,17.036-42.251.322-1.239,29.9-13.369,37.456-16.107C293.714,129.314,290.183,120.9,274.571,121Z" transform="translate(-27.586 -73.098)" fill="#eb9481"/>
        <path id="Path_4249" data-name="Path 4249" d="M207.1,220.933a5.291,5.291,0,0,1-4.436-4.114,7.831,7.831,0,0,1-5.315.57c-3.1-.9-3.036-6.2-3.036-6.2a9.714,9.714,0,0,1-5.7-.285c-2.887-1.177-3.568-6.5-3.568-6.5A8.487,8.487,0,0,1,180.189,201c-2.912-4.609.719-12.118,2.974-16.913s13.146-16.293,14.992-18.684l30.975,14.212s-4,24.384-7.434,29.65C218.7,213.7,211.189,221.342,207.1,220.933Z" transform="translate(-30.839 -62.485)" fill="#eb9481"/>
        <path id="Path_4250" data-name="Path 4250" d="M198.647,209.6c4.225-3.965,7.05-8.97,10.148-13.8.062-.112-.1-.223-.173-.112-3.023,4.845-6.976,9.032-10.185,13.741a.136.136,0,1,0,.211.173Z" transform="translate(-26.226 -55.257)" fill="#263238"/>
        <path id="Path_4251" data-name="Path 4251" d="M191.828,205.272a15.04,15.04,0,0,0,2.193-3.283c.694-1.239,1.363-2.478,2.02-3.717,1.313-2.478,2.577-4.956,3.717-7.533,0-.112-.112-.211-.173-.1-1.313,2.478-2.652,4.956-4.076,7.323-.706,1.239-1.425,2.4-2.144,3.606a17.5,17.5,0,0,0-1.908,3.469.22.22,0,1,0,.372.235Z" transform="translate(-27.895 -56.464)" fill="#263238"/>
        <path id="Path_4252" data-name="Path 4252" d="M183.962,199.394a10.445,10.445,0,0,0,1.821-3.06c.582-1.14,1.152-2.28,1.747-3.42,1.239-2.267,2.342-4.535,3.606-6.765a.1.1,0,1,0-.173-.1c-1.239,2.255-2.6,4.485-3.866,6.765-.62,1.1-1.239,2.23-1.846,3.345a10.158,10.158,0,0,0-1.4,3.184S183.924,199.431,183.962,199.394Z" transform="translate(-29.705 -57.561)" fill="#263238"/>
        <path id="Path_4253" data-name="Path 4253" d="M231.7,176.668l-33.28-16.417s11.04-24.892,17.743-29.736S251.4,120.6,272.179,120.8c21.125.211,21.993,8.549,2.143,15.773s-32.611,13.8-32.722,14.36S231.7,176.668,231.7,176.668Z" transform="translate(-26.222 -73.146)" fill="#ebebeb"/>
        <path id="Path_4254" data-name="Path 4254" d="M226.807,169.229c1.45-3.469,8.227-21.7,8.45-21.844.471-.3,8.066-3.99,10.321-5.092,1.908-.929,3.841-1.821,5.774-2.713a42.045,42.045,0,0,0,4.882-1.239.1.1,0,0,0,0-.186,25.774,25.774,0,0,0-3.37.681l6.356-2.912v-.074c-4.795,1.673-24.446,10.4-24.483,10.693s-8.054,21.869-8.1,22.3C226.547,169.081,226.77,169.329,226.807,169.229Z" transform="translate(-19.483 -69.548)" fill="#263238"/>
        <path id="Path_4255" data-name="Path 4255" d="M230.662,161.179c.112,0,.186-.136.087-.186A281.185,281.185,0,0,0,202.9,147.86c-.112,0-.186.124-.087.186a285.357,285.357,0,0,0,27.853,13.134Z" transform="translate(-25.184 -66.677)" fill="#263238"/>
        <path id="Path_4256" data-name="Path 4256" d="M271.37,126.381c0,1.239,3.717,10.42,9.194,11.548,1.8.359,4.213-9.33,4.213-9.33l.347-.669,4.783-9.454-9.85-10.532-1.45-1.425s-1.128,2.664-2.478,6.009c-.062.149-.136.3-.2.471s-.161.359-.235.545c-.211.5-.434.991-.632,1.512s-.31.756-.458,1.239l-.471,1.239a70.766,70.766,0,0,0-2.763,8.847Z" transform="translate(-8.786 -76.558)" fill="#eb9481"/>
        <path id="Path_4257" data-name="Path 4257" d="M275.18,112.529a21.237,21.237,0,0,0,9.032,15.4L289,118.477l-9.85-10.532-1.45-1.425S276.568,109.184,275.18,112.529Z" transform="translate(-7.875 -76.558)" fill="#263238"/>
        <path id="Path_4258" data-name="Path 4258" d="M306.5,104.968c3.717,18.2-6.765,22.488-10.68,23.281-3.568.731-15.8,2.751-21.385-14.98s1.71-25.2,9.776-27.258S302.788,86.767,306.5,104.968Z" transform="translate(-8.522 -81.598)" fill="#eb9481"/>
        <path id="Path_4259" data-name="Path 4259" d="M295.856,109.486a5.439,5.439,0,0,1-1.636,2.168,2.478,2.478,0,0,1-1.4.471c-1.09,0-1.375-.929-1.4-1.784a5.859,5.859,0,0,1,.124-1.351,6.976,6.976,0,0,0,4.312.5Z" transform="translate(-3.994 -75.968)" fill="#263238"/>
        <path id="Path_4260" data-name="Path 4260" d="M294.23,111.407a2.478,2.478,0,0,1-1.4.471c-1.09,0-1.375-.929-1.4-1.784A2.478,2.478,0,0,1,294.23,111.407Z" transform="translate(-3.991 -75.721)" fill="#ff9bbc"/>
        <path id="Path_4261" data-name="Path 4261" d="M296.945,97.949a11.145,11.145,0,0,1-1.239,0,2.044,2.044,0,0,1-1.3-.26.644.644,0,0,1-.161-.793,1.611,1.611,0,0,1,1.5-.694,2.478,2.478,0,0,1,1.66.533.719.719,0,0,1-.458,1.214Z" transform="translate(-3.336 -79.027)" fill="#263238"/>
        <path id="Path_4262" data-name="Path 4262" d="M287.15,101.31a8.589,8.589,0,0,0,1.239-.149,2.082,2.082,0,0,0,1.239-.4.669.669,0,0,0,.074-.805,1.66,1.66,0,0,0-1.574-.533,2.478,2.478,0,0,0-1.586.719.706.706,0,0,0,.607,1.165Z" transform="translate(-5.2 -78.262)" fill="#263238"/>
        <path id="Path_4263" data-name="Path 4263" d="M289.927,103.79s-.074.087-.062.136c.322,1.239.483,2.676-.545,3.345v.062C290.671,106.826,290.435,104.905,289.927,103.79Z" transform="translate(-4.495 -77.211)" fill="#263238"/>
        <path id="Path_4264" data-name="Path 4264" d="M288.92,103c-2.02.3-1.239,4.312.607,4.027S290.6,102.693,288.92,103Z" transform="translate(-4.876 -77.403)" fill="#263238"/>
        <path id="Path_4265" data-name="Path 4265" d="M288.527,103.258c-.31.285-.57.756-.991.88s-.929-.211-1.326-.558h0c.124.768.57,1.5,1.425,1.462s1.177-.818,1.239-1.636C288.812,103.32,288.651,103.134,288.527,103.258Z" transform="translate(-5.239 -77.348)" fill="#263238"/>
        <path id="Path_4266" data-name="Path 4266" d="M295.26,102.4s.111,0,.111.087c.186,1.239.62,2.664,1.809,2.875h0C295.781,105.485,295.235,103.614,295.26,102.4Z" transform="translate(-3.076 -77.543)" fill="#263238"/>
        <path id="Path_4267" data-name="Path 4267" d="M296.174,101.2c1.97-.52,2.85,3.469,1.028,3.94S294.476,101.62,296.174,101.2Z" transform="translate(-3.073 -77.841)" fill="#263238"/>
        <path id="Path_4268" data-name="Path 4268" d="M296.723,101.374c.359.136.756.458,1.14.4s.669-.57.855-1.041h.074c.186.756.112,1.611-.595,1.92s-1.239-.273-1.623-.991C296.513,101.56,296.575,101.312,296.723,101.374Z" transform="translate(-2.767 -77.942)" fill="#263238"/>
        <path id="Path_4269" data-name="Path 4269" d="M291.087,112c.347.248.706.607,1.165.582a3.433,3.433,0,0,0,1.3-.508h.062a1.747,1.747,0,0,1-1.5.9A1.351,1.351,0,0,1,291,112,.074.074,0,0,1,291.087,112Z" transform="translate(-4.094 -75.251)" fill="#263238"/>
        <path id="Path_4270" data-name="Path 4270" d="M295.595,109.576s.632,1.8.805,2.676c0,.087-.186.161-.483.235h0a4.237,4.237,0,0,1-4.349-.743.089.089,0,1,1,.1-.149,6.307,6.307,0,0,0,4.014.322c0-.248-1.177-3.048-1.041-3.085a7.83,7.83,0,0,1,2.069,0c-1.239-3.717-3-7.347-4.138-11.151,0-.136.161-.223.223-.112a64.777,64.777,0,0,1,4.956,11.82C297.911,109.948,295.979,109.65,295.595,109.576Z" transform="translate(-3.968 -78.71)" fill="#263238"/>
        <path id="Path_4271" data-name="Path 4271" d="M276.769,116.252c3.073-.57,2.082-7.038,2.082-7.038s6.108-1.611,5.8-10.916a14.05,14.05,0,0,1-.781,7.967s10.457-3.99,12.588-14.2c0,0-.582,5.068-1.846,7.149a13.022,13.022,0,0,0,5.4-6.7s3.271,4.7,5.092,5.737c0,0-.595-9.763-5.786-13.419-10.953-7.694-21.559,4.882-21.559,4.882s-7.038,3.259-8.054,9.54C268.145,108.942,276.769,116.252,276.769,116.252Z" transform="translate(-9.229 -82.338)" fill="#263238"/>
        <path id="Path_4272" data-name="Path 4272" d="M278.6,109.11s-4.436-5.514-6.963-3.9,1.078,9.813,4.237,10.742a3.135,3.135,0,0,0,4.089-1.958Z" transform="translate(-8.926 -76.943)" fill="#eb9481"/>
        <path id="Path_4273" data-name="Path 4273" d="M272.35,107v.074c2.23.731,3.494,2.664,4.436,4.683a1.747,1.747,0,0,0-2.627-.3.074.074,0,0,0,.074.112,1.945,1.945,0,0,1,2.168.533,10.184,10.184,0,0,1,1.128,1.648c.112.186.458,0,.372-.161h0C277.727,110.829,275.324,107.112,272.35,107Z" transform="translate(-8.552 -76.444)" fill="#263238"/>
        <path id="Path_4274" data-name="Path 4274" d="M285.3,125.518l-5.167,7.2L272.7,120.19l-3.606,2.552s5.8,18.437,6.034,17.73l4.956-6.084,3.593,5.947,2.552-12.13Z" transform="translate(-9.331 -73.291)" fill="#ebebeb"/>
        <path id="Path_4275" data-name="Path 4275" d="M285.221,133.739c.347-2.02.768-4.039,1.028-6.071,0,0-.1-.124-.136,0-.867,1.821-2.181,9.54-2.627,11.362h0c-.149-.26-3.383-5.3-3.444-5.241-.979.917-4.622,5.34-4.894,5.761-.917-2.936-4.535-13.629-5.761-16.5,0-.074-.161,0-.136,0,.694,3.036,5.439,17.421,5.563,17.421a80.438,80.438,0,0,0,5.229-6.443,53.7,53.7,0,0,0,3.717,6.319,66.083,66.083,0,0,0,1.462-6.6Z" transform="translate(-9.293 -72.616)" fill="#263238"/>
        <path id="Path_4276" data-name="Path 4276" d="M272.836,120.326c-.892-2.106-3.3,2.329-1.388,4.956,2.825,3.816,8.165,8.339,9.342,8.363s4.956-4.7,5.439-5.724-.582-3.333-.954-3.11-3.643,5.241-4.1,5.476S274.781,124.849,272.836,120.326Z" transform="translate(-8.939 -73.39)" fill="#ffc727"/>
      </g>
      <g id="freepik--Coins--inject-3" transform="translate(53.965 477.707)">
        <rect id="Rectangle_277" data-name="Rectangle 277" width="56.053" height="12.39" transform="translate(39.961 61.827)" fill="#ffc727"/>
        <g id="Group_624" data-name="Group 624" transform="translate(41.655 62.954)" opacity="0.1">
          <path id="Path_4277" data-name="Path 4277" d="M85.32,442.87a20.134,20.134,0,0,1,0,9.912,17.346,17.346,0,0,1-.619-4.956,17.94,17.94,0,0,1,.619-4.956Z" transform="translate(-84.697 -442.87)"/>
          <path id="Path_4278" data-name="Path 4278" d="M88.69,442.87a20.134,20.134,0,0,1,0,9.912,20.134,20.134,0,0,1,0-9.912Z" transform="translate(-83.891 -442.87)"/>
          <path id="Path_4279" data-name="Path 4279" d="M90.33,442.87a20.134,20.134,0,0,1,0,9.912,20.134,20.134,0,0,1,0-9.912Z" transform="translate(-83.499 -442.87)"/>
          <path id="Path_4280" data-name="Path 4280" d="M99.37,442.87a20.134,20.134,0,0,1,0,9.912,20.134,20.134,0,0,1,0-9.912Z" transform="translate(-81.338 -442.87)"/>
          <path id="Path_4281" data-name="Path 4281" d="M101.81,442.87a17.94,17.94,0,0,1,.619,4.956,17.346,17.346,0,0,1-.62,4.956A20.134,20.134,0,0,1,101.81,442.87Z" transform="translate(-80.755 -442.87)"/>
          <path id="Path_4282" data-name="Path 4282" d="M111.92,442.87a18.424,18.424,0,0,1,.619,4.956,17.83,17.83,0,0,1-.619,4.956,17.346,17.346,0,0,1-.62-4.956,17.941,17.941,0,0,1,.619-4.956Z" transform="translate(-78.339 -442.87)"/>
          <path id="Path_4283" data-name="Path 4283" d="M114.25,442.87a20.134,20.134,0,0,1,0,9.912A20.134,20.134,0,0,1,114.25,442.87Z" transform="translate(-77.782 -442.87)"/>
          <path id="Path_4284" data-name="Path 4284" d="M118.54,442.87a17.94,17.94,0,0,1,.619,4.956,17.346,17.346,0,0,1-.619,4.956,17.83,17.83,0,0,1-.619-4.956A18.424,18.424,0,0,1,118.54,442.87Z" transform="translate(-76.757 -442.87)"/>
          <path id="Path_4285" data-name="Path 4285" d="M109.97,442.87a20.134,20.134,0,0,1,0,9.912,20.134,20.134,0,0,1,0-9.912Z" transform="translate(-78.805 -442.87)"/>
          <path id="Path_4286" data-name="Path 4286" d="M93.32,442.87a18.424,18.424,0,0,1,.62,4.956,17.83,17.83,0,0,1-.619,4.956,17.346,17.346,0,0,1-.62-4.956,17.941,17.941,0,0,1,.619-4.956Z" transform="translate(-82.785 -442.87)"/>
          <path id="Path_4287" data-name="Path 4287" d="M105.03,442.87a20.134,20.134,0,0,1,0,9.912,20.134,20.134,0,0,1,0-9.912Z" transform="translate(-79.985 -442.87)"/>
          <path id="Path_4288" data-name="Path 4288" d="M106.71,442.87a17.939,17.939,0,0,1,.619,4.956,17.346,17.346,0,0,1-.619,4.956A20.134,20.134,0,0,1,106.71,442.87Z" transform="translate(-79.584 -442.87)"/>
          <path id="Path_4289" data-name="Path 4289" d="M124.12,442.87a18.424,18.424,0,0,1,.62,4.956,17.348,17.348,0,0,1-.62,4.956,17.829,17.829,0,0,1-.62-4.956A18.425,18.425,0,0,1,124.12,442.87Z" transform="translate(-75.423 -442.87)"/>
          <path id="Path_4290" data-name="Path 4290" d="M126.66,442.87a20.134,20.134,0,0,1,0,9.912,20.134,20.134,0,0,1,0-9.912Z" transform="translate(-74.815 -442.87)"/>
          <path id="Path_4291" data-name="Path 4291" d="M120.53,442.87a17.94,17.94,0,0,1,.619,4.956,17.346,17.346,0,0,1-.619,4.956,20.133,20.133,0,0,1,0-9.912Z" transform="translate(-76.281 -442.87)"/>
          <path id="Path_4292" data-name="Path 4292" d="M97.42,442.87a20.134,20.134,0,0,1,0,9.912,20.134,20.134,0,0,1,0-9.912Z" transform="translate(-81.804 -442.87)"/>
        </g>
        <path id="Path_4293" data-name="Path 4293" d="M139.383,441.96v2.627L83.33,446.359v-4.4Z" transform="translate(-43.369 -380.133)" opacity="0.1"/>
        <rect id="Rectangle_278" data-name="Rectangle 278" width="56.053" height="12.39" transform="translate(36.132 49.437)" fill="#ffc727"/>
        <g id="Group_625" data-name="Group 625" transform="translate(37.817 50.577)" opacity="0.1">
          <path id="Path_4294" data-name="Path 4294" d="M82.22,432.88a20.134,20.134,0,0,1,0,9.912,20.134,20.134,0,0,1,0-9.912Z" transform="translate(-81.6 -432.88)"/>
          <path id="Path_4295" data-name="Path 4295" d="M85.59,432.88a20.134,20.134,0,0,1,0,9.912,20.134,20.134,0,0,1,0-9.912Z" transform="translate(-80.795 -432.88)"/>
          <path id="Path_4296" data-name="Path 4296" d="M87.24,432.88a18.362,18.362,0,0,1,.62,4.956,17.941,17.941,0,0,1-.619,4.956,17.482,17.482,0,0,1-.62-4.956,17.878,17.878,0,0,1,.62-4.956Z" transform="translate(-80.401 -432.88)"/>
          <path id="Path_4297" data-name="Path 4297" d="M96.27,432.88a20.134,20.134,0,0,1,0,9.912,20.134,20.134,0,0,1,0-9.912Z" transform="translate(-78.242 -432.88)"/>
          <path id="Path_4298" data-name="Path 4298" d="M98.72,432.88a20.134,20.134,0,0,1,0,9.912,17.483,17.483,0,0,1-.619-4.956,17.879,17.879,0,0,1,.62-4.956Z" transform="translate(-77.657 -432.88)"/>
          <path id="Path_4299" data-name="Path 4299" d="M108.82,432.88a20.134,20.134,0,0,1,0,9.912,20.134,20.134,0,0,1,0-9.912Z" transform="translate(-75.242 -432.88)"/>
          <path id="Path_4300" data-name="Path 4300" d="M111.12,432.88a18.362,18.362,0,0,1,.619,4.956,17.482,17.482,0,0,1-.619,4.956,17.483,17.483,0,0,1-.62-4.956A18.362,18.362,0,0,1,111.12,432.88Z" transform="translate(-74.693 -432.88)"/>
          <path id="Path_4301" data-name="Path 4301" d="M115.45,432.88a20.134,20.134,0,0,1,0,9.912,20.134,20.134,0,0,1,0-9.912Z" transform="translate(-73.657 -432.88)"/>
          <path id="Path_4302" data-name="Path 4302" d="M106.87,432.88a20.134,20.134,0,0,1,0,9.912,20.134,20.134,0,0,1,0-9.912Z" transform="translate(-75.708 -432.88)"/>
          <path id="Path_4303" data-name="Path 4303" d="M90.23,432.88a20.134,20.134,0,0,1,0,9.912,20.134,20.134,0,0,1,0-9.912Z" transform="translate(-79.685 -432.88)"/>
          <path id="Path_4304" data-name="Path 4304" d="M101.93,432.88a20.134,20.134,0,0,1,0,9.912,20.134,20.134,0,0,1,0-9.912Z" transform="translate(-76.889 -432.88)"/>
          <path id="Path_4305" data-name="Path 4305" d="M103.62,432.88a20.134,20.134,0,0,1,0,9.912,17.482,17.482,0,0,1-.62-4.956,17.878,17.878,0,0,1,.62-4.956Z" transform="translate(-76.486 -432.88)"/>
          <path id="Path_4306" data-name="Path 4306" d="M121.04,432.88a20.134,20.134,0,0,1,0,9.912,20.134,20.134,0,0,1,0-9.912Z" transform="translate(-72.321 -432.88)"/>
          <path id="Path_4307" data-name="Path 4307" d="M123.56,432.88a20.134,20.134,0,0,1,0,9.912,20.134,20.134,0,0,1,0-9.912Z" transform="translate(-71.719 -432.88)"/>
          <path id="Path_4308" data-name="Path 4308" d="M117.44,432.88a20.134,20.134,0,0,1,0,9.912,17.484,17.484,0,0,1-.619-4.956,17.878,17.878,0,0,1,.619-4.956Z" transform="translate(-73.182 -432.88)"/>
          <path id="Path_4309" data-name="Path 4309" d="M94.32,432.88a17.879,17.879,0,0,1,.62,4.956,17.482,17.482,0,0,1-.619,4.956,17.94,17.94,0,0,1-.62-4.956,18.362,18.362,0,0,1,.62-4.956Z" transform="translate(-78.708 -432.88)"/>
        </g>
        <path id="Path_4310" data-name="Path 4310" d="M136.281,431.96V434.6L80.24,436.359v-4.4Z" transform="translate(-44.108 -382.523)" opacity="0.1"/>
        <rect id="Rectangle_279" data-name="Rectangle 279" width="56.053" height="12.39" transform="translate(44.793 24.768)" fill="#ffc727"/>
        <g id="Group_626" data-name="Group 626" transform="translate(46.478 25.945)" opacity="0.1">
          <path id="Path_4311" data-name="Path 4311" d="M89.21,413a20.134,20.134,0,0,1,0,9.912,20.134,20.134,0,0,1,0-9.912Z" transform="translate(-88.59 -413)"/>
          <path id="Path_4312" data-name="Path 4312" d="M92.58,413a17.88,17.88,0,0,1,.62,4.956,17.483,17.483,0,0,1-.62,4.956,20.134,20.134,0,0,1,0-9.912Z" transform="translate(-87.785 -413)"/>
          <path id="Path_4313" data-name="Path 4313" d="M94.23,413a20.134,20.134,0,0,1,0,9.912,17.484,17.484,0,0,1-.619-4.956A17.88,17.88,0,0,1,94.23,413Z" transform="translate(-87.391 -413)"/>
          <path id="Path_4314" data-name="Path 4314" d="M103.26,413a20.134,20.134,0,0,1,0,9.912,20.134,20.134,0,0,1,0-9.912Z" transform="translate(-85.232 -413)"/>
          <path id="Path_4315" data-name="Path 4315" d="M105.71,413a20.134,20.134,0,0,1,0,9.912,20.134,20.134,0,0,1,0-9.912Z" transform="translate(-84.646 -413)"/>
          <path id="Path_4316" data-name="Path 4316" d="M115.81,413a20.134,20.134,0,0,1,0,9.912,20.134,20.134,0,0,1,0-9.912Z" transform="translate(-82.232 -413)"/>
          <path id="Path_4317" data-name="Path 4317" d="M118.12,413a20.134,20.134,0,0,1,0,9.912,17.483,17.483,0,0,1-.62-4.956,17.88,17.88,0,0,1,.62-4.956Z" transform="translate(-81.681 -413)"/>
          <path id="Path_4318" data-name="Path 4318" d="M122.44,413a20.134,20.134,0,0,1,0,9.912,20.134,20.134,0,0,1,0-9.912Z" transform="translate(-80.647 -413)"/>
          <path id="Path_4319" data-name="Path 4319" d="M113.86,413a17.879,17.879,0,0,1,.62,4.956,17.483,17.483,0,0,1-.62,4.956,17.941,17.941,0,0,1-.62-4.956A18.363,18.363,0,0,1,113.86,413Z" transform="translate(-82.699 -413)"/>
          <path id="Path_4320" data-name="Path 4320" d="M97.21,413a20.134,20.134,0,0,1,0,9.912,20.134,20.134,0,0,1,0-9.912Z" transform="translate(-86.678 -413)"/>
          <path id="Path_4321" data-name="Path 4321" d="M108.92,413a20.134,20.134,0,0,1,0,9.912,20.134,20.134,0,0,1,0-9.912Z" transform="translate(-83.879 -413)"/>
          <path id="Path_4322" data-name="Path 4322" d="M110.61,413a20.134,20.134,0,0,1,0,9.912,20.134,20.134,0,0,1,0-9.912Z" transform="translate(-83.475 -413)"/>
          <path id="Path_4323" data-name="Path 4323" d="M128.03,413a20.53,20.53,0,0,1,0,9.912,20.134,20.134,0,0,1,0-9.912Z" transform="translate(-79.311 -413)"/>
          <path id="Path_4324" data-name="Path 4324" d="M130.549,413a17.879,17.879,0,0,1,.62,4.956,17.482,17.482,0,0,1-.62,4.956,20.134,20.134,0,0,1,0-9.912Z" transform="translate(-78.709 -413)"/>
          <path id="Path_4325" data-name="Path 4325" d="M124.43,413a20.134,20.134,0,0,1,0,9.912,20.134,20.134,0,0,1,0-9.912Z" transform="translate(-80.172 -413)"/>
          <path id="Path_4326" data-name="Path 4326" d="M101.31,413a18.361,18.361,0,0,1,.62,4.956,17.482,17.482,0,0,1-.619,4.956,17.941,17.941,0,0,1-.62-4.956,18.363,18.363,0,0,1,.62-4.956Z" transform="translate(-85.698 -413)"/>
        </g>
        <path id="Path_4327" data-name="Path 4327" d="M143.271,412.06v2.627L87.23,416.459v-4.4Z" transform="translate(-42.437 -387.28)" opacity="0.1"/>
        <rect id="Rectangle_280" data-name="Rectangle 280" width="56.053" height="12.39" transform="translate(43.38 12.39)" fill="#ffc727"/>
        <g id="Group_627" data-name="Group 627" transform="translate(45.125 13.555)" opacity="0.1">
          <path id="Path_4328" data-name="Path 4328" d="M129.41,412.912a18.3,18.3,0,0,1-.62-4.956,17.485,17.485,0,0,1,.62-4.956,17.484,17.484,0,0,1,.62,4.956,18.3,18.3,0,0,1-.62,4.956Z" transform="translate(-77.629 -403)"/>
          <path id="Path_4329" data-name="Path 4329" d="M126.04,412.912a18.3,18.3,0,0,1-.619-4.956A17.941,17.941,0,0,1,126.04,403a17.483,17.483,0,0,1,.62,4.956A17.829,17.829,0,0,1,126.04,412.912Z" transform="translate(-78.435 -403)"/>
          <path id="Path_4330" data-name="Path 4330" d="M124.387,412.912a20.53,20.53,0,0,1,0-9.912,20.134,20.134,0,0,1,0,9.912Z" transform="translate(-78.826 -403)"/>
          <path id="Path_4331" data-name="Path 4331" d="M115.36,412.912a18.3,18.3,0,0,1-.62-4.956A17.94,17.94,0,0,1,115.36,403a17.483,17.483,0,0,1,.62,4.956,18.3,18.3,0,0,1-.62,4.956Z" transform="translate(-80.987 -403)"/>
          <path id="Path_4332" data-name="Path 4332" d="M112.92,412.912a20.134,20.134,0,0,1,0-9.912A20.134,20.134,0,0,1,112.92,412.912Z" transform="translate(-81.57 -403)"/>
          <path id="Path_4333" data-name="Path 4333" d="M102.81,412.912a18.3,18.3,0,0,1-.62-4.956,17.483,17.483,0,0,1,.62-4.956,17.941,17.941,0,0,1,.619,4.956A18.3,18.3,0,0,1,102.81,412.912Z" transform="translate(-83.987 -403)"/>
          <path id="Path_4334" data-name="Path 4334" d="M100.47,412.912a20.134,20.134,0,0,1,0-9.912A20.134,20.134,0,0,1,100.47,412.912Z" transform="translate(-84.546 -403)"/>
          <path id="Path_4335" data-name="Path 4335" d="M96.19,412.912a20.134,20.134,0,0,1,0-9.912,20.134,20.134,0,0,1,0,9.912Z" transform="translate(-85.569 -403)"/>
          <path id="Path_4336" data-name="Path 4336" d="M104.76,412.912a20.134,20.134,0,0,1,0-9.912,17.483,17.483,0,0,1,.62,4.956,17.829,17.829,0,0,1-.62,4.956Z" transform="translate(-83.521 -403)"/>
          <path id="Path_4337" data-name="Path 4337" d="M121.41,412.912a17.83,17.83,0,0,1-.619-4.956,17.483,17.483,0,0,1,.62-4.956,17.941,17.941,0,0,1,.619,4.956,18.3,18.3,0,0,1-.619,4.956Z" transform="translate(-79.542 -403)"/>
          <path id="Path_4338" data-name="Path 4338" d="M109.7,412.912a18.3,18.3,0,0,1-.62-4.956A17.941,17.941,0,0,1,109.7,403a17.483,17.483,0,0,1,.62,4.956A18.3,18.3,0,0,1,109.7,412.912Z" transform="translate(-82.34 -403)"/>
          <path id="Path_4339" data-name="Path 4339" d="M108.02,412.912a20.134,20.134,0,0,1,0-9.912A20.134,20.134,0,0,1,108.02,412.912Z" transform="translate(-82.741 -403)"/>
          <path id="Path_4340" data-name="Path 4340" d="M90.6,412.912a20.134,20.134,0,0,1,0-9.912,20.134,20.134,0,0,1,0,9.912Z" transform="translate(-86.905 -403)"/>
          <path id="Path_4341" data-name="Path 4341" d="M88.12,412.912a18.3,18.3,0,0,1-.62-4.956A17.941,17.941,0,0,1,88.12,403a17.483,17.483,0,0,1,.62,4.956,17.829,17.829,0,0,1-.619,4.956Z" transform="translate(-87.498 -403)"/>
          <path id="Path_4342" data-name="Path 4342" d="M94.2,412.912a20.134,20.134,0,0,1,0-9.912A20.134,20.134,0,0,1,94.2,412.912Z" transform="translate(-86.045 -403)"/>
          <path id="Path_4343" data-name="Path 4343" d="M117.31,412.912a20.134,20.134,0,0,1,0-9.912A20.134,20.134,0,0,1,117.31,412.912Z" transform="translate(-80.521 -403)"/>
        </g>
        <path id="Path_4344" data-name="Path 4344" d="M142.131,402.06v2.627L86.09,406.459v-4.4Z" transform="translate(-42.71 -389.67)" opacity="0.1"/>
        <rect id="Rectangle_281" data-name="Rectangle 281" width="56.053" height="12.39" transform="translate(39.961)" fill="#ffc727"/>
        <g id="Group_628" data-name="Group 628" transform="translate(41.655 1.165)" opacity="0.1">
          <path id="Path_4345" data-name="Path 4345" d="M85.32,393a18.3,18.3,0,0,1,.619,4.956,17.942,17.942,0,0,1-.619,4.956,17.482,17.482,0,0,1-.619-4.956A17.83,17.83,0,0,1,85.32,393Z" transform="translate(-84.697 -393)"/>
          <path id="Path_4346" data-name="Path 4346" d="M88.69,393a20.134,20.134,0,0,1,0,9.912,17.482,17.482,0,0,1-.62-4.956A17.829,17.829,0,0,1,88.69,393Z" transform="translate(-83.892 -393)"/>
          <path id="Path_4347" data-name="Path 4347" d="M90.33,393a20.134,20.134,0,0,1,0,9.912,20.134,20.134,0,0,1,0-9.912Z" transform="translate(-83.499 -393)"/>
          <path id="Path_4348" data-name="Path 4348" d="M99.37,393a20.134,20.134,0,0,1,0,9.912,17.483,17.483,0,0,1-.619-4.956A17.83,17.83,0,0,1,99.37,393Z" transform="translate(-81.339 -393)"/>
          <path id="Path_4349" data-name="Path 4349" d="M101.81,393a20.134,20.134,0,0,1,0,9.912A20.134,20.134,0,0,1,101.81,393Z" transform="translate(-80.755 -393)"/>
          <path id="Path_4350" data-name="Path 4350" d="M111.92,393a18.3,18.3,0,0,1,.619,4.956,17.942,17.942,0,0,1-.62,4.956,17.483,17.483,0,0,1-.619-4.956A18.3,18.3,0,0,1,111.92,393Z" transform="translate(-78.34 -393)"/>
          <path id="Path_4351" data-name="Path 4351" d="M114.247,393a20.134,20.134,0,0,1,0,9.912,20.531,20.531,0,0,1,0-9.912Z" transform="translate(-77.78 -393)"/>
          <path id="Path_4352" data-name="Path 4352" d="M118.54,393a20.134,20.134,0,0,1,0,9.912,20.134,20.134,0,0,1,0-9.912Z" transform="translate(-76.757 -393)"/>
          <path id="Path_4353" data-name="Path 4353" d="M109.97,393a20.134,20.134,0,0,1,0,9.912,20.134,20.134,0,0,1,0-9.912Z" transform="translate(-78.805 -393)"/>
          <path id="Path_4354" data-name="Path 4354" d="M93.32,393a18.3,18.3,0,0,1,.62,4.956,17.483,17.483,0,0,1-.62,4.956,17.942,17.942,0,0,1-.62-4.956A18.3,18.3,0,0,1,93.32,393Z" transform="translate(-82.785 -393)"/>
          <path id="Path_4355" data-name="Path 4355" d="M105.03,393a18.3,18.3,0,0,1,.619,4.956,17.942,17.942,0,0,1-.619,4.956,17.482,17.482,0,0,1-.62-4.956,17.829,17.829,0,0,1,.62-4.956Z" transform="translate(-79.986 -393)"/>
          <path id="Path_4356" data-name="Path 4356" d="M106.71,393a20.134,20.134,0,0,1,0,9.912A20.134,20.134,0,0,1,106.71,393Z" transform="translate(-79.584 -393)"/>
          <path id="Path_4357" data-name="Path 4357" d="M124.12,393a17.83,17.83,0,0,1,.62,4.956,17.483,17.483,0,0,1-.619,4.956,20.134,20.134,0,0,1,0-9.912Z" transform="translate(-75.423 -393)"/>
          <path id="Path_4358" data-name="Path 4358" d="M126.66,393a20.134,20.134,0,0,1,0,9.912,17.482,17.482,0,0,1-.62-4.956A17.831,17.831,0,0,1,126.66,393Z" transform="translate(-74.816 -393)"/>
          <path id="Path_4359" data-name="Path 4359" d="M120.53,393a20.134,20.134,0,0,1,0,9.912A20.134,20.134,0,0,1,120.53,393Z" transform="translate(-76.281 -393)"/>
          <path id="Path_4360" data-name="Path 4360" d="M97.42,393a20.134,20.134,0,0,1,0,9.912A20.134,20.134,0,0,1,97.42,393Z" transform="translate(-81.805 -393)"/>
        </g>
        <path id="Path_4361" data-name="Path 4361" d="M139.383,392.06V394.7L83.33,396.459v-4.4Z" transform="translate(-43.369 -392.06)" opacity="0.1"/>
        <rect id="Rectangle_282" data-name="Rectangle 282" width="56.053" height="12.39" transform="translate(39.961 37.158)" fill="#ffc727"/>
        <g id="Group_629" data-name="Group 629" transform="translate(41.655 38.335)" opacity="0.1">
          <path id="Path_4362" data-name="Path 4362" d="M126.66,432.912a20.085,20.085,0,0,1,0-9.912A20.084,20.084,0,0,1,126.66,432.912Z" transform="translate(-74.816 -423)"/>
          <path id="Path_4363" data-name="Path 4363" d="M123.29,432.912a17.831,17.831,0,0,1-.62-4.956,17.347,17.347,0,0,1,.62-4.956,17.793,17.793,0,0,1,.62,4.956,18.3,18.3,0,0,1-.62,4.956Z" transform="translate(-75.622 -423)"/>
          <path id="Path_4364" data-name="Path 4364" d="M121.64,432.912a20.085,20.085,0,0,1,0-9.912A20.084,20.084,0,0,1,121.64,432.912Z" transform="translate(-76.016 -423)"/>
          <path id="Path_4365" data-name="Path 4365" d="M112.61,432.912a17.829,17.829,0,0,1-.619-4.956,17.347,17.347,0,0,1,.62-4.956A20.085,20.085,0,0,1,112.61,432.912Z" transform="translate(-78.174 -423)"/>
          <path id="Path_4366" data-name="Path 4366" d="M110.12,432.912a20.085,20.085,0,0,1,0-9.912A20.084,20.084,0,0,1,110.12,432.912Z" transform="translate(-78.769 -423)"/>
          <path id="Path_4367" data-name="Path 4367" d="M100.06,432.912a20.084,20.084,0,0,1,0-9.912,20.085,20.085,0,0,1,0,9.912Z" transform="translate(-81.174 -423)"/>
          <path id="Path_4368" data-name="Path 4368" d="M97.72,432.912a20.084,20.084,0,0,1,0-9.912,17.347,17.347,0,0,1,.619,4.956,17.83,17.83,0,0,1-.619,4.956Z" transform="translate(-81.733 -423)"/>
          <path id="Path_4369" data-name="Path 4369" d="M93.43,432.912a20.085,20.085,0,0,1,0-9.912A20.084,20.084,0,0,1,93.43,432.912Z" transform="translate(-82.758 -423)"/>
          <path id="Path_4370" data-name="Path 4370" d="M102.01,432.912a18.3,18.3,0,0,1-.619-4.956A17.346,17.346,0,0,1,102.01,423a17.793,17.793,0,0,1,.62,4.956A18.3,18.3,0,0,1,102.01,432.912Z" transform="translate(-80.708 -423)"/>
          <path id="Path_4371" data-name="Path 4371" d="M118.66,432.912a20.085,20.085,0,0,1,0-9.912,20.085,20.085,0,0,1,0,9.912Z" transform="translate(-76.728 -423)"/>
          <path id="Path_4372" data-name="Path 4372" d="M106.95,432.912a17.829,17.829,0,0,1-.619-4.956,17.347,17.347,0,0,1,.62-4.956A20.085,20.085,0,0,1,106.95,432.912Z" transform="translate(-79.527 -423)"/>
          <path id="Path_4373" data-name="Path 4373" d="M105.26,432.912a20.085,20.085,0,0,1,0-9.912,20.085,20.085,0,0,1,0,9.912Z" transform="translate(-79.931 -423)"/>
          <path id="Path_4374" data-name="Path 4374" d="M87.85,432.912a20.085,20.085,0,0,1,0-9.912A20.084,20.084,0,0,1,87.85,432.912Z" transform="translate(-84.092 -423)"/>
          <path id="Path_4375" data-name="Path 4375" d="M85.32,432.912a17.829,17.829,0,0,1-.619-4.956A17.347,17.347,0,0,1,85.32,423a17.792,17.792,0,0,1,.619,4.956A18.3,18.3,0,0,1,85.32,432.912Z" transform="translate(-84.697 -423)"/>
          <path id="Path_4376" data-name="Path 4376" d="M91.44,432.912a20.085,20.085,0,0,1,0-9.912A20.084,20.084,0,0,1,91.44,432.912Z" transform="translate(-83.234 -423)"/>
          <path id="Path_4377" data-name="Path 4377" d="M114.56,432.912a18.3,18.3,0,0,1-.62-4.956,17.793,17.793,0,0,1,.62-4.956,17.347,17.347,0,0,1,.62,4.956A18.3,18.3,0,0,1,114.56,432.912Z" transform="translate(-77.708 -423)"/>
        </g>
        <path id="Path_4378" data-name="Path 4378" d="M139.383,422.05v2.627L83.33,426.449v-4.4Z" transform="translate(-43.369 -384.892)" opacity="0.1"/>
        <rect id="Rectangle_283" data-name="Rectangle 283" width="56.053" height="12.39" transform="translate(96.014 75.295)" fill="#ffc727"/>
        <g id="Group_630" data-name="Group 630" transform="translate(97.71 76.435)" opacity="0.1">
          <path id="Path_4379" data-name="Path 4379" d="M130.56,453.75a20.084,20.084,0,0,1,0,9.912A20.085,20.085,0,0,1,130.56,453.75Z" transform="translate(-129.939 -453.75)"/>
          <path id="Path_4380" data-name="Path 4380" d="M133.93,453.75a20.084,20.084,0,0,1,0,9.912A20.084,20.084,0,0,1,133.93,453.75Z" transform="translate(-129.133 -453.75)"/>
          <path id="Path_4381" data-name="Path 4381" d="M135.57,453.75a17.792,17.792,0,0,1,.62,4.956,17.347,17.347,0,0,1-.62,4.956,20.084,20.084,0,0,1,0-9.912Z" transform="translate(-128.741 -453.75)"/>
          <path id="Path_4382" data-name="Path 4382" d="M144.61,453.75a20.085,20.085,0,0,1,0,9.912A20.084,20.084,0,0,1,144.61,453.75Z" transform="translate(-126.581 -453.75)"/>
          <path id="Path_4383" data-name="Path 4383" d="M147.05,453.75a17.793,17.793,0,0,1,.62,4.956,17.346,17.346,0,0,1-.619,4.956,17.83,17.83,0,0,1-.62-4.956A18.277,18.277,0,0,1,147.05,453.75Z" transform="translate(-125.997 -453.75)"/>
          <path id="Path_4384" data-name="Path 4384" d="M157.12,453.75a20.084,20.084,0,0,1,0,9.912A20.084,20.084,0,0,1,157.12,453.75Z" transform="translate(-123.59 -453.75)"/>
          <path id="Path_4385" data-name="Path 4385" d="M159.49,453.75a20.084,20.084,0,0,1,0,9.912A20.085,20.085,0,0,1,159.49,453.75Z" transform="translate(-123.024 -453.75)"/>
          <path id="Path_4386" data-name="Path 4386" d="M163.78,453.75a18.276,18.276,0,0,1,.62,4.956,17.347,17.347,0,0,1-.62,4.956,17.829,17.829,0,0,1-.619-4.956,18.275,18.275,0,0,1,.619-4.956Z" transform="translate(-121.999 -453.75)"/>
          <path id="Path_4387" data-name="Path 4387" d="M155.21,453.75a20.481,20.481,0,0,1,0,9.912A20.084,20.084,0,0,1,155.21,453.75Z" transform="translate(-124.047 -453.75)"/>
          <path id="Path_4388" data-name="Path 4388" d="M138.56,453.75a20.084,20.084,0,0,1,0,9.912,17.344,17.344,0,0,1-.62-4.956,17.793,17.793,0,0,1,.62-4.956Z" transform="translate(-128.027 -453.75)"/>
          <path id="Path_4389" data-name="Path 4389" d="M150.27,453.75a20.084,20.084,0,0,1,0,9.912A20.085,20.085,0,0,1,150.27,453.75Z" transform="translate(-125.228 -453.75)"/>
          <path id="Path_4390" data-name="Path 4390" d="M151.95,453.75a17.791,17.791,0,0,1,.62,4.956,17.347,17.347,0,0,1-.62,4.956,17.831,17.831,0,0,1-.619-4.956A18.277,18.277,0,0,1,151.95,453.75Z" transform="translate(-124.826 -453.75)"/>
          <path id="Path_4391" data-name="Path 4391" d="M169.37,453.75a18.276,18.276,0,0,1,.62,4.956,17.83,17.83,0,0,1-.619,4.956,17.348,17.348,0,0,1-.62-4.956A17.794,17.794,0,0,1,169.37,453.75Z" transform="translate(-120.663 -453.75)"/>
          <path id="Path_4392" data-name="Path 4392" d="M171.9,453.75a20.084,20.084,0,0,1,0,9.912A20.084,20.084,0,0,1,171.9,453.75Z" transform="translate(-120.058 -453.75)"/>
          <path id="Path_4393" data-name="Path 4393" d="M165.77,453.75a17.793,17.793,0,0,1,.62,4.956,17.346,17.346,0,0,1-.619,4.956,17.828,17.828,0,0,1-.62-4.956,18.276,18.276,0,0,1,.619-4.956Z" transform="translate(-121.523 -453.75)"/>
          <path id="Path_4394" data-name="Path 4394" d="M142.65,453.75a20.084,20.084,0,0,1,0,9.912A20.085,20.085,0,0,1,142.65,453.75Z" transform="translate(-127.049 -453.75)"/>
        </g>
        <path id="Path_4395" data-name="Path 4395" d="M184.623,452.83v2.627l-56.053,1.772v-4.4Z" transform="translate(-32.556 -377.535)" opacity="0.1"/>
        <rect id="Rectangle_284" data-name="Rectangle 284" width="56.053" height="12.39" transform="translate(105.405 62.905)" fill="#ffc727"/>
        <g id="Group_631" data-name="Group 631" transform="translate(107.078 64.045)" opacity="0.1">
          <path id="Path_4396" data-name="Path 4396" d="M138.12,443.75a20.133,20.133,0,0,1,0,9.912,20.134,20.134,0,0,1,0-9.912Z" transform="translate(-137.5 -443.75)"/>
          <path id="Path_4397" data-name="Path 4397" d="M141.5,443.75a20.133,20.133,0,0,1,0,9.912,20.135,20.135,0,0,1,0-9.912Z" transform="translate(-136.692 -443.75)"/>
          <path id="Path_4398" data-name="Path 4398" d="M143.12,443.75a20.133,20.133,0,0,1,0,9.912,17.435,17.435,0,0,1-.62-4.956,17.88,17.88,0,0,1,.62-4.956Z" transform="translate(-136.306 -443.75)"/>
          <path id="Path_4399" data-name="Path 4399" d="M152.18,443.75a20.134,20.134,0,0,1,0,9.912,20.134,20.134,0,0,1,0-9.912Z" transform="translate(-134.139 -443.75)"/>
          <path id="Path_4400" data-name="Path 4400" d="M154.63,443.75a20.134,20.134,0,0,1,0,9.912,20.134,20.134,0,0,1,0-9.912Z" transform="translate(-133.554 -443.75)"/>
          <path id="Path_4401" data-name="Path 4401" d="M164.73,443.75a20.133,20.133,0,0,1,0,9.912,20.134,20.134,0,0,1,0-9.912Z" transform="translate(-131.14 -443.75)"/>
          <path id="Path_4402" data-name="Path 4402" d="M167.12,443.75a18.362,18.362,0,0,1,.62,4.956,17.879,17.879,0,0,1-.619,4.956,17.433,17.433,0,0,1-.62-4.956A17.88,17.88,0,0,1,167.12,443.75Z" transform="translate(-130.569 -443.75)"/>
          <path id="Path_4403" data-name="Path 4403" d="M171.36,443.75a20.134,20.134,0,0,1,0,9.912,20.134,20.134,0,0,1,0-9.912Z" transform="translate(-129.555 -443.75)"/>
          <path id="Path_4404" data-name="Path 4404" d="M162.78,443.75a17.88,17.88,0,0,1,.62,4.956,17.432,17.432,0,0,1-.62,4.956,20.134,20.134,0,0,1,0-9.912Z" transform="translate(-131.606 -443.75)"/>
          <path id="Path_4405" data-name="Path 4405" d="M146.12,443.75a20.134,20.134,0,0,1,0,9.912,20.134,20.134,0,0,1,0-9.912Z" transform="translate(-135.588 -443.75)"/>
          <path id="Path_4406" data-name="Path 4406" d="M157.84,443.75a20.134,20.134,0,0,1,0,9.912,20.134,20.134,0,0,1,0-9.912Z" transform="translate(-132.787 -443.75)"/>
          <path id="Path_4407" data-name="Path 4407" d="M159.53,443.75a20.134,20.134,0,0,1,0,9.912,20.134,20.134,0,0,1,0-9.912Z" transform="translate(-132.383 -443.75)"/>
          <path id="Path_4408" data-name="Path 4408" d="M176.95,443.75a20.133,20.133,0,0,1,0,9.912,20.134,20.134,0,0,1,0-9.912Z" transform="translate(-128.219 -443.75)"/>
          <path id="Path_4409" data-name="Path 4409" d="M179.47,443.75a20.134,20.134,0,0,1,0,9.912,20.134,20.134,0,0,1,0-9.912Z" transform="translate(-127.617 -443.75)"/>
          <path id="Path_4410" data-name="Path 4410" d="M173.35,443.75a20.133,20.133,0,0,1,0,9.912A20.134,20.134,0,0,1,173.35,443.75Z" transform="translate(-129.079 -443.75)"/>
          <path id="Path_4411" data-name="Path 4411" d="M150.23,443.75a17.879,17.879,0,0,1,.62,4.956,17.433,17.433,0,0,1-.62,4.956,17.879,17.879,0,0,1-.62-4.956A18.363,18.363,0,0,1,150.23,443.75Z" transform="translate(-134.606 -443.75)"/>
        </g>
        <path id="Path_4412" data-name="Path 4412" d="M192.191,442.83v2.639l-56.041,1.772V442.83Z" transform="translate(-30.745 -379.925)" opacity="0.1"/>
        <rect id="Rectangle_285" data-name="Rectangle 285" width="56.053" height="12.39" transform="translate(100.71 50.626)" fill="#ffc727"/>
        <g id="Group_632" data-name="Group 632" transform="translate(102.404 51.754)" opacity="0.1">
          <path id="Path_4413" data-name="Path 4413" d="M175.69,443.742a20.085,20.085,0,0,1,0-9.912A20.084,20.084,0,0,1,175.69,443.742Z" transform="translate(-123.846 -433.83)"/>
          <path id="Path_4414" data-name="Path 4414" d="M172.32,443.742a17.792,17.792,0,0,1-.62-4.956,17.347,17.347,0,0,1,.62-4.956A20.084,20.084,0,0,1,172.32,443.742Z" transform="translate(-124.652 -433.83)"/>
          <path id="Path_4415" data-name="Path 4415" d="M170.67,443.742a20.084,20.084,0,0,1,0-9.912,17.348,17.348,0,0,1,.62,4.956A17.792,17.792,0,0,1,170.67,443.742Z" transform="translate(-125.046 -433.83)"/>
          <path id="Path_4416" data-name="Path 4416" d="M161.64,443.742a20.084,20.084,0,0,1,0-9.912,20.084,20.084,0,0,1,0,9.912Z" transform="translate(-127.204 -433.83)"/>
          <path id="Path_4417" data-name="Path 4417" d="M159.19,443.742a20.084,20.084,0,0,1,0-9.912A20.084,20.084,0,0,1,159.19,443.742Z" transform="translate(-127.79 -433.83)"/>
          <path id="Path_4418" data-name="Path 4418" d="M149.12,443.742a20.085,20.085,0,0,1,0-9.912A20.084,20.084,0,0,1,149.12,443.742Z" transform="translate(-130.197 -433.83)"/>
          <path id="Path_4419" data-name="Path 4419" d="M146.75,443.742a18.276,18.276,0,0,1-.62-4.956,17.83,17.83,0,0,1,.62-4.956,17.347,17.347,0,0,1,.62,4.956A17.792,17.792,0,0,1,146.75,443.742Z" transform="translate(-130.763 -433.83)"/>
          <path id="Path_4420" data-name="Path 4420" d="M142.46,443.742a20.085,20.085,0,0,1,0-9.912A20.084,20.084,0,0,1,142.46,443.742Z" transform="translate(-131.788 -433.83)"/>
          <path id="Path_4421" data-name="Path 4421" d="M151.04,443.742a17.793,17.793,0,0,1-.619-4.956,17.347,17.347,0,0,1,.62-4.956,17.83,17.83,0,0,1,.62,4.956,18.275,18.275,0,0,1-.62,4.956Z" transform="translate(-129.738 -433.83)"/>
          <path id="Path_4422" data-name="Path 4422" d="M167.69,443.742a20.084,20.084,0,0,1,0-9.912A20.085,20.085,0,0,1,167.69,443.742Z" transform="translate(-125.758 -433.83)"/>
          <path id="Path_4423" data-name="Path 4423" d="M155.98,443.742a20.085,20.085,0,0,1,0-9.912A20.084,20.084,0,0,1,155.98,443.742Z" transform="translate(-128.557 -433.83)"/>
          <path id="Path_4424" data-name="Path 4424" d="M154.29,443.742a20.084,20.084,0,0,1,0-9.912A20.085,20.085,0,0,1,154.29,443.742Z" transform="translate(-128.961 -433.83)"/>
          <path id="Path_4425" data-name="Path 4425" d="M136.87,443.742a20.085,20.085,0,0,1,0-9.912A20.084,20.084,0,0,1,136.87,443.742Z" transform="translate(-133.125 -433.83)"/>
          <path id="Path_4426" data-name="Path 4426" d="M134.35,443.742a17.792,17.792,0,0,1-.619-4.956,17.347,17.347,0,0,1,.62-4.956,20.085,20.085,0,0,1,0,9.912Z" transform="translate(-133.727 -433.83)"/>
          <path id="Path_4427" data-name="Path 4427" d="M140.47,443.742a20.085,20.085,0,0,1,0-9.912A20.084,20.084,0,0,1,140.47,443.742Z" transform="translate(-132.264 -433.83)"/>
          <path id="Path_4428" data-name="Path 4428" d="M163.59,443.742a18.276,18.276,0,0,1-.619-4.956,17.348,17.348,0,0,1,.619-4.956,17.829,17.829,0,0,1,.62,4.956,18.275,18.275,0,0,1-.62,4.956Z" transform="translate(-126.738 -433.83)"/>
        </g>
        <path id="Path_4429" data-name="Path 4429" d="M188.413,432.92v2.639l-56.053,1.759v-4.4Z" transform="translate(-31.65 -382.294)" opacity="0.1"/>
        <path id="Path_4430" data-name="Path 4430" d="M85.945,417.187c36.9,6.616,27.147,61.269-9.8,54.641S48.985,410.559,85.945,417.187Z" transform="translate(-50.655 -386.187)" fill="#ffc727"/>
        <path id="Path_4431" data-name="Path 4431" d="M85.945,417.187c36.9,6.616,27.147,61.269-9.8,54.641S48.985,410.559,85.945,417.187Z" transform="translate(-50.655 -386.187)" opacity="0.1"/>
        <path id="Path_4432" data-name="Path 4432" d="M82.9,416.678c35.163,6.307,25.425,60.96-9.8,54.641S47.686,410.359,82.9,416.678Z" transform="translate(-51.078 -386.297)" fill="#ffc727"/>
        <path id="Path_4433" data-name="Path 4433" d="M54.81,444.312c.186,9.726,5.861,19.168,18.238,21.385,29.216,5.241,37.319-40.119,8.128-45.348l-.57-.1c27.37,5.477,19.527,48.408-8.339,43.366C60.894,461.621,55.417,453.208,54.81,444.312Z" transform="translate(-50.186 -385.322)" opacity="0.1"/>
        <g id="Group_633" data-name="Group 633" transform="translate(14.195 40.67)" opacity="0.1">
          <path id="Path_4434" data-name="Path 4434" d="M78.3,424.9a.954.954,0,0,1,.681,1.128l-.384,1.474a12.489,12.489,0,0,1,6.022,4.287,1.053,1.053,0,0,1,.31.991.966.966,0,0,1-1.239.694.9.9,0,0,1-.62-.434,10.953,10.953,0,0,0-4.956-3.828L75.5,439.735c5.4,2.614,7.273,5.353,6.356,9.033-.991,3.977-5.03,5.96-9.763,4.956l-.731,2.924a.929.929,0,0,1-1.115.681.942.942,0,0,1-.681-1.128l.743-2.961a14.534,14.534,0,0,1-7.533-5.737.979.979,0,0,1,.954-1.6.93.93,0,0,1,.607.434,12.563,12.563,0,0,0,6.468,5.229l2.664-10.68c-5.315-2.639-7.124-5.291-6.2-9.032s4.956-5.861,9.578-4.82L77.2,425.6a.942.942,0,0,1,1.1-.694Zm-4.374,14.038,2.552-10.2c-3.717-.83-6.6.743-7.273,3.444s.173,4.386,4.721,6.753Zm1.078,2.7L72.416,452c3.717.855,6.753-.706,7.434-3.556.669-2.59-.248-4.5-4.845-6.8Z" transform="translate(-62.535 -424.884)"/>
        </g>
      </g>
    </g>
  </g>
</svg>
