<svg xmlns="http://www.w3.org/2000/svg" width="1034.877" height="623" viewBox="0 0 1034.877 623">
  <g id="Group_1177" data-name="Group 1177" transform="translate(-744.664 -178.374)">
    <path id="Path_8161" data-name="Path 8161" d="M807.6,472.064c21.234-27.811,23.047-61.933,32.377-93.626s31.988-65.5,71.824-72.715c45.15-8.183,88.278,21.486,134.581,21.66,33.442.125,63.444-14.983,93.744-26.259,50.7-18.867,107.151-27.82,163.05-25.858,26.967.946,55.954,5.263,74.375,20.985,10.757,9.181,16.694,21.291,26.388,31.195,27.129,27.716,77.583,32.74,121.292,28.008s86.6-16.919,130.645-15.025,91.791,24.161,96,59.15c2.928,24.34-15.7,46.858-35.776,65.353s-43.152,36.3-52.341,59.632c-20.723,52.613,36.886,106.189,31.582,161.17-4.163,43.154-48.492,79.221-99.845,93.323s-108.075,9.542-160.484-1.828-102.239-29.248-154.145-42-107.624-20.3-160.482-10.338c-51,9.611-96.212,34.919-147.962,41.522-37.348,4.766-76.558-1.094-109.541-15.753-38.361-17.05-55.985-42.668-77.6-71.536-14.778-19.741-36.881-34.071-53.183-52.681-17.089-19.508-18.186-45.312-9.364-67.636C737.1,522.479,783.644,503.445,807.6,472.064Z" transform="translate(27.355 3.534)" fill="#e4edff"/>
    <g id="Group_1179" data-name="Group 1179" transform="translate(803.342 385.072)">
      <text id="_404" data-name="404" transform="translate(458.761 301.302)" fill="#3e7bf1" font-size="459" font-family="SegoeUI, Segoe UI" letter-spacing="0.074em"><tspan x="-405.111" y="0">404</tspan></text>
      <text id="_404-2" data-name="404" transform="translate(448.761 291.302)" fill="none" stroke="#5a5a5a" stroke-width="3" font-size="459" font-family="SegoeUI, Segoe UI" letter-spacing="0.074em"><tspan x="-405.111" y="0">404</tspan></text>
    </g>
    <g id="Group_1176" data-name="Group 1176" transform="translate(758.921 551.168)">
      <g id="Group_1170" data-name="Group 1170" transform="translate(33.421 19.754)">
        <path id="Path_8151" data-name="Path 8151" d="M1089.373,1477.886c.466,15.388-11.036,29.718-24.247,39.339s-10.1,18.324-10.1,18.324l-.5.083-4.78.787s-7.693-14.334,2.837-30.061c9.159-13.681,10.233-17.459,12.4-28.545.325-1.658.674-3.479,1.079-5.522,3.109-15.7,13.833-27.637,29.221-32.626C1095.28,1439.665,1086.731,1445.4,1089.373,1477.886Z" transform="translate(-1047.028 -1439.665)" fill="#2cbf7b"/>
      </g>
      <g id="Group_1171" data-name="Group 1171" transform="translate(0 15.955)">
        <path id="Path_8152" data-name="Path 8152" d="M917.941,1524.482v0c-.458.682-.754,1.041-.754,1.041l-4.685-1.768-.326-.123s.054-.089.136-.262a9.91,9.91,0,0,0,.839-3.39c.207-2.517-.262-6.236-3.092-10.847a31.844,31.844,0,0,0-1.867-2.7c-.682-.89-1.451-1.807-2.319-2.75-11.061-12.031-19.522-28.344-16.039-43.338,8.978-31.33,1.724-38.636,1.724-38.636,14.106,7.916,22.275,21.731,22.235,37.734-.022,9.4-.264,14.163,1.008,20.038.193.894.422,1.813.691,2.78a120.279,120.279,0,0,0,4.823,13.235,32.991,32.991,0,0,1,2.479,10.179A30.228,30.228,0,0,1,917.941,1524.482Z" transform="translate(-889.04 -1421.706)" fill="#2da66d"/>
        <path id="Path_8153" data-name="Path 8153" d="M994.075,1721c-2.268,9.072-4.818,18.676-4.853,18.81v0c-.458.682-.754,1.041-.754,1.041l-4.685-1.768q-.094-.188-.19-.385a9.908,9.908,0,0,0,.839-3.39c.207-2.517-.261-6.236-3.092-10.847a31.9,31.9,0,0,0-1.867-2.7,40.9,40.9,0,0,1,3.347-18.3,56.38,56.38,0,0,0,3.263-8.656c.192.894.422,1.813.691,2.78a120.3,120.3,0,0,0,4.822,13.235A32.989,32.989,0,0,1,994.075,1721Z" transform="translate(-960.322 -1637.037)" fill="#2645a8" opacity="0.2" style="mix-blend-mode: multiply;isolation: isolate"/>
      </g>
      <g id="Group_1172" data-name="Group 1172" transform="translate(37.261 32.964)">
        <path id="Path_8154" data-name="Path 8154" d="M1065.636,1585.085a.453.453,0,0,1-.453-.453c0-7.843,3.18-16.216,9.722-25.6,1.193-1.711,2.481-3.391,3.727-5.015,2.864-3.735,5.826-7.6,7.771-12.04,1.57-3.586,1.465-7.185,1.355-11a46.526,46.526,0,0,1,.106-6.328c1.075-10.035,4.093-16.948,9.788-22.415a.453.453,0,0,1,.628.654c-5.53,5.309-8.464,12.05-9.514,21.858a45.9,45.9,0,0,0-.1,6.205c.109,3.743.221,7.614-1.43,11.386-1.989,4.543-4.985,8.45-7.882,12.228-1.239,1.616-2.521,3.287-3.7,4.982-6.432,9.224-9.559,17.428-9.559,25.079A.453.453,0,0,1,1065.636,1585.085Z" transform="translate(-1065.183 -1502.112)" fill="#033a3f"/>
      </g>
      <g id="Group_1173" data-name="Group 1173" transform="translate(9.197 28.868)">
        <path id="Path_8155" data-name="Path 8155" d="M951.928,1577.144a.454.454,0,0,1-.443-.551c2.025-9.193-1.935-18.745-5.089-25.129-.887-1.8-1.838-3.61-2.757-5.365-3.141-6-6.388-12.2-7.8-18.921-1.316-6.254-1-12.754-.7-19.04.05-1.038.1-2.11.145-3.162.3-7.273.177-14.923-2.728-21.591a.453.453,0,1,1,.831-.362c2.979,6.836,3.107,14.609,2.8,21.99-.044,1.055-.1,2.129-.146,3.168-.3,6.229-.612,12.669.68,18.809,1.389,6.6,4.607,12.746,7.72,18.687.922,1.76,1.875,3.579,2.767,5.384a60.445,60.445,0,0,1,4.773,12.544,28.935,28.935,0,0,1,.389,13.182A.454.454,0,0,1,951.928,1577.144Z" transform="translate(-932.516 -1482.75)" fill="#033a3f"/>
      </g>
      <g id="Group_1174" data-name="Group 1174" transform="translate(24.801 0)">
        <path id="Path_8156" data-name="Path 8156" d="M1066.079,1635.255a40.027,40.027,0,0,1-6.4,18.41,37.7,37.7,0,0,0-6.017,14.887c-.565,3.821-.126,6.629.42,7.871a6.491,6.491,0,0,1,.442,1.4l-4.78.787s-7.693-14.334,2.837-30.061c9.159-13.681,10.233-17.459,12.4-28.545q.066.367.132.717c.112.6.216,1.165.3,1.717.029.2.062.409.1.638A48.8,48.8,0,0,1,1066.079,1635.255Z" transform="translate(-1038.408 -1562.098)" fill="#2645a8" opacity="0.2" style="mix-blend-mode: multiply;isolation: isolate"/>
        <path id="Path_8157" data-name="Path 8157" d="M1010.022,1460.213s-9.015-13.522.933-33.106c4.507-12.9-3.42-28.443.777-42.743s18.5-13.522,22.382-29.376l2.487-8.7s7.15,21.915-3.108,38.08c-7.461,11.035-4.818,18.651-4.2,22.848s2.953,16.009-5.129,28.443-7.616,22.692-5.906,26.578S1010.022,1460.213,1010.022,1460.213Z" transform="translate(-1006.278 -1346.285)" fill="#027369"/>
      </g>
      <g id="Group_1175" data-name="Group 1175" transform="translate(30.227 18.509)">
        <path id="Path_8158" data-name="Path 8158" d="M1035.081,1536.213a.453.453,0,0,1-.3-.115c-1.607-1.431-2.139-5.159-2.492-7.625-.055-.386-.107-.751-.157-1.062a27.218,27.218,0,0,1-.008-6.468c.06-.767.123-1.56.158-2.328a27.213,27.213,0,0,1,1.9-10.173c.38-.9.782-1.8,1.17-2.68a70.881,70.881,0,0,0,2.7-6.7,44.4,44.4,0,0,0,1.071-21.529c-1.915-9.821-.465-19.126,4.193-26.908,1.176-1.965,2.518-3.805,3.815-5.584,2.555-3.5,4.969-6.813,6.145-10.928a.453.453,0,0,1,.872.249c-1.22,4.27-3.68,7.643-6.284,11.214-1.286,1.763-2.615,3.585-3.77,5.515-4.541,7.587-5.952,16.67-4.08,26.269a44.694,44.694,0,0,1-1.1,21.983,71.658,71.658,0,0,1-2.735,6.791c-.387.873-.787,1.776-1.164,2.666a26.447,26.447,0,0,0-1.834,9.86c-.036.783-.1,1.584-.16,2.358a26.531,26.531,0,0,0,0,6.253c.051.319.1.687.16,1.077.3,2.093.734,5.144,1.8,6.627a.453.453,0,0,1,.4.125.7.7,0,0,1,.243.592.618.618,0,0,1-.313.459A.451.451,0,0,1,1035.081,1536.213Zm-.32-.456h0Z" transform="translate(-1031.929 -1433.782)" fill="#033a3f"/>
      </g>
      <path id="Path_8159" data-name="Path 8159" d="M996.14,1868.684H973.548a4.524,4.524,0,0,0-4.415,5.51l3.152,14.111a4.524,4.524,0,0,0,4.415,3.538h16.287a4.524,4.524,0,0,0,4.415-3.538l3.152-14.111A4.524,4.524,0,0,0,996.14,1868.684Z" transform="translate(-952.103 -1758.175)" fill="#fff"/>
      <path id="Path_8160" data-name="Path 8160" d="M997.352,1888.513a4.523,4.523,0,0,1-4.363,3.329H976.7a4.524,4.524,0,0,1-4.416-3.537l-3.151-14.111a4.524,4.524,0,0,1,4.415-5.51h.025a21.637,21.637,0,0,0,23.777,19.83Z" transform="translate(-952.104 -1758.174)" fill="#2645a8" opacity="0.2" style="mix-blend-mode: multiply;isolation: isolate"/>
    </g>
    <g id="Group_1059" data-name="Group 1059" transform="translate(1645.942 514.168)">
      <g id="Group_1169" data-name="Group 1169" transform="translate(0 0)">
        <g id="Group_1163" data-name="Group 1163" transform="translate(40.932 24.193)">
          <path id="Path_8141" data-name="Path 8141" d="M4472.958,1459.614c.571,18.846-13.517,36.4-29.7,48.18s-12.372,22.443-12.372,22.443l-.619.1-5.854.964s-9.422-17.556,3.475-36.817c11.218-16.755,12.533-21.383,15.192-34.96.4-2.031.826-4.261,1.322-6.764,3.807-19.226,16.941-33.848,35.787-39.958C4480.191,1412.8,4469.721,1419.83,4472.958,1459.614Z" transform="translate(-4421.095 -1412.803)" fill="#2cbf7b"/>
        </g>
        <g id="Group_1164" data-name="Group 1164" transform="translate(0 19.54)">
          <path id="Path_8142" data-name="Path 8142" d="M4298.5,1520.718v0c-.561.836-.924,1.274-.924,1.274l-5.737-2.165-.4-.15s.066-.109.167-.321a12.164,12.164,0,0,0,1.027-4.152c.253-3.083-.32-7.638-3.787-13.284a39.389,39.389,0,0,0-2.287-3.312c-.837-1.09-1.778-2.213-2.84-3.368-13.548-14.735-23.91-34.714-19.644-53.079,11-38.372,2.111-47.319,2.111-47.319,17.277,9.7,27.281,26.615,27.233,46.215-.028,11.513-.325,17.346,1.235,24.542.235,1.095.517,2.221.846,3.4a147.38,147.38,0,0,0,5.907,16.21,40.416,40.416,0,0,1,3.036,12.466A37.027,37.027,0,0,1,4298.5,1520.718Z" transform="translate(-4263.108 -1394.844)" fill="#2da66d"/>
          <path id="Path_8143" data-name="Path 8143" d="M4371.43,1700.028c-2.778,11.111-5.9,22.873-5.943,23.037v0c-.561.836-.923,1.274-.923,1.274l-5.738-2.165c-.077-.154-.155-.31-.232-.471a12.149,12.149,0,0,0,1.028-4.152c.253-3.083-.321-7.638-3.788-13.284a38.9,38.9,0,0,0-2.287-3.312c-.3-8.931,1.546-17.111,4.1-22.408a69.058,69.058,0,0,0,4-10.6c.236,1.095.517,2.221.847,3.4a147.443,147.443,0,0,0,5.907,16.21A40.4,40.4,0,0,1,4371.43,1700.028Z" transform="translate(-4330.091 -1597.191)" fill="#2645a8" opacity="0.2" style="mix-blend-mode: multiply;isolation: isolate"/>
        </g>
        <g id="Group_1165" data-name="Group 1165" transform="translate(45.636 40.372)">
          <path id="Path_8144" data-name="Path 8144" d="M4439.806,1576.87a.555.555,0,0,1-.556-.555c0-9.606,3.9-19.861,11.907-31.351,1.461-2.1,3.039-4.153,4.564-6.142,3.508-4.575,7.135-9.3,9.518-14.746,1.922-4.392,1.794-8.8,1.659-13.468a57.264,57.264,0,0,1,.13-7.751c1.316-12.29,5.014-20.757,11.988-27.453a.555.555,0,1,1,.769.8c-6.772,6.5-10.366,14.758-11.652,26.77a56.132,56.132,0,0,0-.125,7.6c.134,4.585.271,9.325-1.751,13.945-2.436,5.565-6.105,10.349-9.653,14.977-1.519,1.979-3.088,4.026-4.535,6.1-7.878,11.3-11.707,21.345-11.707,30.716A.556.556,0,0,1,4439.806,1576.87Z" transform="translate(-4439.25 -1475.25)" fill="#033a3f"/>
        </g>
        <g id="Group_1166" data-name="Group 1166" transform="translate(11.264 35.356)">
          <path id="Path_8145" data-name="Path 8145" d="M4330.358,1571.5a.543.543,0,0,1-.12-.013.555.555,0,0,1-.423-.661c2.48-11.259-2.37-22.958-6.233-30.777-1.086-2.2-2.25-4.421-3.376-6.571-3.846-7.343-7.824-14.936-9.558-23.174-1.611-7.66-1.227-15.62-.855-23.319.061-1.271.125-2.585.178-3.873.368-8.908.218-18.277-3.34-26.443a.555.555,0,1,1,1.018-.444c3.648,8.373,3.8,17.892,3.432,26.932-.054,1.292-.117,2.608-.178,3.881-.369,7.628-.75,15.517.832,23.036,1.7,8.087,5.644,15.611,9.455,22.887,1.129,2.155,2.3,4.384,3.388,6.594a74.062,74.062,0,0,1,5.847,15.364,35.449,35.449,0,0,1,.476,16.145A.555.555,0,0,1,4330.358,1571.5Z" transform="translate(-4306.583 -1455.889)" fill="#033a3f"/>
        </g>
        <g id="Group_1167" data-name="Group 1167" transform="translate(30.374)">
          <path id="Path_8146" data-name="Path 8146" d="M4444.428,1611.822a49.008,49.008,0,0,1-7.845,22.548c-5,7.7-6.769,14.162-7.369,18.233-.691,4.68-.154,8.118.514,9.64a7.882,7.882,0,0,1,.542,1.708l-5.854.964s-9.422-17.556,3.475-36.817c11.218-16.755,12.533-21.383,15.192-34.96.054.3.108.592.162.878.136.734.265,1.428.365,2.1.035.24.076.5.119.781A59.769,59.769,0,0,1,4444.428,1611.822Z" transform="translate(-4410.538 -1522.223)" fill="#2645a8" opacity="0.2" style="mix-blend-mode: multiply;isolation: isolate"/>
          <path id="Path_8147" data-name="Path 8147" d="M4384.931,1458.956s-11.04-16.561,1.143-40.546c5.52-15.8-4.187-34.836.952-52.349s22.652-16.561,27.412-35.978l3.045-10.66s8.756,26.84-3.808,46.638c-9.137,13.515-5.9,22.843-5.14,27.983s3.617,19.607-6.281,34.836-9.327,27.792-7.233,32.552S4384.931,1458.956,4384.931,1458.956Z" transform="translate(-4380.346 -1319.423)" fill="#027369"/>
        </g>
        <g id="Group_1168" data-name="Group 1168" transform="translate(37.02 22.669)">
          <path id="Path_8148" data-name="Path 8148" d="M4409.857,1532.372a.553.553,0,0,1-.369-.141c-1.969-1.752-2.621-6.318-3.052-9.339-.067-.473-.131-.919-.193-1.3a33.353,33.353,0,0,1-.009-7.921c.074-.939.15-1.911.193-2.851.2-4.412.5-8.131,2.333-12.459.465-1.1.957-2.208,1.432-3.282a86.58,86.58,0,0,0,3.309-8.21,54.364,54.364,0,0,0,1.312-26.368c-2.345-12.028-.57-23.424,5.135-32.955,1.44-2.407,3.083-4.66,4.673-6.839,3.129-4.291,6.086-8.345,7.526-13.385a.555.555,0,1,1,1.068.305c-1.5,5.229-4.508,9.36-7.7,13.734-1.574,2.159-3.2,4.391-4.618,6.755-5.561,9.292-7.289,20.417-5,32.172a54.75,54.75,0,0,1-1.345,26.923,87.6,87.6,0,0,1-3.35,8.317c-.474,1.07-.964,2.175-1.426,3.265-1.762,4.158-2.051,7.777-2.246,12.076-.044.959-.121,1.94-.2,2.888a32.506,32.506,0,0,0,0,7.658c.063.39.127.842.194,1.319.367,2.563.9,6.3,2.2,8.116a.555.555,0,0,1,.49.153.863.863,0,0,1,.3.725.757.757,0,0,1-.383.563A.552.552,0,0,1,4409.857,1532.372Zm-.391-.559h0Z" transform="translate(-4405.998 -1406.92)" fill="#033a3f"/>
        </g>
        <path id="Path_8149" data-name="Path 8149" d="M4376.3,1841.822h-27.668a5.541,5.541,0,0,0-5.408,6.749l3.86,17.282a5.542,5.542,0,0,0,5.408,4.333h19.948a5.54,5.54,0,0,0,5.407-4.333l3.86-17.282A5.541,5.541,0,0,0,4376.3,1841.822Z" transform="translate(-4322.368 -1706.477)" fill="#fff"/>
        <path id="Path_8150" data-name="Path 8150" d="M4377.786,1866.108a5.539,5.539,0,0,1-5.343,4.077H4352.5a5.54,5.54,0,0,1-5.408-4.333l-3.859-17.282a5.54,5.54,0,0,1,5.407-6.749h.031a26.483,26.483,0,0,0,26.4,24.425A26.779,26.779,0,0,0,4377.786,1866.108Z" transform="translate(-4322.369 -1706.477)" fill="#2645a8" opacity="0.2" style="mix-blend-mode: multiply;isolation: isolate"/>
      </g>
    </g>
    <g id="Group_1162" data-name="Group 1162" transform="translate(803.342 385.072)">
      <g id="Group_1161" data-name="Group 1161" transform="translate(0 119.735)">
        <g id="Group_1160" data-name="Group 1160">
          <g id="Group_1159" data-name="Group 1159">
            <g id="Group_1158" data-name="Group 1158" transform="translate(0 7.177)">
              <g id="Group_1154" data-name="Group 1154" transform="translate(48.862)">
                <path id="Path_8109" data-name="Path 8109" d="M1309.035,1350.654h34.989l-1.015-3.589H1308.02Z" transform="translate(-1301.751 -1337.72)" fill="#c3933c"/>
                <path id="Path_8110" data-name="Path 8110" d="M1333.524,1437.224h34.989l-1.015-3.589h-34.989Z" transform="translate(-1319.895 -1401.861)" fill="#c3933c"/>
                <path id="Path_8111" data-name="Path 8111" d="M1358.012,1523.794H1393l-1.015-3.589H1357Z" transform="translate(-1338.038 -1466.002)" fill="#c3933c"/>
                <path id="Path_8112" data-name="Path 8112" d="M1382.5,1610.364h34.989l-1.015-3.589h-34.989Z" transform="translate(-1356.182 -1530.143)" fill="#c3933c"/>
                <path id="Path_8113" data-name="Path 8113" d="M1406.988,1696.933h34.989l-1.015-3.588h-34.989Z" transform="translate(-1374.326 -1594.284)" fill="#c3933c"/>
                <path id="Path_8114" data-name="Path 8114" d="M1431.476,1783.5h34.989l-1.015-3.589h-34.989Z" transform="translate(-1392.469 -1658.425)" fill="#c3933c"/>
                <path id="Path_8115" data-name="Path 8115" d="M1455.964,1870.073h34.989l-1.015-3.589h-34.989Z" transform="translate(-1410.613 -1722.566)" fill="#c3933c"/>
                <path id="Path_8116" data-name="Path 8116" d="M1467.765,1483.846h7.252l-48.895-172.852h-7.252Z" transform="translate(-1383.881 -1310.995)" fill="#c3933c"/>
                <path id="Path_8117" data-name="Path 8117" d="M1332.716,1483.846h7.252l-48.895-172.852h-7.252Z" transform="translate(-1283.822 -1310.995)" fill="#c3933c"/>
              </g>
              <g id="Group_1157" data-name="Group 1157">
                <path id="Path_8118" data-name="Path 8118" d="M1319.826,1347.057l-1.015,3.589h-34.992l1.015-3.589Z" transform="translate(-1234.958 -1337.714)" fill="#c3933c"/>
                <path id="Path_8119" data-name="Path 8119" d="M1295.34,1433.633l-1.015,3.589h-34.986l1.015-3.589Z" transform="translate(-1216.82 -1401.859)" fill="#c3933c"/>
                <path id="Path_8120" data-name="Path 8120" d="M1270.845,1520.209l-1.015,3.589h-34.992l1.015-3.589Z" transform="translate(-1198.667 -1466.005)" fill="#c3933c"/>
                <path id="Path_8121" data-name="Path 8121" d="M1246.36,1606.786l-1.015,3.583h-34.986l1.015-3.583Z" transform="translate(-1180.53 -1530.151)" fill="#c3933c"/>
                <path id="Path_8122" data-name="Path 8122" d="M1221.865,1693.34l-1.015,3.589h-34.991l1.021-3.589Z" transform="translate(-1162.377 -1594.281)" fill="#c3933c"/>
                <path id="Path_8123" data-name="Path 8123" d="M1197.385,1779.916l-1.015,3.589h-34.992l1.015-3.589Z" transform="translate(-1144.24 -1658.426)" fill="#c3933c"/>
                <path id="Path_8124" data-name="Path 8124" d="M1172.9,1866.492l-1.015,3.589H1136.9l1.015-3.589Z" transform="translate(-1126.102 -1722.572)" fill="#c3933c"/>
                <g id="Group_1155" data-name="Group 1155" transform="translate(10.797 9.343)" opacity="0.3" style="mix-blend-mode: multiply;isolation: isolate">
                  <path id="Path_8125" data-name="Path 8125" d="M1136.9,1870.081h6.965l1.015-3.589h-6.965Z" transform="translate(-1136.899 -1731.915)" fill="#1a1a1a"/>
                  <path id="Path_8126" data-name="Path 8126" d="M1161.379,1783.5h6.97l1.015-3.589h-6.97Z" transform="translate(-1155.036 -1667.769)" fill="#1a1a1a"/>
                  <path id="Path_8127" data-name="Path 8127" d="M1185.858,1696.929h6.97l1.015-3.589h-6.965Z" transform="translate(-1173.174 -1603.624)" fill="#1a1a1a"/>
                  <path id="Path_8128" data-name="Path 8128" d="M1210.359,1610.369h6.97l1.009-3.583h-6.965Z" transform="translate(-1191.327 -1539.494)" fill="#1a1a1a"/>
                  <path id="Path_8129" data-name="Path 8129" d="M1234.838,1523.8h6.97l1.015-3.589h-6.97Z" transform="translate(-1209.464 -1475.348)" fill="#1a1a1a"/>
                  <path id="Path_8130" data-name="Path 8130" d="M1259.339,1437.222h6.965l1.015-3.589h-6.965Z" transform="translate(-1227.617 -1411.203)" fill="#1a1a1a"/>
                  <path id="Path_8131" data-name="Path 8131" d="M1284.834,1347.057l-1.015,3.589h6.97l1.015-3.589Z" transform="translate(-1245.755 -1347.057)" fill="#1a1a1a"/>
                </g>
                <g id="Group_1156" data-name="Group 1156" transform="translate(37.809 9.343)" opacity="0.3" style="mix-blend-mode: multiply;isolation: isolate">
                  <path id="Path_8132" data-name="Path 8132" d="M1241.159,1870.081h6.965l1.015-3.589h-6.965Z" transform="translate(-1241.159 -1731.915)" fill="#1a1a1a"/>
                  <path id="Path_8133" data-name="Path 8133" d="M1265.638,1783.5h6.97l1.015-3.589h-6.97Z" transform="translate(-1259.296 -1667.769)" fill="#1a1a1a"/>
                  <path id="Path_8134" data-name="Path 8134" d="M1290.118,1696.929h6.97l1.015-3.589h-6.965Z" transform="translate(-1277.433 -1603.624)" fill="#1a1a1a"/>
                  <path id="Path_8135" data-name="Path 8135" d="M1314.619,1610.369h6.97l1.009-3.583h-6.965Z" transform="translate(-1295.586 -1539.494)" fill="#1a1a1a"/>
                  <path id="Path_8136" data-name="Path 8136" d="M1339.1,1523.8h6.97l1.015-3.589h-6.97Z" transform="translate(-1313.724 -1475.348)" fill="#1a1a1a"/>
                  <path id="Path_8137" data-name="Path 8137" d="M1363.6,1437.222h6.965l1.015-3.589h-6.965Z" transform="translate(-1331.877 -1411.203)" fill="#1a1a1a"/>
                  <path id="Path_8138" data-name="Path 8138" d="M1389.094,1347.057l-1.015,3.589h6.97l1.015-3.589Z" transform="translate(-1350.014 -1347.057)" fill="#1a1a1a"/>
                </g>
                <path id="Path_8139" data-name="Path 8139" d="M1102.478,1483.846h-7.252l48.895-172.852h7.252Z" transform="translate(-1095.225 -1310.995)" fill="#f3bd5b"/>
                <path id="Path_8140" data-name="Path 8140" d="M1237.526,1483.846h-7.252l48.895-172.852h7.252Z" transform="translate(-1195.285 -1310.995)" fill="#f3bd5b"/>
              </g>
            </g>
            <rect id="Rectangle_951" data-name="Rectangle 951" width="54.951" height="8.672" rx="3.103" transform="translate(42.524)" fill="#f3bd5b"/>
          </g>
        </g>
      </g>
    </g>
  </g>
</svg>
