<svg id="e7m6B485bOP1" xmlns="http://www.w3.org/2000/svg" xmlns:xlink="http://www.w3.org/1999/xlink" viewBox="0 0 2480 508" shape-rendering="geometricPrecision" text-rendering="geometricPrecision" width="2480" height="508"><style><![CDATA[#e7m6B485bOP3_to {animation: e7m6B485bOP3_to__to 1000ms linear 1 normal forwards}@keyframes e7m6B485bOP3_to__to { 0% {transform: translate(2552px,1782px)} 30% {transform: translate(2615px,2540px)} 100% {transform: translate(2615px,2540px)}} #e7m6B485bOP3_ts {animation: e7m6B485bOP3_ts__ts 1000ms linear 1 normal forwards}@keyframes e7m6B485bOP3_ts__ts { 0% {transform: scale(0.5,0.5)} 20% {transform: scale(1,1)} 100% {transform: scale(1,1)}} #e7m6B485bOP3 {animation: e7m6B485bOP3_c_o 1000ms linear 1 normal forwards}@keyframes e7m6B485bOP3_c_o { 0% {opacity: 0} 30% {opacity: 1} 100% {opacity: 1}} #e7m6B485bOP4_to {animation: e7m6B485bOP4_to__to 1000ms linear 1 normal forwards}@keyframes e7m6B485bOP4_to__to { 0% {transform: translate(5210px,3500px);animation-timing-function: cubic-bezier(0.42,0,1,1)} 30% {transform: translate(5220px,2540px)} 100% {transform: translate(5220px,2540px)}} #e7m6B485bOP4_ts {animation: e7m6B485bOP4_ts__ts 1000ms linear 1 normal forwards}@keyframes e7m6B485bOP4_ts__ts { 0% {transform: scale(1,0.45)} 30% {transform: scale(1,1)} 100% {transform: scale(1,1)}} #e7m6B485bOP4 {animation: e7m6B485bOP4_c_o 1000ms linear 1 normal forwards}@keyframes e7m6B485bOP4_c_o { 0% {opacity: 0} 30% {opacity: 1} 100% {opacity: 1}} #e7m6B485bOP5_to {animation: e7m6B485bOP5_to__to 1000ms linear 1 normal forwards}@keyframes e7m6B485bOP5_to__to { 0% {transform: translate(7000px,2540px)} 30% {transform: translate(7705px,2540px)} 100% {transform: translate(7705px,2540px)}} #e7m6B485bOP5_tr {animation: e7m6B485bOP5_tr__tr 1000ms linear 1 normal forwards}@keyframes e7m6B485bOP5_tr__tr { 0% {transform: rotate(30deg)} 30% {transform: rotate(0deg)} 100% {transform: rotate(0deg)}} #e7m6B485bOP5 {animation: e7m6B485bOP5_c_o 1000ms linear 1 normal forwards}@keyframes e7m6B485bOP5_c_o { 0% {opacity: 0} 30% {opacity: 1} 100% {opacity: 1}} #e7m6B485bOP6_to {animation: e7m6B485bOP6_to__to 1000ms linear 1 normal forwards}@keyframes e7m6B485bOP6_to__to { 0% {transform: translate(9200px,2540px)} 30% {transform: translate(10290px,2540px)} 100% {transform: translate(10290px,2540px)}} #e7m6B485bOP6_ts {animation: e7m6B485bOP6_ts__ts 1000ms linear 1 normal forwards}@keyframes e7m6B485bOP6_ts__ts { 0% {transform: scale(0.28,1)} 30% {transform: scale(1,1)} 100% {transform: scale(1,1)}} #e7m6B485bOP6 {animation: e7m6B485bOP6_c_o 1000ms linear 1 normal forwards}@keyframes e7m6B485bOP6_c_o { 0% {opacity: 0} 30% {opacity: 1} 100% {opacity: 1}} #e7m6B485bOP7_to {animation: e7m6B485bOP7_to__to 1000ms linear 1 normal forwards}@keyframes e7m6B485bOP7_to__to { 0% {transform: translate(11500px,2540px)} 20% {transform: translate(11500px,2540px)} 40% {transform: translate(12870px,2540px)} 100% {transform: translate(12870px,2540px)}} #e7m6B485bOP7 {animation: e7m6B485bOP7_c_o 1000ms linear 1 normal forwards}@keyframes e7m6B485bOP7_c_o { 0% {opacity: 0} 20% {opacity: 0} 40% {opacity: 1} 100% {opacity: 1}} #e7m6B485bOP8_to {animation: e7m6B485bOP8_to__to 1000ms linear 1 normal forwards}@keyframes e7m6B485bOP8_to__to { 0% {transform: translate(13500px,2540px)} 30% {transform: translate(13500px,2540px)} 50% {transform: translate(15287.794434px,2540px)} 100% {transform: translate(15287.794434px,2540px)}} #e7m6B485bOP8 {animation: e7m6B485bOP8_c_o 1000ms linear 1 normal forwards}@keyframes e7m6B485bOP8_c_o { 0% {opacity: 0} 30% {opacity: 0} 50% {opacity: 1} 100% {opacity: 1}} #e7m6B485bOP9_to {animation: e7m6B485bOP9_to__to 1000ms linear 1 normal forwards}@keyframes e7m6B485bOP9_to__to { 0% {transform: translate(15500px,2540px)} 40% {transform: translate(15500px,2540px)} 60% {transform: translate(18140px,2540px)} 100% {transform: translate(18140px,2540px)}} #e7m6B485bOP9 {animation: e7m6B485bOP9_c_o 1000ms linear 1 normal forwards}@keyframes e7m6B485bOP9_c_o { 0% {opacity: 0} 40% {opacity: 0} 60% {opacity: 1} 100% {opacity: 1}} #e7m6B485bOP10_to {animation: e7m6B485bOP10_to__to 1000ms linear 1 normal forwards}@keyframes e7m6B485bOP10_to__to { 0% {transform: translate(19000px,2539.110046px)} 50% {transform: translate(19000px,2539.110046px)} 70% {transform: translate(20387.5px,2539.110046px)} 100% {transform: translate(20387.5px,2539.110046px)}} #e7m6B485bOP10 {animation: e7m6B485bOP10_c_o 1000ms linear 1 normal forwards}@keyframes e7m6B485bOP10_c_o { 0% {opacity: 0} 50% {opacity: 0} 70% {opacity: 1} 100% {opacity: 1}} #e7m6B485bOP11_to {animation: e7m6B485bOP11_to__to 1000ms linear 1 normal forwards}@keyframes e7m6B485bOP11_to__to { 0% {transform: translate(19000px,2540px)} 70% {transform: translate(19000px,2540px)} 100% {transform: translate(22620px,2540px)}} #e7m6B485bOP11 {animation: e7m6B485bOP11_c_o 1000ms linear 1 normal forwards}@keyframes e7m6B485bOP11_c_o { 0% {opacity: 0} 70% {opacity: 0} 100% {opacity: 1}} #e7m6B485bOP12_to {animation: e7m6B485bOP12_to__to 1000ms linear 1 normal forwards}@keyframes e7m6B485bOP12_to__to { 0% {transform: translate(3486.56665px,2544.495728px)} 50% {transform: translate(3486.56665px,2544.495728px)} 80% {transform: translate(4376.56665px,2544.495728px)} 100% {transform: translate(4376.56665px,2544.495728px)}} #e7m6B485bOP12_ts {animation: e7m6B485bOP12_ts__ts 1000ms linear 1 normal forwards}@keyframes e7m6B485bOP12_ts__ts { 0% {transform: scale(0.54,1)} 40% {transform: scale(0.54,1)} 70% {transform: scale(1,1)} 100% {transform: scale(1,1)}} #e7m6B485bOP12 {animation: e7m6B485bOP12_c_o 1000ms linear 1 normal forwards}@keyframes e7m6B485bOP12_c_o { 0% {opacity: 0} 30% {opacity: 0} 60% {opacity: 1} 100% {opacity: 1}}]]></style><g id="e7m6B485bOP2" transform="matrix(0.1 0 0 -0.1 0 508)"><g id="e7m6B485bOP3_to" transform="translate(2552,1782)"><g id="e7m6B485bOP3_ts" transform="scale(0.5,0.5)"><path id="e7m6B485bOP3" d="M1500,3935L1500,3690L1893,3690L2287,3690L2311,3664L2335,3638L2340,2296L2345,953L2376,926L2408,900L2612,900C2813,900,2817,900,2838,923L2860,946L2860,2296L2860,3647L2883,3668C2906,3690,2911,3690,3256,3690C3448,3690,3615,3693,3627,3696C3639,3699,3652,3712,3656,3724C3659,3735,3678,3766,3696,3793L3730,3840L3730,3979C3730,4114,3729,4119,3704,4149L3678,4180L2589,4180L1500,4180L1500,3935Z" transform="translate(-2547,-2463)" opacity="0" fill="rgb(129,129,129)" stroke="none" stroke-width="1"/></g></g><g id="e7m6B485bOP4_to" transform="translate(5210,3500)"><g id="e7m6B485bOP4_ts" transform="scale(1,0.45)"><path id="e7m6B485bOP4" d="M4020,3927L4020,3674L4055,3640C4074,3621,4090,3598,4090,3588C4090,3578,4098,3567,4108,3563C4130,3555,4170,3519,4170,3508C4170,3503,4184,3487,4200,3473C4217,3460,4230,3444,4230,3438C4230,3433,4243,3418,4259,3405C4280,3387,4289,3369,4292,3337C4297,3297,4310,3275,4363,3223C4403,3183,4432,3160,4444,3160C4457,3160,4500,3119,4500,3106C4500,3102,4514,3087,4530,3073C4555,3052,4560,3041,4560,3002C4560,2961,4564,2953,4589,2938C4605,2929,4620,2912,4622,2899C4624,2884,4634,2874,4650,2870C4666,2866,4676,2856,4678,2842C4680,2827,4688,2820,4704,2820C4725,2820,4770,2783,4770,2766C4770,2762,4784,2747,4800,2733C4817,2720,4830,2704,4830,2699C4830,2694,4844,2677,4861,2662C4887,2639,4892,2626,4897,2572C4902,2516,4900,2507,4880,2485C4867,2471,4848,2460,4838,2460C4828,2460,4820,2454,4820,2446C4820,2438,4807,2422,4790,2410C4765,2392,4760,2382,4760,2345C4760,2309,4755,2297,4730,2277C4714,2263,4700,2247,4700,2242C4700,2228,4655,2190,4638,2190C4630,2190,4618,2179,4612,2166C4606,2152,4591,2140,4578,2138C4564,2136,4554,2126,4550,2111C4547,2098,4536,2082,4525,2076C4495,2060,4490,2049,4490,2005C4490,1962,4494,1967,4345,1830C4334,1820,4316,1810,4305,1808C4292,1806,4283,1795,4280,1775C4277,1756,4268,1744,4255,1742C4226,1736,4210,1720,4210,1698C4210,1687,4202,1676,4191,1673C4173,1668,4160,1633,4160,1585C4160,1562,4122,1520,4102,1520C4095,1520,4090,1503,4090,1476C4090,1438,4085,1428,4055,1401L4020,1371L4020,1135L4020,900L5163,900C5791,900,6315,903,6328,906C6348,912,6350,918,6350,974C6350,1026,6354,1040,6373,1058C6386,1070,6402,1080,6408,1080C6416,1080,6420,1104,6420,1156C6420,1227,6418,1233,6391,1256C6368,1275,6361,1291,6355,1335C6349,1389,6348,1390,6315,1390C6294,1390,6271,1399,6252,1415L6222,1440L5536,1440C5018,1440,4845,1443,4830,1452C4815,1462,4808,1461,4791,1446C4759,1417,4747,1437,4775,1474C4789,1493,4800,1520,4800,1538C4800,1559,4809,1576,4830,1593C4847,1607,4860,1623,4860,1628C4860,1640,4904,1680,4918,1680C4925,1680,4930,1686,4930,1693C4930,1700,4959,1734,4994,1768C5030,1803,5065,1846,5072,1866C5079,1886,5097,1913,5112,1926C5128,1938,5140,1952,5140,1957C5140,1962,5167,1994,5200,2030C5233,2066,5260,2097,5260,2101C5260,2111,5306,2150,5318,2150C5325,2150,5330,2156,5330,2164C5330,2172,5343,2189,5359,2202C5391,2230,5410,2260,5410,2285C5410,2307,5507,2420,5526,2420C5537,2420,5540,2444,5540,2540C5540,2633,5537,2660,5527,2660C5504,2660,5470,2705,5470,2736C5470,2757,5460,2776,5435,2800C5416,2819,5400,2840,5400,2847C5400,2854,5394,2860,5387,2860C5371,2860,5330,2902,5330,2918C5330,2925,5324,2930,5317,2930C5302,2930,5260,2971,5260,2986C5260,2992,5249,3007,5235,3020C5221,3033,5210,3053,5210,3065C5210,3077,5192,3108,5170,3133C5148,3158,5130,3183,5130,3189C5130,3195,5124,3200,5117,3200C5101,3200,5060,3242,5060,3258C5060,3265,5054,3270,5046,3270C5029,3270,4940,3373,4940,3393C4940,3400,4930,3415,4919,3426C4907,3436,4894,3454,4889,3465C4874,3499,4856,3522,4823,3553C4805,3569,4790,3590,4790,3600C4790,3610,4781,3622,4770,3625C4759,3628,4745,3640,4740,3651C4730,3668,4733,3670,4773,3670C4796,3670,4820,3674,4826,3680C4832,3686,5114,3691,5582,3692C5992,3694,6332,3698,6336,3702C6340,3706,6345,3732,6348,3759C6351,3794,6359,3815,6376,3831C6398,3852,6400,3861,6400,3950C6400,4032,6397,4050,6381,4064C6370,4074,6360,4101,6356,4130L6349,4180L5185,4180L4020,4180L4020,3927Z" transform="translate(-5220,-2540)" opacity="0" paint-order="fill markers stroke" fill="rgb(71,126,229)" stroke="none" stroke-width="1"/></g></g><g id="e7m6B485bOP5_to" transform="translate(7000,2540)"><g id="e7m6B485bOP5_tr" transform="rotate(30)"><path id="e7m6B485bOP5" d="M7025,4160C7015,4149,7001,4140,6993,4140C6986,4140,6980,4134,6980,4127C6980,4113,6939,4070,6926,4070C6922,4070,6907,4057,6893,4040C6880,4024,6862,4010,6854,4010C6846,4010,6840,4004,6840,3996C6840,3988,6826,3970,6809,3955C6785,3935,6776,3919,6773,3885C6769,3854,6759,3833,6739,3814L6710,3786L6710,2561L6710,1336L6735,1310C6753,1291,6764,1265,6771,1221C6779,1169,6786,1154,6815,1128C6834,1112,6850,1092,6850,1084C6850,1076,6856,1070,6864,1070C6872,1070,6889,1057,6902,1041C6916,1025,6936,1009,6948,1006C6960,1002,6980,986,6994,969C7009,952,7028,940,7043,940C7056,940,7075,931,7085,920C7103,900,7116,900,7875,900L8646,900L8673,928L8700,956L8700,1154C8700,1271,8696,1359,8690,1371C8680,1389,8661,1390,8007,1390L7334,1390L7282,1443L7230,1496L7230,2541C7230,3574,7230,3587,7250,3605C7261,3615,7270,3628,7270,3635C7270,3641,7280,3656,7293,3668L7316,3690L7963,3690L8609,3690L8655,3735L8700,3781L8700,3980L8700,4180L7872,4180C7056,4180,7043,4180,7025,4160Z" transform="translate(-7705,-2540)" opacity="0" fill="rgb(129,129,129)" stroke="none" stroke-width="1"/></g></g><g id="e7m6B485bOP6_to" transform="translate(9200,2540)"><g id="e7m6B485bOP6_ts" transform="scale(0.28,1)"><path id="e7m6B485bOP6" d="M9066,4164C9063,4155,9060,3441,9060,2576C9060,1004,9060,1003,9080,985C9092,974,9108,951,9117,933L9132,900L9350,900L9567,900L9574,946C9577,972,9580,1273,9580,1615L9580,2237L9603,2258L9626,2280L10291,2280L10957,2280L10978,2257L11000,2234L11000,1602L11000,971L11031,935L11062,900L11285,900C11507,900,11508,900,11514,923C11517,935,11520,1661,11520,2536L11520,4127L11499,4154L11479,4180L11245,4180C11042,4180,11011,4178,11006,4164C11003,4155,11000,3855,11000,3496L11000,2843L10977,2822L10954,2800L10294,2800L9633,2800L9609,2826L9585,2852L9579,3493C9576,3846,9570,4145,9565,4158L9558,4180L9315,4180C9103,4180,9071,4178,9066,4164Z" transform="translate(-10290,-2540)" opacity="0" fill="rgb(129,129,129)" stroke="none" stroke-width="1"/></g></g><g id="e7m6B485bOP7_to" transform="translate(11500,2540)"><path id="e7m6B485bOP7" d="M11876,4164C11873,4155,11870,4138,11870,4126C11870,4114,11857,4091,11840,4075L11810,4046L11810,2542L11810,1037L11845,999C11869,973,11880,950,11880,930L11880,900L12000,900L12120,900L12120,939C12120,970,12126,983,12150,1003L12180,1029L12180,1529C12180,2018,12180,2030,12200,2048C12219,2066,12248,2067,12705,2072L13189,2078L13217,2109C13239,2134,13256,2142,13298,2147C13340,2152,13358,2160,13384,2186C13404,2206,13428,2220,13442,2220C13456,2220,13479,2233,13495,2250C13511,2266,13530,2280,13537,2280C13545,2280,13564,2296,13581,2315C13598,2334,13617,2350,13624,2350C13641,2350,13730,2466,13730,2489C13730,2499,13744,2520,13761,2535C13785,2555,13794,2571,13798,2606C13801,2638,13810,2657,13830,2673C13853,2693,13858,2706,13864,2775C13870,2841,13876,2860,13901,2891L13930,2928L13930,3145L13930,3362L13900,3400C13875,3431,13869,3450,13864,3511C13859,3573,13853,3590,13830,3615C13815,3632,13800,3661,13797,3680C13794,3703,13778,3730,13753,3756C13732,3778,13684,3828,13647,3868C13609,3908,13575,3940,13571,3940C13559,3940,13520,3985,13520,3998C13520,4005,13509,4010,13496,4010C13481,4010,13462,4022,13447,4040C13430,4060,13412,4070,13395,4070C13378,4070,13355,4083,13333,4105C13307,4131,13289,4140,13266,4140C13246,4140,13226,4148,13215,4160C13197,4180,13184,4180,12540,4180C11949,4180,11882,4178,11876,4164ZM13081,3863C13106,3834,13116,3830,13161,3830C13206,3830,13216,3826,13247,3795C13266,3776,13289,3760,13298,3760C13318,3760,13360,3721,13360,3703C13360,3696,13366,3690,13373,3690C13379,3690,13409,3666,13438,3637C13478,3595,13490,3577,13490,3552C13490,3532,13500,3509,13519,3488C13537,3467,13549,3439,13553,3411C13556,3382,13568,3358,13587,3338L13615,3309L13615,3141C13615,2976,13615,2973,13589,2939C13570,2914,13561,2887,13556,2838C13549,2780,13544,2767,13519,2746C13503,2732,13490,2718,13490,2715C13490,2711,13456,2668,13414,2619C13367,2564,13331,2530,13319,2530C13309,2530,13300,2525,13300,2518C13300,2495,13257,2460,13227,2460C13207,2460,13185,2448,13159,2425L13120,2390L12673,2390C12228,2390,12226,2390,12203,2412L12180,2433L12180,3144L12180,3854L12202,3877L12225,3901L12638,3898L13052,3895L13081,3863Z" transform="translate(-12870,-2540)" opacity="0" fill="rgb(129,129,129)" stroke="none" stroke-width="1"/></g><g id="e7m6B485bOP8_to" transform="translate(13500,2540)"><path id="e7m6B485bOP8" d="M14277,4145C14234,4112,14231,4108,14225,4048C14222,4013,14220,3303,14222,2469L14225,953L14255,927L14285,901L15316,900L16347,900L16353,945C16355,970,16355,1020,16352,1055C16348,1115,16346,1119,16320,1125C16305,1128,16282,1142,16270,1156L16247,1180L15435,1180L14624,1180L14597,1208C14582,1223,14570,1241,14570,1247C14570,1253,14563,1263,14555,1270C14542,1281,14540,1460,14538,2701L14535,4119L14500,4149C14468,4176,14458,4179,14394,4180C14328,4180,14320,4178,14277,4145Z" transform="translate(-15287.794434,-2540)" opacity="0" fill="rgb(129,129,129)" stroke="none" stroke-width="1"/></g><g id="e7m6B485bOP9_to" transform="translate(15500,2540)"><path id="e7m6B485bOP9" d="M18011,4156C17996,4140,17986,4114,17983,4085C17979,4052,17970,4034,17950,4017C17927,3997,17922,3984,17917,3920C17911,3854,17906,3842,17880,3818C17857,3796,17850,3782,17850,3752C17850,3720,17843,3707,17815,3681C17787,3656,17780,3642,17780,3612C17780,3586,17772,3564,17751,3540C17729,3512,17721,3491,17716,3438C17709,3380,17704,3367,17679,3346C17656,3326,17650,3313,17650,3282C17650,3250,17644,3237,17615,3211C17587,3186,17580,3172,17580,3142C17580,3115,17571,3093,17545,3061C17514,3022,17510,3010,17510,2959C17510,2908,17507,2899,17480,2877C17457,2857,17450,2843,17450,2814C17450,2786,17442,2768,17415,2739C17386,2707,17380,2692,17380,2657C17380,2622,17373,2606,17345,2573C17315,2538,17310,2525,17310,2482C17310,2438,17306,2428,17280,2406C17258,2388,17248,2369,17244,2336C17239,2305,17229,2283,17209,2264C17185,2241,17180,2228,17180,2190C17180,2151,17174,2137,17145,2103C17117,2071,17110,2053,17110,2021C17110,1990,17103,1972,17079,1945C17057,1920,17046,1896,17042,1865C17039,1831,17030,1813,17009,1795C16985,1776,16980,1763,16980,1727C16980,1692,16973,1676,16946,1644C16920,1614,16912,1593,16908,1552C16904,1510,16896,1492,16871,1466C16847,1441,16840,1425,16840,1393C16840,1359,16834,1347,16810,1327C16785,1306,16780,1294,16780,1259C16780,1225,16773,1210,16745,1179C16710,1140,16710,1140,16710,1044C16710,953,16711,948,16738,925C16763,903,16774,901,16866,900C16963,900,16967,901,16993,928C17013,949,17020,966,17020,997C17020,1031,17026,1043,17052,1065C17080,1089,17084,1099,17088,1153C17091,1204,17097,1221,17120,1245C17138,1265,17150,1291,17154,1321C17159,1354,17169,1375,17190,1395C17214,1418,17220,1432,17220,1465C17220,1491,17227,1514,17238,1526C17280,1572,17290,1595,17290,1651C17290,1703,17293,1711,17321,1735C17345,1755,17354,1771,17357,1805C17361,1836,17371,1857,17391,1876C17413,1897,17420,1913,17420,1942C17420,1982,17432,2009,17464,2047L17483,2070L18150,2070L18817,2070L18838,2047C18851,2033,18860,2011,18860,1991C18860,1967,18868,1952,18890,1933C18916,1912,18920,1902,18920,1858C18920,1815,18925,1802,18955,1767C18984,1733,18990,1719,18990,1680C18990,1640,18995,1629,19025,1600C19053,1573,19060,1558,19060,1527C19060,1497,19066,1483,19089,1464C19114,1443,19119,1430,19125,1371C19131,1313,19136,1298,19161,1274C19185,1251,19190,1238,19190,1201C19190,1160,19194,1152,19225,1127C19256,1103,19260,1094,19260,1054C19260,1016,19265,1005,19289,985C19305,971,19320,947,19323,930L19330,900L19436,900C19526,900,19545,903,19556,918C19565,930,19569,971,19570,1053L19570,1170L19540,1198C19517,1219,19508,1237,19504,1275C19500,1306,19489,1335,19475,1350C19449,1379,19430,1431,19430,1472C19430,1492,19421,1509,19400,1527C19375,1547,19370,1559,19370,1595C19370,1631,19364,1644,19335,1673C19305,1703,19300,1715,19300,1752C19300,1785,19294,1802,19279,1816C19252,1841,19230,1894,19230,1937C19230,1963,19223,1977,19200,1997C19175,2017,19170,2029,19170,2064C19170,2099,19164,2112,19135,2140C19105,2169,19100,2180,19100,2220C19100,2254,19095,2272,19080,2285C19050,2312,19030,2358,19030,2400C19030,2427,19023,2443,19001,2464C18980,2484,18971,2504,18967,2537C18964,2569,18954,2591,18931,2614C18904,2641,18900,2653,18900,2698C18900,2735,18896,2752,18885,2756C18861,2766,18830,2829,18830,2869C18830,2897,18823,2913,18801,2934C18780,2954,18771,2975,18766,3009C18761,3044,18752,3064,18730,3085C18706,3108,18700,3122,18700,3158C18700,3194,18694,3209,18665,3243C18635,3278,18630,3291,18630,3334C18630,3380,18627,3388,18595,3413C18565,3437,18560,3447,18560,3484C18560,3518,18554,3532,18531,3554C18507,3577,18501,3593,18495,3644C18490,3693,18482,3714,18459,3741C18438,3765,18430,3786,18430,3812C18430,3842,18423,3856,18395,3881C18365,3909,18360,3920,18360,3957C18360,3993,18355,4006,18331,4025C18312,4042,18300,4063,18296,4090C18292,4117,18280,4140,18262,4155C18237,4177,18226,4179,18134,4180C18040,4180,18032,4178,18011,4156ZM18213,3519C18245,3487,18250,3476,18250,3436C18250,3398,18256,3384,18285,3351C18312,3322,18320,3304,18320,3276C18320,3247,18327,3233,18349,3214C18374,3193,18380,3180,18386,3122C18391,3071,18399,3047,18420,3020C18436,3000,18450,2967,18453,2943C18457,2911,18466,2894,18489,2874C18515,2852,18520,2841,18520,2804C18520,2767,18525,2755,18551,2732C18578,2708,18583,2696,18588,2635C18592,2576,18597,2563,18620,2543C18642,2525,18649,2508,18655,2463C18660,2420,18668,2402,18686,2387C18716,2364,18709,2350,18665,2350C18646,2350,18628,2346,18625,2340C18617,2326,17663,2326,17655,2340C17652,2346,17636,2350,17619,2350C17589,2350,17580,2364,17603,2373C17612,2376,17619,2403,17623,2442C17629,2495,17634,2509,17660,2532C17685,2555,17690,2567,17690,2604C17690,2644,17694,2653,17725,2677C17754,2700,17760,2712,17760,2743C17760,2770,17769,2792,17789,2818C17810,2846,17819,2870,17824,2915C17829,2965,17835,2980,17860,3002C17884,3025,17890,3038,17890,3073C17890,3109,17896,3122,17925,3150C17955,3179,17960,3190,17960,3232C17960,3270,17966,3286,17989,3313C18010,3336,18021,3362,18026,3398C18031,3440,18039,3455,18071,3485C18104,3515,18110,3527,18110,3560C18110,3589,18116,3603,18132,3614C18144,3623,18151,3630,18147,3630C18142,3630,18142,3636,18147,3643C18151,3650,18158,3636,18165,3605C18172,3568,18185,3545,18213,3519Z" transform="translate(-18140,-2540)" opacity="0" fill="rgb(129,129,129)" stroke="none" stroke-width="1"/></g><g id="e7m6B485bOP10_to" transform="translate(19000,2539.110046)"><path id="e7m6B485bOP10" d="M19088,4155C19062,4133,19060,4126,19060,4051C19060,3974,19061,3971,19096,3936L19132,3900L19645,3900C20088,3900,20159,3898,20170,3885C20177,3877,20188,3870,20194,3870C20202,3870,20204,3497,20202,2442L20200,1014L20225,990C20239,977,20250,959,20250,951C20250,942,20257,927,20264,918C20283,893,20494,891,20504,916C20507,925,20510,1590,20510,2394L20510,3857L20533,3878L20556,3900L21094,3900L21631,3900L21672,3943C21709,3980,21714,3991,21715,4032C21715,4065,21709,4085,21695,4102C21683,4115,21668,4137,21660,4153L21647,4180L20381,4180L19115,4179L19088,4155Z" transform="translate(-20387.5,-2539.110046)" opacity="0" fill="rgb(129,129,129)" stroke="none" stroke-width="1"/></g><g id="e7m6B485bOP11_to" transform="translate(19000,2540)"><path id="e7m6B485bOP11" d="M21940,2571C21940,1686,21943,948,21946,931C21952,901,21954,900,22004,900C22065,901,22101,927,22121,986C22128,1007,22144,1036,22157,1051C22170,1065,22180,1080,22180,1086C22180,1091,22209,1124,22245,1158C22281,1193,22310,1225,22310,1230C22310,1235,22326,1251,22345,1267C22364,1283,22386,1311,22394,1330C22402,1350,22418,1374,22429,1384C22441,1395,22450,1410,22450,1418C22450,1437,22550,1540,22568,1540C22574,1540,22580,1546,22580,1553C22580,1569,22622,1610,22638,1610C22645,1610,22650,1615,22650,1621C22650,1627,22666,1650,22685,1673C22704,1695,22720,1724,22720,1736C22720,1749,22735,1771,22755,1789C22774,1806,22790,1824,22790,1829C22790,1834,22804,1850,22820,1863C22837,1877,22850,1893,22850,1898C22850,1910,22894,1950,22908,1950C22915,1950,22920,1956,22920,1963C22920,1971,22936,1991,22955,2009C22979,2030,22990,2049,22990,2068C22990,2089,23011,2118,23078,2188C23126,2239,23171,2280,23178,2280C23184,2280,23190,2287,23190,2295C23190,2303,23206,2322,23225,2337C23253,2360,23260,2372,23260,2401C23260,2424,23267,2443,23280,2455C23296,2470,23300,2486,23300,2540C23300,2594,23296,2610,23280,2625C23266,2638,23260,2656,23260,2687C23260,2713,23255,2730,23249,2730C23228,2730,23120,2844,23120,2866C23120,2878,23114,2890,23107,2893C23100,2895,23083,2921,23070,2948C23056,2976,23040,2999,23034,3000C23023,3000,22980,3042,22980,3053C22980,3056,22953,3085,22920,3117C22875,3160,22860,3181,22860,3202C22860,3232,22828,3272,22713,3384C22678,3417,22650,3448,22650,3453C22650,3457,22637,3473,22620,3487C22604,3500,22590,3516,22590,3522C22590,3527,22577,3542,22561,3556C22544,3570,22530,3594,22526,3615C22522,3637,22506,3662,22485,3682C22466,3699,22450,3719,22450,3727C22450,3734,22444,3740,22436,3740C22424,3740,22320,3851,22320,3865C22320,3868,22307,3882,22291,3895C22275,3909,22260,3933,22257,3949C22253,3966,22235,3993,22215,4011C22196,4029,22180,4049,22180,4057C22180,4064,22174,4070,22167,4070C22152,4070,22110,4111,22110,4126C22110,4132,22100,4146,22087,4158C22068,4176,22052,4180,22002,4180L21940,4180L21940,2571Z" transform="translate(-22620,-2540)" opacity="0" fill="rgb(71,126,229)" stroke="none" stroke-width="1"/></g><g id="e7m6B485bOP12_to" transform="translate(3486.56665,2544.495728)"><g id="e7m6B485bOP12_ts" transform="scale(0.54,1)"><path id="e7m6B485bOP12" d="M4020,2561C4020,2132,4023,1775,4026,1766C4034,1744,4125,1743,4133,1765C4137,1773,4155,1786,4175,1794C4198,1804,4210,1816,4210,1829C4210,1840,4214,1851,4219,1855C4234,1864,4260,1921,4260,1943C4260,1968,4368,2080,4392,2080C4402,2080,4410,2089,4412,2103C4414,2117,4423,2126,4438,2128C4454,2130,4466,2143,4475,2165C4484,2186,4499,2200,4515,2204C4537,2210,4540,2216,4540,2253C4540,2288,4546,2302,4570,2325C4587,2341,4600,2359,4600,2365C4600,2382,4644,2420,4663,2420C4673,2420,4685,2431,4690,2445C4695,2458,4707,2474,4717,2481C4745,2498,4735,2561,4699,2596C4683,2611,4670,2632,4670,2643C4670,2653,4657,2673,4640,2687C4615,2707,4610,2719,4610,2755C4610,2793,4606,2801,4583,2812C4568,2819,4550,2836,4543,2850C4536,2864,4520,2877,4508,2880C4494,2884,4484,2895,4482,2908C4480,2921,4472,2930,4461,2930C4444,2930,4400,2969,4400,2984C4400,2988,4387,3003,4370,3017C4347,3036,4340,3050,4340,3077C4340,3118,4325,3150,4305,3150C4297,3150,4284,3165,4276,3184C4266,3207,4254,3219,4238,3222C4223,3224,4214,3233,4212,3248C4210,3263,4202,3270,4186,3270C4163,3270,4120,3307,4120,3328C4120,3336,4102,3340,4070,3340L4020,3340L4020,2561Z" transform="translate(-4376.56665,-2544.495728)" opacity="0" fill="rgb(129,129,129)" stroke="none" stroke-width="1"/></g></g></g></svg>